SplineFontDB: 3.2
FontName: DrukaatieBurti-Heavy
FullName: Drukaatie burti resni
FamilyName: Drukaatie burti
Weight: Heavy
Copyright: License: SIL OFL.\nAuthor: Karlis Kalviskis\nLast update: 2023.02.15.\nContact: karlo@lu.lv
UComments: "Creted from DrukaatieBurti Bold. Embolden by 24 em units."
Version: 0.14.4
ItalicAngle: 0
UnderlinePosition: -173
UnderlineWidth: 100
Ascent: 1638
Descent: 410
InvalidEm: 0
LayerCount: 2
Layer: 0 1 "Back" 1
Layer: 1 1 "Fore" 0
XUID: [1021 827 580535596 12029684]
FSType: 0
OS2Version: 3
OS2_WeightWidthSlopeOnly: 1
OS2_UseTypoMetrics: 1
CreationTime: 1277802766
ModificationTime: 1677178417
PfmFamily: 65
TTFWeight: 800
TTFWidth: 5
LineGap: 87
VLineGap: 0
Panose: 3 8 9 2 4 5 2 3 2 4
OS2TypoAscent: 1420
OS2TypoAOffset: 0
OS2TypoDescent: -442
OS2TypoDOffset: 0
OS2TypoLinegap: 307
OS2WinAscent: 1825
OS2WinAOffset: 0
OS2WinDescent: 443
OS2WinDOffset: 0
HheadAscent: 1825
HheadAOffset: 0
HheadDescent: -443
HheadDOffset: 0
OS2SubXSize: 1434
OS2SubYSize: 1332
OS2SubXOff: 0
OS2SubYOff: 292
OS2SupXSize: 1434
OS2SupYSize: 1332
OS2SupXOff: 0
OS2SupYOff: 928
OS2StrikeYSize: 100
OS2StrikeYPos: 420
OS2CapHeight: 1344
OS2XHeight: 855
OS2FamilyClass: 2568
OS2Vendor: '    '
Lookup: 4 0 0 "'dlig' Discretionary Ligatures in Latin lookup 0" { "My Spelling"  } ['dlig' ('DFLT' <'dflt' > 'latn' <'LVI ' > ) ]
Lookup: 258 0 0 "'kern' Horizontal Kerning in Latin lookup 0" { "'TVWYFf' Horizontal Kerning in Latin lookup 0-1" [307,60,2] "'beforeTVWY' Horizontal Kerning in Latin lookup 0-2" [307,30,0] } ['kern' ('DFLT' <'dflt' > 'latn' <'dflt' > ) ]
MarkAttachClasses: 1
DEI: 91125
KernClass2: 3 3 "'beforeTVWY' Horizontal Kerning in Latin lookup 0-2"

StartChar: .notdef
Encoding: 65536 -1 0
Width: 2243
VWidth: 1894
Flags: W
HStem: -424 148<213 2027> 1016 146<213 2027>
VStem: 41 172<-276 1016> 292 141<544 969> 1017 140<-59 353> 2027 174<-276 1016>
LayerCount: 2
Fore
SplineSet
433 969 m 1,0,-1
 433 544 l 1,1,-1
 1018 969 l 1,2,-1
 1191 969 l 1,3,-1
 818 674 l 1,4,-1
 1157 412 l 1,5,-1
 1157 -59 l 1,6,-1
 1727 385 l 1,7,-1
 1909 385 l 1,8,-1
 1526 60 l 1,9,-1
 1910 -236 l 1,10,-1
 1727 -236 l 1,11,-1
 1437 -22 l 1,12,-1
 1160 -234 l 1,13,-1
 1017 -234 l 1,14,-1
 1017 353 l 1,15,-1
 700 587 l 1,16,-1
 423 385 l 1,17,-1
 292 385 l 1,18,-1
 292 969 l 1,19,-1
 433 969 l 1,0,-1
41 -424 m 1,20,-1
 41 1162 l 1,21,-1
 2201 1162 l 1,22,-1
 2201 -424 l 1,23,-1
 41 -424 l 1,20,-1
213 -276 m 1,24,-1
 2027 -276 l 1,25,-1
 2027 1016 l 1,26,-1
 213 1016 l 1,27,-1
 213 -276 l 1,24,-1
EndSplineSet
EndChar

StartChar: exclam
Encoding: 33 33 2
Width: 822
Flags: W
HStem: -60 328<257.165 495.141>
VStem: 170 399<8.92383 181.088>
LayerCount: 2
Fore
SplineSet
263 430 m 0,0,1
 157 673 157 673 157 934 c 0,2,3
 157 1195 157 1195 276 1416 c 0,4,5
 291 1444 291 1444 460 1461 c 1,6,-1
 532 1452 l 1,7,8
 609 1415 609 1415 637 1289 c 0,9,10
 665 1164 665 1164 665 1098 c 2,11,-1
 665 1095 l 2,12,13
 665 1028 665 1028 623 804 c 0,14,15
 581 580 581 580 569 528 c 0,16,17
 556 476 556 476 475 430 c 1,18,-1
 377 385 l 1,19,-1
 374 385 l 2,20,21
 354 385 354 385 312 404 c 1,22,23
 271 405 271 405 263 430 c 0,0,1
471 1381 m 1,24,25
 449 1318 449 1318 449 1256 c 2,26,-1
 449 1252 l 2,27,28
 449 1214 449 1214 530 1139 c 1,29,-1
 547 1228 l 1,30,-1
 528 1334 l 1,31,32
 514 1350 514 1350 471 1381 c 1,24,25
EndSplineSet
Refer: 13 46 N 1 0 0 1 8 -12 2
Validated: 1
EndChar

StartChar: numbersign
Encoding: 35 35 3
Width: 1461
VWidth: 1894
Flags: W
HStem: 252 157<592.267 823.334> 258 201<1115 1255.02> 655 167<610 807.536> 699 195<1133 1358.98> 707 157<36.3389 246.98>
VStem: 251 318<27.9141 227.5> 290 301<432.845 655 851 1144.61> 816 317<943.004 1230.79> 837 270<171.396 251.999 454.335 649.805> 845 299<943.004 1266.04>
LayerCount: 2
Fore
SplineSet
815 651 m 1,0,1
 802 654 802 654 760 654 c 128,-1,2
 718 654 718 654 689 655 c 1,3,-1
 675 655 l 2,4,5
 655 655 655 655 642 653 c 0,6,7
 618 650 618 650 603 650 c 1,8,-1
 591 412 l 1,9,10
 663 409 663 409 714 409 c 0,11,12
 824 409 824 409 843 424 c 1,13,14
 844 441 844 441 844 482.5 c 128,-1,15
 844 524 844 524 842 544 c 0,16,17
 837 613 837 613 815 651 c 1,0,1
985 1298 m 0,18,19
 1144 1298 1144 1298 1144 1200 c 1,20,-1
 1133 894 l 1,21,-1
 1202 894 l 2,22,23
 1328 894 1328 894 1360 874.5 c 128,-1,24
 1392 855 1392 855 1402 838 c 0,25,26
 1423 804 1423 804 1423 783.5 c 128,-1,27
 1423 763 1423 763 1414 749 c 128,-1,28
 1405 735 1405 735 1388 727 c 0,29,30
 1355 711 1355 711 1297 710 c 1,31,-1
 1126 699 l 1,32,33
 1120 580 1120 580 1115 459 c 1,34,35
 1136 456 1136 456 1181 451 c 0,36,37
 1287 439 1287 439 1287 346 c 0,38,39
 1287 291 1287 291 1256 274.5 c 128,-1,40
 1225 258 1225 258 1164 258 c 1,41,-1
 1107 256 l 1,42,-1
 1090 29 l 1,43,44
 1083 -45 1083 -45 1011 -49 c 2,45,-1
 1010 -49 l 1,46,-1
 1005 -49 l 2,47,48
 940 -49 940 -49 845 24 c 0,49,50
 802 56 802 56 802 108 c 2,51,-1
 802 111 l 1,52,-1
 803 113 l 1,53,54
 804 161 804 161 814.5 186 c 128,-1,55
 825 211 825 211 828 219.5 c 128,-1,56
 831 228 831 228 833 234 c 0,57,58
 837 245 837 245 837 248 c 0,59,60
 837 248 837 248 837 249 c 0,61,62
 837 252 837 252 795 252 c 0,63,64
 712 252 712 252 580 220 c 1,65,66
 570 43 570 43 569 23 c 0,67,68
 566 -14 566 -14 522 -14 c 2,69,-1
 519 -14 l 1,70,71
 324 -9 324 -9 287 36 c 0,72,73
 251 80 251 80 251 118 c 2,74,-1
 251 179 l 1,75,-1
 260 241 l 1,76,77
 80 273 80 273 80 334 c 0,78,79
 80 422 80 422 290 437 c 1,80,-1
 290 655 l 1,81,82
 83 692 83 692 65 707 c 128,-1,83
 47 722 47 722 41.5 729 c 128,-1,84
 36 736 36 736 32 743 c 0,85,86
 24 758 24 758 24 774 c 0,87,88
 24 864 24 864 164 864 c 2,89,-1
 165 864 l 1,90,-1
 289 851 l 1,91,-1
 293 936 l 1,92,93
 295 1062 295 1062 317.5 1109 c 128,-1,94
 340 1156 340 1156 347 1169 c 0,95,96
 378 1228 378 1228 457 1228 c 2,97,-1
 458 1228 l 2,98,99
 615 1228 615 1228 624 1185 c 0,100,101
 625 1182 625 1182 625 1178 c 128,-1,102
 625 1174 625 1174 624 1169 c 0,103,104
 623 1158 623 1158 623 1138 c 128,-1,105
 623 1118 623 1118 610 825 c 1,106,107
 704 823 704 823 732 822 c 0,108,109
 732 822 732 822 733 822 c 0,110,111
 762 822 762 822 809 847 c 1,112,-1
 815 943 l 2,113,114
 816 943 816 943 816 959 c 128,-1,115
 816 975 816 975 817 1002.5 c 128,-1,116
 818 1030 818 1030 820 1062 c 0,117,118
 826 1140 826 1140 845 1197 c 0,119,120
 879 1298 879 1298 985 1298 c 0,18,19
EndSplineSet
Validated: 1
EndChar

StartChar: dollar
Encoding: 36 36 4
Width: 1528
VWidth: 1894
Flags: W
HStem: -104 346<144.07 298.35> 641 191<974.344 1102.25> 942 302<1078.33 1194.11>
VStem: 217 434<817.53 1098.49> 552 257<-168.593 -41.6328> 735 237<366.632 617 826.581 1012.08> 1131 325<240.103 592.738>
LayerCount: 2
Fore
SplineSet
1075 1203 m 1,0,1
 1182 1244 1182 1244 1223 1244 c 2,2,-1
 1229 1244 l 1,3,4
 1287 1242 1287 1242 1310 1202 c 1,5,-1
 1321 1166 l 1,6,-1
 1321 1146 l 1,7,8
 1196 942 1196 942 1092 942 c 0,9,10
 1044 942 1044 942 1014.5 971 c 128,-1,11
 985 1000 985 1000 971 1013 c 1,12,13
 965 984 965 984 965 914 c 2,14,-1
 965 832 l 1,15,16
 1114 817 1114 817 1179.5 793 c 128,-1,17
 1245 769 1245 769 1311 713 c 0,18,19
 1456 588 1456 588 1456 429 c 2,20,-1
 1456 427 l 2,21,22
 1456 341 1456 341 1414 246 c 128,-1,23
 1372 151 1372 151 1313 97 c 128,-1,24
 1254 43 1254 43 1220.5 30.5 c 128,-1,25
 1187 18 1187 18 1147.5 13.5 c 128,-1,26
 1108 9 1108 9 1099 7.5 c 128,-1,27
 1090 6 1090 6 1083 5 c 128,-1,28
 1076 4 1076 4 1069.5 3.5 c 128,-1,29
 1063 3 1063 3 1058 2 c 128,-1,30
 1053 1 1053 1 1049 0 c 0,31,32
 1032 -3 1032 -3 1022 -20 c 0,33,34
 993 -68 993 -68 955.5 -70.5 c 128,-1,35
 918 -73 918 -73 879 -73 c 128,-1,36
 840 -73 840 -73 809 -41 c 1,37,-1
 809 -50 l 1,38,-1
 809 -54 l 1,39,40
 788 -202 788 -202 680 -208 c 2,41,42
 616 -208 616 -208 587 -176 c 128,-1,43
 558 -144 558 -144 552 -78 c 128,-1,44
 546 -12 546 -12 533 4 c 128,-1,45
 520 20 520 20 373 55 c 1,46,47
 368 41 368 41 358.5 8 c 128,-1,48
 349 -25 349 -25 310 -51.5 c 128,-1,49
 271 -78 271 -78 254 -86 c 0,50,51
 219 -104 219 -104 191 -104 c 0,52,53
 70 -104 70 -104 70 -22 c 0,54,55
 70 10 70 10 90.5 34 c 128,-1,56
 111 58 111 58 111 85 c 1,57,-1
 109 107 l 1,58,-1
 109 113 l 2,59,60
 109 171 109 171 143 206.5 c 128,-1,61
 177 242 177 242 242 242 c 2,62,-1
 243 242 l 1,63,-1
 488 215 l 1,64,-1
 489 220 l 1,65,-1
 456 647 l 1,66,67
 345 696 345 696 311 731.5 c 128,-1,68
 277 767 277 767 268 778 c 0,69,70
 217 839 217 839 217 940 c 0,71,72
 217 1076 217 1076 327 1179 c 0,73,74
 374 1222 374 1222 394 1254 c 1,75,76
 393 1264 393 1264 393 1296 c 0,77,78
 393 1384 393 1384 465 1454 c 0,79,80
 487 1474 487 1474 523 1474 c 128,-1,81
 559 1474 559 1474 587 1437 c 1,82,-1
 647 1320 l 1,83,84
 653 1315 653 1315 669 1313 c 1,85,-1
 700 1315 l 1,86,87
 706 1329 706 1329 713 1354 c 0,88,89
 732 1424 732 1424 759 1438 c 128,-1,90
 786 1452 786 1452 801.5 1455.5 c 128,-1,91
 817 1459 817 1459 835 1459 c 128,-1,92
 853 1459 853 1459 869 1456 c 0,93,94
 933 1444 933 1444 952 1411.5 c 128,-1,95
 971 1379 971 1379 972 1357 c 2,96,-1
 972 1242 l 1,97,98
 1026 1223 1026 1223 1075 1203 c 1,0,1
661 1166 m 1,99,100
 651 1152 651 1152 651 1013.5 c 128,-1,101
 651 875 651 875 662.5 851 c 128,-1,102
 674 827 674 827 680 817 c 1,103,104
 688 816 688 816 698 816 c 128,-1,105
 708 816 708 816 712 816 c 0,106,107
 720 817 720 817 724 818 c 0,108,109
 735 852 735 852 739 1137 c 1,110,-1
 661 1166 l 1,99,100
1104 600 m 1,111,112
 1048 641 1048 641 999 641 c 0,113,114
 998 641 998 641 997 641 c 0,115,116
 985 641 985 641 974 639 c 1,117,118
 969 611 969 611 969 540 c 128,-1,119
 969 469 969 469 969.5 438 c 128,-1,120
 970 407 970 407 972 377 c 0,121,122
 981 194 981 194 1000 137 c 0,123,124
 1004 136 1004 136 1007 136 c 128,-1,125
 1010 136 1010 136 1013 137 c 128,-1,126
 1016 138 1016 138 1022 141 c 128,-1,127
 1028 144 1028 144 1035 148 c 128,-1,128
 1042 152 1042 152 1050 157 c 0,129,130
 1066 167 1066 167 1083 178 c 1,131,132
 1130 313 1130 313 1131 416 c 2,133,-1
 1131 420 l 2,134,135
 1131 520 1131 520 1104 600 c 1,111,112
735 617 m 1,136,137
 691 613 691 613 690 608 c 1,138,-1
 740 168 l 1,139,140
 747 146 747 146 763 128 c 1,141,-1
 735 617 l 1,136,137
EndSplineSet
Validated: 1
EndChar

StartChar: percent
Encoding: 37 37 5
Width: 1613
VWidth: 1894
Flags: W
HStem: -28 192<1157.73 1296.15> 448 186<1223.81 1315.09> 700 176<290.381 446.241> 1230 174<334.676 486.539>
VStem: 67 213<894.178 1159.31> 498 251<943.992 1224.83> 898 252<174.148 374.465> 1338 205<205.936 445.709>
LayerCount: 2
Fore
SplineSet
1152 221 m 0,0,1
 1172 164 1172 164 1224 164 c 0,2,3
 1246 164 1246 164 1267 180 c 0,4,5
 1338 230 1338 230 1338 358 c 0,6,7
 1338 425 1338 425 1300 446 c 0,8,9
 1296 448 1296 448 1291 448 c 0,10,11
 1276 448 1276 448 1229 408 c 128,-1,12
 1182 368 1182 368 1178.5 349.5 c 128,-1,13
 1175 331 1175 331 1173 323.5 c 128,-1,14
 1171 316 1171 316 1169 309 c 0,15,16
 1165 294 1165 294 1162 283 c 128,-1,17
 1159 272 1159 272 1156 265 c 0,18,19
 1152 250 1152 250 1150 238 c 1,20,-1
 1150 226 l 2,21,22
 1151 224 1151 224 1152 221 c 0,0,1
956.5 495.5 m 128,-1,24
 1015 561 1015 561 1073 570 c 128,-1,25
 1131 579 1131 579 1174.5 606.5 c 128,-1,26
 1218 634 1218 634 1269 634 c 0,27,28
 1416 634 1416 634 1500 519 c 0,29,30
 1543 461 1543 461 1543 363 c 128,-1,31
 1543 265 1543 265 1536 231 c 0,32,33
 1517 142 1517 142 1426.5 68 c 128,-1,34
 1336 -6 1336 -6 1304 -14 c 0,35,36
 1252 -28 1252 -28 1207 -28 c 0,37,38
 973 -28 973 -28 919 202 c 0,39,40
 898 288 898 288 898 358 c 2,41,-1
 898 359 l 2,42,23
 898 430 898 430 956.5 495.5 c 128,-1,24
498 1102 m 0,43,44
 498 1208 498 1208 452 1227 c 0,45,46
 445 1230 445 1230 409.5 1230 c 128,-1,47
 374 1230 374 1230 362 1226 c 0,48,49
 325 1212 325 1212 287 999 c 0,50,51
 280 961 280 961 280 952 c 0,52,53
 280 915 280 915 321 895.5 c 128,-1,54
 362 876 362 876 379.5 876 c 128,-1,55
 397 876 397 876 433 907 c 128,-1,56
 469 938 469 938 477 961 c 128,-1,57
 485 984 485 984 487 990.5 c 128,-1,58
 489 997 489 997 490.5 1004.5 c 128,-1,59
 492 1012 492 1012 493 1020.5 c 128,-1,60
 494 1029 494 1029 495 1038.5 c 128,-1,61
 496 1048 496 1048 496 1058 c 0,62,63
 498 1079 498 1079 498 1102 c 0,43,44
138 781 m 0,64,65
 67 828 67 828 67 916 c 0,66,67
 67 1292 67 1292 224 1372 c 0,68,69
 286 1404 286 1404 425.5 1404 c 128,-1,70
 565 1404 565 1404 626 1346 c 0,71,72
 685 1290 685 1290 717 1207 c 128,-1,73
 749 1124 749 1124 749 1076.5 c 128,-1,74
 749 1029 749 1029 691 917 c 0,75,76
 581 700 581 700 394 700 c 0,77,78
 260 700 260 700 138 781 c 0,64,65
222 -124 m 0,79,80
 106 -124 106 -124 106 -39 c 2,81,-1
 106 -29 l 2,82,83
 106 36 106 36 260 244.5 c 128,-1,84
 414 453 414 453 501.5 543.5 c 128,-1,85
 589 634 589 634 624 671 c 0,86,87
 694 745 694 745 737 798.5 c 128,-1,88
 780 852 780 852 827.5 907 c 128,-1,89
 875 962 875 962 991.5 1125.5 c 128,-1,90
 1108 1289 1108 1289 1148 1331.5 c 128,-1,91
 1188 1374 1188 1374 1214 1387 c 0,92,93
 1253 1407 1253 1407 1268.5 1407 c 128,-1,94
 1284 1407 1284 1407 1310 1388.5 c 128,-1,95
 1336 1370 1336 1370 1454 1308 c 0,96,97
 1486 1291 1486 1291 1486 1270 c 2,98,-1
 1486 1269 l 2,99,100
 1486 1258 1486 1258 1477 1248 c 0,101,102
 619 175 619 175 487 34 c 128,-1,103
 355 -107 355 -107 337 -111 c 0,104,105
 268 -124 268 -124 222 -124 c 0,79,80
EndSplineSet
Validated: 1
EndChar

StartChar: ampersand
Encoding: 38 38 6
Width: 1451
VWidth: 1894
Flags: W
HStem: 78 170<1011.79 1406.28> 455 118<1175.75 1360.47> 1198 198<584.585 673.435>
VStem: 24 335<144.375 441.832> 297 286<891.128 1164.02>
LayerCount: 2
Fore
SplineSet
1328 256 m 1,0,1
 1413 256 1413 256 1413 157 c 0,2,3
 1413 94 1413 94 1360 86 c 128,-1,4
 1307 78 1307 78 1160 78 c 128,-1,5
 1013 78 1013 78 878 130 c 1,6,-1
 840 97 l 1,7,8
 730 12 730 12 615 -37 c 128,-1,9
 500 -86 500 -86 456 -86 c 128,-1,10
 412 -86 412 -86 386 -83 c 0,11,12
 223 -64 223 -64 119 -1 c 0,13,14
 66 31 66 31 45 119 c 128,-1,15
 24 207 24 207 24 258 c 0,16,17
 24 474 24 474 246 663 c 1,18,-1
 329 732 l 1,19,-1
 314 780 l 1,20,-1
 297 977 l 1,21,-1
 297 978 l 2,22,23
 297 1129 297 1129 407 1273 c 0,24,25
 498 1396 498 1396 614 1396 c 0,26,27
 667 1396 667 1396 777.5 1341 c 128,-1,28
 888 1286 888 1286 912 1192 c 1,29,-1
 917 1036 l 1,30,31
 917 959 917 959 871 876 c 0,32,33
 794 738 794 738 702 693 c 0,34,35
 687 686 687 686 677 681 c 1,36,37
 740 532 740 532 844 401 c 1,38,39
 878 427 878 427 953.5 488 c 128,-1,40
 1029 549 1029 549 1060.5 558.5 c 128,-1,41
 1092 568 1092 568 1107 572 c 0,42,43
 1137 578 1137 578 1172 578 c 128,-1,44
 1207 578 1207 578 1284.5 573 c 128,-1,45
 1362 568 1362 568 1362 515.5 c 128,-1,46
 1362 463 1362 463 1338 455 c 0,47,48
 1301 442 1301 442 1251 433 c 0,49,50
 1169 418 1169 418 1114 371 c 0,51,52
 1021 290 1021 290 1012 277 c 1,53,-1
 1011 273 l 1,54,55
 1036 266 1036 266 1108 260 c 128,-1,56
 1180 254 1180 254 1189.5 252 c 128,-1,57
 1199 250 1199 250 1203 249 c 0,58,59
 1212 248 1212 248 1222 248 c 2,60,-1
 1328 256 l 1,0,1
692 1114 m 1,61,62
 658 1198 658 1198 626 1198 c 0,63,64
 608 1198 608 1198 583 1162 c 1,65,66
 585 1019 585 1019 613 887 c 1,67,68
 682 1002 682 1002 692 1114 c 1,61,62
359 303 m 2,69,70
 359 198 359 198 436 91 c 1,71,72
 495 94 495 94 523.5 116 c 128,-1,73
 552 138 552 138 586.5 159 c 128,-1,74
 621 180 621 180 628.5 184.5 c 128,-1,75
 636 189 636 189 642.5 193 c 128,-1,76
 649 197 649 197 654.5 201 c 128,-1,77
 660 205 660 205 665 208 c 0,78,79
 675 215 675 215 682 219 c 1,80,81
 660 245 660 245 628 280 c 128,-1,82
 596 315 596 315 584 329.5 c 128,-1,83
 572 344 572 344 560.5 358.5 c 128,-1,84
 549 373 549 373 539 388 c 0,85,86
 518 418 518 418 492 466.5 c 128,-1,87
 466 515 466 515 446 540 c 1,88,89
 436 533 436 533 422 521 c 1,90,91
 360 412 360 412 359 304 c 2,92,-1
 359 303 l 2,69,70
EndSplineSet
Validated: 1
EndChar

StartChar: parenleft
Encoding: 40 40 7
Width: 539
VWidth: 1894
Flags: W
VStem: 29 370<217.328 816.188>
LayerCount: 2
Fore
SplineSet
542 1554 m 2,0,1
 658 1554 658 1554 658 1465 c 0,2,3
 658 1424 658 1424 631 1390.5 c 128,-1,4
 604 1357 604 1357 598 1349 c 128,-1,5
 592 1341 592 1341 585.5 1333.5 c 128,-1,6
 579 1326 579 1326 573 1318 c 128,-1,7
 567 1310 567 1310 561.5 1302.5 c 128,-1,8
 556 1295 556 1295 550 1288 c 0,9,10
 539 1273 539 1273 529 1260 c 1,11,12
 399 916 399 916 399 609 c 128,-1,13
 399 302 399 302 500 25 c 1,14,15
 583 -55 583 -55 611 -96 c 0,16,17
 657 -164 657 -164 686.5 -188 c 128,-1,18
 716 -212 716 -212 716 -239.5 c 128,-1,19
 716 -267 716 -267 712 -278 c 0,20,21
 694 -322 694 -322 586.5 -322 c 128,-1,22
 479 -322 479 -322 470 -282 c 1,23,24
 461 -271 461 -271 420 -238 c 128,-1,25
 379 -205 379 -205 319.5 -143 c 128,-1,26
 260 -81 260 -81 214.5 -38 c 128,-1,27
 169 5 169 5 121 94 c 0,28,29
 29 263 29 263 29 532 c 0,30,31
 29 646 29 646 58 759 c 0,32,33
 141 1079 141 1079 270 1276.5 c 128,-1,34
 399 1474 399 1474 422 1496.5 c 128,-1,35
 445 1519 445 1519 452.5 1524.5 c 128,-1,36
 460 1530 460 1530 468.5 1535 c 128,-1,37
 477 1540 477 1540 485.5 1543.5 c 128,-1,38
 494 1547 494 1547 502 1549 c 0,39,40
 520 1554 520 1554 539 1554 c 2,41,-1
 542 1554 l 2,0,1
EndSplineSet
Validated: 1
EndChar

StartChar: parenright
Encoding: 41 41 8
Width: 505
VWidth: 1894
Flags: W
VStem: 103 373<460.135 932>
LayerCount: 2
Fore
SplineSet
-106 -326 m 1,0,1
 -217 -319 -217 -319 -220 -249 c 1,2,-1
 -220 -242 l 1,3,4
 -129 -118 -129 -118 -5 71 c 1,5,6
 103 380 103 380 103 672.5 c 128,-1,7
 103 965 103 965 0 1245 c 1,8,9
 -66 1356 -66 1356 -113 1397 c 128,-1,10
 -160 1438 -160 1438 -160 1476 c 2,11,-1
 -160 1481 l 1,12,13
 -154 1538 -154 1538 -111 1544 c 2,14,-1
 -39 1555 l 1,15,-1
 33 1551 l 1,16,-1
 82 1508 l 1,17,18
 85 1504 85 1504 128.5 1462.5 c 128,-1,19
 172 1421 172 1421 213 1372 c 0,20,21
 282 1291 282 1291 310 1262.5 c 128,-1,22
 338 1234 338 1234 353 1213 c 0,23,24
 458 1063 458 1063 467 932 c 2,25,-1
 476 812 l 1,26,27
 469 611 469 611 458 555 c 0,28,29
 432 423 432 423 343 229.5 c 128,-1,30
 254 36 254 36 148.5 -108 c 128,-1,31
 43 -252 43 -252 5 -287 c 0,32,33
 -31 -321 -31 -321 -104 -326 c 1,34,-1
 -106 -326 l 1,0,1
EndSplineSet
Validated: 1
EndChar

StartChar: asterisk
Encoding: 42 42 9
Width: 1154
VWidth: 1894
Flags: W
VStem: 490 182<913.583 1049.4>
LayerCount: 2
Fore
SplineSet
621 176 m 1,0,1
 551 186 551 186 526 315 c 1,2,3
 454 224 454 224 390 224 c 0,4,5
 372 224 372 224 355 232 c 0,6,7
 280 267 280 267 280 344 c 1,8,-1
 280 346 l 2,9,10
 280 418 280 418 312 449 c 1,11,-1
 243 449 l 1,12,13
 208 455 208 455 174.5 490.5 c 128,-1,14
 141 526 141 526 141 579 c 128,-1,15
 141 632 141 632 155.5 665.5 c 128,-1,16
 170 699 170 699 217 724 c 128,-1,17
 264 749 264 749 291 753 c 1,18,19
 248 817 248 817 248 863 c 0,20,21
 248 967 248 967 363 967 c 0,22,23
 424 967 424 967 451.5 927.5 c 128,-1,24
 479 888 479 888 491 872 c 1,25,26
 491 879 491 879 490 887 c 0,27,28
 490 1069 490 1069 589 1069 c 0,29,30
 655 1069 655 1069 672 968 c 0,31,32
 673 963 673 963 681 912 c 1,33,34
 778 1042 778 1042 850 1042 c 0,35,36
 869 1042 869 1042 885 1029 c 128,-1,37
 901 1016 901 1016 923 998.5 c 128,-1,38
 945 981 945 981 945 925 c 2,39,-1
 945 920 l 2,40,41
 945 871 945 871 918 833.5 c 128,-1,42
 891 796 891 796 879 777 c 1,43,44
 896 774 896 774 932.5 770 c 128,-1,45
 969 766 969 766 990.5 748 c 128,-1,46
 1012 730 1012 730 1019.5 716 c 128,-1,47
 1027 702 1027 702 1030.5 684.5 c 128,-1,48
 1034 667 1034 667 1034 645 c 128,-1,49
 1034 623 1034 623 1030 606 c 0,50,51
 1015 533 1015 533 908 521 c 0,52,53
 875 517 875 517 862 514 c 1,54,55
 867 504 867 504 897 488 c 0,56,57
 950 459 950 459 950 392 c 0,58,59
 950 275 950 275 860 275 c 0,60,-1
 797 287 l 0,61,62
 777 291 777 291 749 323 c 0,63,64
 739 335 739 335 711 363 c 1,65,66
 711 363 711 363 710.5 353.5 c 128,-1,67
 710 344 710 344 710 330 c 0,68,69
 710 220 710 220 682 201.5 c 0,70,71
 643 176 643 176 624 176 c 2,72,-1
 621 176 l 1,0,1
EndSplineSet
EndChar

StartChar: plus
Encoding: 43 43 10
Width: 1222
VWidth: 1894
Flags: W
HStem: 522 241<759.083 1063.12>
VStem: 462 232<748.893 1075.02> 486 237<156.687 489.933>
LayerCount: 2
Fore
SplineSet
832 522 m 1,0,1
 777 522 777 522 718 501 c 1,2,-1
 723 316 l 1,3,4
 721 128 721 128 611 128 c 2,5,-1
 610 128 l 2,6,7
 537 128 537 128 511.5 186 c 128,-1,8
 486 244 486 244 486 311 c 128,-1,9
 486 378 486 378 483 405 c 0,10,11
 478 457 478 457 462 491 c 1,12,-1
 422 494 l 1,13,-1
 212 459 l 1,14,-1
 142 498 l 1,15,-1
 118 560 l 1,16,-1
 118 570 l 2,17,18
 118 635 118 635 190 683 c 0,19,20
 269 735 269 735 456 743 c 1,21,-1
 462 855 l 1,22,-1
 462 869 l 2,23,24
 462 1109 462 1109 576 1109 c 0,25,26
 678 1109 678 1109 689 1022 c 0,27,28
 694 978 694 978 694 877 c 128,-1,29
 694 776 694 776 701 748 c 1,30,31
 707 746 707 746 720 745 c 1,32,-1
 912 763 l 1,33,-1
 914 763 l 2,34,35
 1095 763 1095 763 1096 634 c 1,36,-1
 1096 631 l 2,37,38
 1096 552 1096 552 1068 537 c 0,39,40
 1022 512 1022 512 973 512 c 0,41,-1
 832 522 l 1,0,1
EndSplineSet
Validated: 1
EndChar

StartChar: comma
Encoding: 44 44 11
Width: 691
VWidth: 1894
Flags: W
HStem: -222 440<240.065 302>
VStem: 162 365<-19.4863 164.437>
LayerCount: 2
Fore
SplineSet
261 -222 m 2,0,1
 220 -222 220 -222 191 -204 c 128,-1,2
 162 -186 162 -186 162 -165 c 0,3,4
 162 -131 162 -131 175.5 -114.5 c 128,-1,5
 189 -98 189 -98 209.5 -78.5 c 128,-1,6
 230 -59 230 -59 239 -49 c 1,7,8
 229 -40 229 -40 209 -22 c 0,9,10
 162 18 162 18 162 72 c 0,11,12
 162 169 162 169 280 207 c 0,13,14
 310 218 310 218 356.5 218 c 128,-1,15
 403 218 403 218 465 177.5 c 128,-1,16
 527 137 527 137 527 84.5 c 128,-1,17
 527 32 527 32 521 8.5 c 128,-1,18
 515 -15 515 -15 504 -33 c 0,19,20
 413 -186 413 -186 302 -215 c 1,21,-1
 302 -222 l 1,22,-1
 261 -222 l 2,0,1
EndSplineSet
Validated: 1
EndChar

StartChar: hyphen
Encoding: 45 45 12
Width: 1222
VWidth: 1894
Flags: W
HStem: 512 251<832 1063.12>
LayerCount: 2
Fore
SplineSet
832 522 m 1,0,-1
 422 494 l 1,1,-1
 212 459 l 1,2,-1
 142 498 l 1,3,-1
 118 560 l 1,4,-1
 118 570 l 2,5,6
 118 635 118 635 190 683 c 0,7,8
 269 735 269 735 456 743 c 1,9,-1
 912 763 l 1,10,-1
 914 763 l 2,11,12
 1095 763 1095 763 1096 634 c 1,13,-1
 1096 631 l 2,14,15
 1096 552 1096 552 1068 537 c 0,16,17
 1022 512 1022 512 973 512 c 0,18,-1
 832 522 l 1,0,-1
EndSplineSet
Validated: 1
EndChar

StartChar: period
Encoding: 46 46 13
Width: 732
VWidth: 1894
Flags: W
HStem: -48 328<249.165 487.141>
VStem: 162 399<20.9238 193.088>
LayerCount: 2
Fore
SplineSet
480 269 m 0,0,1
 561 240 561 240 561 155 c 0,2,3
 561 13 561 13 435 -31 c 0,4,5
 388 -48 388 -48 340 -48 c 128,-1,6
 292 -48 292 -48 244 -14 c 0,7,8
 162 44 162 44 162 83.5 c 128,-1,9
 162 123 162 123 185 162 c 0,10,11
 243 260 243 260 335 270 c 0,12,13
 371 274 371 274 387 276 c 0,14,15
 415 280 415 280 432 280 c 128,-1,16
 449 280 449 280 480 269 c 0,0,1
EndSplineSet
Validated: 1
EndChar

StartChar: slash
Encoding: 47 47 14
Width: 887
VWidth: 1894
Flags: W
LayerCount: 2
Fore
SplineSet
907 1516 m 2,0,1
 950 1516 950 1516 1068 1408 c 1,2,3
 1087 1389 1087 1389 1074 1363 c 0,4,5
 669 568 669 568 126 -186 c 0,6,7
 105 -215 105 -215 64 -200 c 1,8,9
 -93 -172 -93 -172 -106 -159 c 128,-1,10
 -119 -146 -119 -146 -123 -138 c 0,11,12
 -131 -122 -131 -122 -131 -98 c 2,13,-1
 -131 -90 l 2,14,15
 -131 -61 -131 -61 -97.5 -7 c 128,-1,16
 -64 47 -64 47 85 297.5 c 128,-1,17
 234 548 234 548 452.5 887 c 128,-1,18
 671 1226 671 1226 710 1312 c 0,19,20
 796 1506 796 1506 899 1516 c 0,21,-1
 907 1516 l 2,0,1
EndSplineSet
Validated: 1
EndChar

StartChar: zero
Encoding: 48 48 15
Width: 1359
VWidth: 1894
Flags: W
HStem: -60 177<517.008 902.645>
VStem: 57 319<324.703 676.609> 1013 288<363.82 924.048>
LayerCount: 2
Fore
SplineSet
424 315 m 1,0,1
 424 319 424 319 424 339 c 128,-1,2
 424 359 424 359 518 573 c 128,-1,3
 612 787 612 787 643.5 841.5 c 128,-1,4
 675 896 675 896 702 925 c 0,5,6
 758 986 758 986 815.5 986 c 128,-1,7
 873 986 873 986 900 961.5 c 128,-1,8
 927 937 927 937 927 906.5 c 128,-1,9
 927 876 927 876 913.5 844 c 128,-1,10
 900 812 900 812 801.5 634 c 128,-1,11
 703 456 703 456 675 404 c 0,12,13
 627 317 627 317 595.5 286 c 128,-1,14
 564 255 564 255 527 255 c 0,15,16
 463 255 463 255 443 271 c 1,17,18
 475 203 475 203 522 135 c 1,19,20
 662 117 662 117 748 117 c 0,21,22
 825 117 825 117 858 131 c 0,23,24
 886 143 886 143 903 152 c 1,25,26
 1012 462 1012 462 1013 602 c 1,27,-1
 1020 733 l 1,28,29
 1020 1104 1020 1104 816 1252 c 1,30,31
 786 1269 786 1269 772 1269 c 0,32,33
 746 1269 746 1269 690 1209 c 0,34,35
 376 870 376 870 376 559 c 0,36,37
 376 436 376 436 424 315 c 1,0,1
566 1386 m 1,38,-1
 810 1416 l 1,39,40
 876 1416 876 1416 926.5 1390 c 128,-1,41
 977 1364 977 1364 1040 1292.5 c 128,-1,42
 1103 1221 1103 1221 1116.5 1189.5 c 128,-1,43
 1130 1158 1130 1158 1150 1134.5 c 128,-1,44
 1170 1111 1170 1111 1183.5 1092 c 128,-1,45
 1197 1073 1197 1073 1208.5 1051.5 c 128,-1,46
 1220 1030 1220 1030 1229.5 1006.5 c 128,-1,47
 1239 983 1239 983 1247 958 c 0,48,49
 1299 791 1299 791 1301 627 c 0,50,51
 1301 621 1301 621 1301 614 c 0,52,53
 1301 187 1301 187 1108 39 c 0,54,55
 1041 -12 1041 -12 907 -36 c 128,-1,56
 773 -60 773 -60 686 -60 c 0,57,58
 387 -60 387 -60 254 32 c 0,59,60
 124 124 124 124 90.5 229 c 128,-1,61
 57 334 57 334 57 375 c 2,62,-1
 57 452 l 2,63,64
 57 493 57 493 99.5 675.5 c 128,-1,65
 142 858 142 858 148 905 c 128,-1,66
 154 952 154 952 160 974 c 0,67,68
 173 1019 173 1019 206 1066 c 128,-1,69
 239 1113 239 1113 293 1215 c 0,70,71
 382 1386 382 1386 566 1386 c 1,38,-1
EndSplineSet
Validated: 1
EndChar

StartChar: one
Encoding: 49 49 16
Width: 871
VWidth: 1894
Flags: W
HStem: -2 181<244.023 411.551> 1367 20G<707.5 737.5>
VStem: 398 372<466.481 780> 416 349<194 778.964>
LayerCount: 2
Fore
SplineSet
55 580 m 2,0,-1
 55 588 l 1,1,-1
 61 591 l 1,2,3
 68 626 68 626 104 711.5 c 128,-1,4
 140 797 140 797 443 1295 c 0,5,6
 507 1396 507 1396 544.5 1407 c 128,-1,7
 582 1418 582 1418 629.5 1418 c 128,-1,8
 677 1418 677 1418 697 1386 c 1,9,10
 704 1387 704 1387 711 1387 c 0,11,12
 764 1387 764 1387 764 1351 c 0,13,14
 770 1038 770 1038 770 749 c 128,-1,15
 770 460 770 460 765 194 c 1,16,-1
 828 188 l 1,17,18
 820 75 820 75 811 52 c 0,19,20
 794 6 794 6 735 6 c 1,21,-1
 623 32 l 1,22,23
 612 32 612 32 553.5 15 c 128,-1,24
 495 -2 495 -2 403 -2 c 2,25,-1
 384 -2 l 2,26,27
 232 -2 232 -2 232 85 c 2,28,-1
 232 86 l 2,29,30
 232 139 232 139 241 145 c 128,-1,31
 250 151 250 151 256 153 c 128,-1,32
 262 155 262 155 265.5 156 c 128,-1,33
 269 157 269 157 276 158 c 0,34,35
 288 160 288 160 333.5 167 c 128,-1,36
 379 174 379 174 406 179 c 1,37,38
 416 212 416 212 416 304 c 2,39,-1
 416 314 l 2,40,41
 416 425 416 425 407 443 c 1,42,-1
 398 570 l 1,43,44
 392 748 392 748 391 780 c 1,45,46
 378 752 378 752 354 706 c 128,-1,47
 330 660 330 660 312 619 c 0,48,49
 256 484 256 484 155.5 484 c 128,-1,50
 55 484 55 484 55 580 c 2,0,-1
EndSplineSet
Validated: 1
EndChar

StartChar: two
Encoding: 50 50 17
Width: 1354
VWidth: 1894
Flags: W
HStem: -68 200<812.938 992> 58 268<1114.87 1258.6> 1185 205<452.458 666>
VStem: 89 277<887.842 1024.67> 713 424<765.508 1169.76>
LayerCount: 2
Fore
SplineSet
397 94 m 1,0,1
 375 81 375 81 290 6.5 c 128,-1,2
 205 -68 205 -68 144 -68 c 128,-1,3
 83 -68 83 -68 53 11 c 1,4,-1
 53 40 l 2,5,6
 53 62 53 62 78.5 138 c 128,-1,7
 104 214 104 214 130 243.5 c 128,-1,8
 156 273 156 273 175.5 318.5 c 128,-1,9
 195 364 195 364 287 432 c 128,-1,10
 379 500 379 500 435 528 c 0,11,12
 528 574 528 574 574 603 c 1,13,14
 713 791 713 791 713 967 c 0,15,16
 713 1072 713 1072 666 1176 c 1,17,-1
 564 1185 l 1,18,19
 466 1185 466 1185 452 1166 c 0,20,21
 407 1100 407 1100 398 1014 c 0,22,23
 386 903 386 903 366 833 c 1,24,-1
 301 787 l 1,25,26
 118 860 118 860 103.5 887 c 128,-1,27
 89 914 89 914 89 935.5 c 128,-1,28
 89 957 89 957 107.5 980.5 c 128,-1,29
 126 1004 126 1004 149 1061 c 128,-1,30
 172 1118 172 1118 227.5 1193 c 128,-1,31
 283 1268 283 1268 316 1292 c 0,32,33
 454 1390 454 1390 600 1390 c 0,34,35
 786 1390 786 1390 938 1338 c 1,36,37
 1079 1284 1079 1284 1117 1101 c 1,38,39
 1137 1053 1137 1053 1137 1004.5 c 128,-1,40
 1137 956 1137 956 1129 898 c 0,41,42
 1116 801 1116 801 1061 676 c 0,43,44
 945 398 945 398 590 264 c 1,45,46
 667 253 667 253 782.5 192.5 c 128,-1,47
 898 132 898 132 912.5 132 c 128,-1,48
 927 132 927 132 936 141 c 0,49,50
 959 165 959 165 990 223 c 0,51,52
 1046 326 1046 326 1153 326 c 0,53,54
 1298 326 1298 326 1298 138 c 0,55,56
 1298 58 1298 58 1202 58 c 0,57,58
 1171 58 1171 58 1157.5 49 c 128,-1,59
 1144 40 1144 40 1060 -36 c 0,60,61
 1021 -68 1021 -68 963 -68 c 0,62,63
 818 -68 818 -68 687 17.5 c 128,-1,64
 556 103 556 103 453 104 c 1,65,-1
 397 94 l 1,0,1
EndSplineSet
Validated: 1
EndChar

StartChar: three
Encoding: 51 51 18
Width: 1256
VWidth: 1894
Flags: W
HStem: -62 156<392.455 712.034> 51 294<94.0378 274.171> 864 21G<267.5 383.5>
VStem: 48 251<165.559 301.134> 695 342<942.685 1207.99> 821 376<231.672 408 409 560.526>
LayerCount: 2
Fore
SplineSet
421 879 m 1,0,1
 399 864 399 864 368 864 c 2,2,-1
 353 864 l 1,3,4
 182 926 182 926 139 956 c 128,-1,5
 96 986 96 986 96 1027.5 c 128,-1,6
 96 1069 96 1069 110.5 1086.5 c 128,-1,7
 125 1104 125 1104 157.5 1113.5 c 128,-1,8
 190 1123 190 1123 233 1192 c 0,9,10
 316 1327 316 1327 515 1383 c 0,11,12
 624 1414 624 1414 687.5 1414 c 128,-1,13
 751 1414 751 1414 800 1405 c 0,14,15
 1037 1364 1037 1364 1037 1133 c 0,16,17
 1037 1010 1037 1010 981 922 c 0,18,19
 930 842 930 842 918 823 c 1,20,21
 937 815 937 815 982 797 c 0,22,23
 1120 744 1120 744 1189 427 c 0,24,25
 1197 392 1197 392 1197 368 c 128,-1,26
 1197 344 1197 344 1191.5 313 c 128,-1,27
 1186 282 1186 282 1127 189 c 0,28,29
 978 -45 978 -45 741 -59 c 0,30,31
 690 -62 690 -62 614 -62 c 2,32,-1
 609 -62 l 1,33,-1
 588 -60 l 1,34,35
 411 -60 411 -60 348 -28 c 128,-1,36
 285 4 285 4 167.5 51 c 128,-1,37
 50 98 50 98 48 158 c 1,38,39
 72 275 72 275 93 302 c 0,40,41
 126 345 126 345 186 345 c 0,42,43
 299 345 299 345 299 240 c 0,44,45
 299 169 299 169 423 126 c 0,46,47
 460 113 460 113 639 94 c 1,48,-1
 662 94 l 1,49,50
 682 99 682 99 713 115 c 1,51,52
 820 276 820 276 822 408 c 1,53,-1
 821 409 l 1,54,-1
 821 414 l 2,55,56
 821 546 821 546 773 649 c 1,57,-1
 745 654 l 1,58,59
 726 648 726 648 691 634 c 0,60,61
 633 610 633 610 609 610 c 2,62,-1
 601 610 l 1,63,64
 575 614 575 614 542.5 636 c 128,-1,65
 510 658 510 658 510 681 c 128,-1,66
 510 704 510 704 512.5 713 c 128,-1,67
 515 722 515 722 520 731 c 0,68,69
 537 764 537 764 584 804 c 1,70,71
 695 940 695 940 695 1059 c 0,72,73
 695 1140 695 1140 643 1222 c 1,74,75
 547 1208 547 1208 528.5 1191.5 c 128,-1,76
 510 1175 510 1175 503 1166.5 c 128,-1,77
 496 1158 496 1158 488 1148 c 0,78,79
 465 1114 465 1114 422 1010 c 1,80,-1
 451 923 l 1,81,-1
 430 879 l 1,82,-1
 421 879 l 1,0,1
EndSplineSet
Validated: 1
EndChar

StartChar: four
Encoding: 52 52 19
Width: 1042
VWidth: 1894
Flags: W
HStem: 2 710<683.016 883.9> 1375 20G<420.5 447.5>
VStem: 300 373<1120.44 1315.5>
LayerCount: 2
Fore
SplineSet
929 75 m 1,0,1
 916 2 916 2 770 2 c 128,-1,2
 624 2 624 2 560 7.5 c 128,-1,3
 496 13 496 13 465 40 c 1,4,5
 448 70 448 70 447.5 83.5 c 128,-1,6
 447 97 447 97 452 121 c 0,7,8
 461 163 461 163 499 175.5 c 128,-1,9
 537 188 537 188 547 208 c 1,10,-1
 572 363 l 1,11,12
 347 344 347 344 292 333 c 2,13,-1
 151 302 l 1,14,-1
 55 383 l 1,15,16
 126 561 126 561 160.5 684.5 c 128,-1,17
 195 808 195 808 247.5 941 c 128,-1,18
 300 1074 300 1074 300 1116 c 0,19,20
 300 1279 300 1279 377 1362 c 0,21,22
 406 1395 406 1395 435 1395 c 0,23,24
 460 1395 460 1395 673 1323 c 1,25,26
 587 916 587 916 483 524 c 1,27,28
 565 527 565 527 592.5 537.5 c 128,-1,29
 620 548 620 548 650 613 c 128,-1,30
 680 678 680 678 722 700 c 0,31,32
 738 712 738 712 754 712 c 2,33,-1
 756 712 l 1,34,35
 941 664 941 664 948.5 660 c 128,-1,36
 956 656 956 656 958 640 c 1,37,-1
 943 515 l 1,38,39
 988 471 988 471 988 439 c 2,40,-1
 988 438 l 2,41,42
 988 399 988 399 961 388 c 128,-1,43
 934 377 934 377 923 372 c 1,44,45
 906 263 906 263 886 156 c 1,46,47
 910 134 910 134 929 82 c 1,48,-1
 929 75 l 1,0,1
EndSplineSet
Validated: 1
EndChar

StartChar: five
Encoding: 53 53 20
Width: 1233
VWidth: 1894
Flags: W
HStem: -12 247<135.102 338.664> 1062 294<954.554 1124.94> 1160 177<212.812 285.529> 1187 169<687.915 925> 1352 20G<988 1111.5>
VStem: 826 349<423.171 711.805>
LayerCount: 2
Fore
SplineSet
342 140 m 1,0,1
 400 95 400 95 537 85 c 1,2,3
 640 113 640 113 659 118 c 1,4,5
 800 296 800 296 806 362 c 2,6,-1
 826 578 l 1,7,-1
 826 584 l 2,8,9
 826 630 826 630 774 742 c 1,10,11
 730 760 730 760 630 768 c 1,12,13
 595 764 595 764 517 715 c 0,14,15
 385 632 385 632 338 630 c 1,16,-1
 295 630 l 1,17,-1
 295 642 l 2,18,19
 295 644 295 644 277 662 c 128,-1,20
 259 680 259 680 257 687 c 1,21,-1
 241 750 l 1,22,-1
 286 1148 l 1,23,24
 271 1153 271 1153 245 1160 c 0,25,26
 193 1175 193 1175 193 1217.5 c 128,-1,27
 193 1260 193 1260 206 1282 c 0,28,29
 231 1327 231 1327 292 1337 c 0,30,31
 403 1354 403 1354 680 1356 c 0,32,33
 925 1358 925 1358 1051 1372 c 1,34,35
 1172 1364 1172 1364 1187 1351 c 128,-1,36
 1202 1338 1202 1338 1202 1307.5 c 128,-1,37
 1202 1277 1202 1277 1161 1169.5 c 128,-1,38
 1120 1062 1120 1062 1028 1062 c 0,39,40
 986 1062 986 1062 955.5 1104.5 c 128,-1,41
 925 1147 925 1147 925 1182 c 2,42,-1
 925 1186 l 1,43,-1
 697 1187 l 1,44,45
 671 1066 671 1066 640 949 c 1,46,-1
 661 951 l 1,47,48
 906 908 906 908 962.5 879 c 128,-1,49
 1019 850 1019 850 1061 802 c 0,50,51
 1131 721 1131 721 1153 675 c 128,-1,52
 1175 629 1175 629 1175 492 c 2,53,-1
 1175 491 l 1,54,-1
 1158 341 l 1,55,56
 1096 65 1096 65 890 -24 c 0,57,58
 842 -45 842 -45 792 -48.5 c 128,-1,59
 742 -52 742 -52 632 -52 c 0,60,61
 449 -52 449 -52 395 -49 c 128,-1,62
 341 -46 341 -46 318 -33 c 0,63,64
 281 -12 281 -12 260 -12 c 128,-1,65
 239 -12 239 -12 150 -48 c 1,66,-1
 140 -48 l 2,67,68
 114 -48 114 -48 81 -20.5 c 128,-1,69
 48 7 48 7 48 71.5 c 128,-1,70
 48 136 48 136 111.5 185.5 c 128,-1,71
 175 235 175 235 232 235 c 0,72,73
 345 235 345 235 345 159 c 2,74,-1
 342 140 l 1,0,1
EndSplineSet
Validated: 1
EndChar

StartChar: six
Encoding: 54 54 21
Width: 1309
VWidth: 1894
Flags: W
HStem: -70 168<484.034 746.112> 816 170<641.384 796.123> 1162 278<876.164 985.662>
VStem: 50 345<228.214 603.7> 899 356<267.88 681.486>
LayerCount: 2
Fore
SplineSet
641 985 m 1,0,1
 667 986 667 986 689.5 986 c 128,-1,2
 712 986 712 986 727 986 c 0,3,4
 898 983 898 983 972.5 953.5 c 128,-1,5
 1047 924 1047 924 1143 787 c 128,-1,6
 1239 650 1239 650 1247 596 c 128,-1,7
 1255 542 1255 542 1255 505.5 c 128,-1,8
 1255 469 1255 469 1250.5 440 c 128,-1,9
 1246 411 1246 411 1238 373 c 128,-1,10
 1230 335 1230 335 1217 285.5 c 128,-1,11
 1204 236 1204 236 1190 196 c 0,12,13
 1161 115 1161 115 1130 73 c 0,14,15
 1071 -4 1071 -4 887 -37 c 128,-1,16
 703 -70 703 -70 615 -70 c 128,-1,17
 527 -70 527 -70 415 -50 c 0,18,19
 99 13 99 13 60 195 c 0,20,21
 50 243 50 243 50 489.5 c 128,-1,22
 50 736 50 736 125 850 c 0,23,24
 147 888 147 888 211.5 1013.5 c 128,-1,25
 276 1139 276 1139 332 1176 c 0,26,27
 386 1211 386 1211 439 1258 c 0,28,29
 528 1337 528 1337 649 1388.5 c 128,-1,30
 770 1440 770 1440 866 1440 c 128,-1,31
 962 1440 962 1440 1005.5 1370 c 128,-1,32
 1049 1300 1049 1300 1049 1231 c 128,-1,33
 1049 1162 1049 1162 993 1162 c 0,34,35
 954 1162 954 1162 920 1182 c 0,36,37
 867 1212 867 1212 846 1223 c 1,38,39
 745 1105 745 1105 641 985 c 1,0,1
490 114 m 1,40,41
 553 98 553 98 606 98 c 128,-1,42
 659 98 659 98 732 109 c 1,43,44
 899 270 899 270 899 446 c 0,45,46
 899 696 899 696 797 814 c 1,47,48
 769 816 769 816 731 816 c 0,49,50
 666 816 666 816 573 749 c 128,-1,51
 480 682 480 682 449.5 642.5 c 128,-1,52
 419 603 419 603 406 585 c 1,53,54
 395 528 395 528 395 472 c 0,55,56
 395 298 395 298 490 114 c 1,40,41
EndSplineSet
Validated: 1
EndChar

StartChar: seven
Encoding: 55 55 22
Width: 1203
VWidth: 1894
Flags: W
HStem: 1232 168<281.668 783.531>
VStem: 43 235<979.461 1224.51> 789 376<989.938 1230.19>
LayerCount: 2
Fore
SplineSet
1005 610 m 1,0,1
 995 555 995 555 942 555 c 1,2,-1
 932 555 l 1,3,-1
 889 559 l 1,4,5
 624 340 624 340 545 79 c 1,6,7
 595 48 595 48 595 20 c 0,8,9
 595 20 595 20 595 19 c 0,10,11
 595 12 595 12 592 5 c 0,12,13
 550 -84 550 -84 278 -84 c 0,14,15
 162 -84 162 -84 120.5 -70.5 c 128,-1,16
 79 -57 79 -57 79 -6 c 128,-1,17
 79 45 79 45 122 68.5 c 128,-1,18
 165 92 165 92 177 111 c 128,-1,19
 189 130 189 130 238.5 250.5 c 128,-1,20
 288 371 288 371 420 488 c 0,21,22
 448 513 448 513 464 529 c 1,23,24
 456 533 456 533 435 542 c 128,-1,25
 414 551 414 551 398 579 c 128,-1,26
 382 607 382 607 382 629 c 2,27,-1
 382 636 l 1,28,29
 402 674 402 674 427 699 c 128,-1,30
 452 724 452 724 498.5 724 c 128,-1,31
 545 724 545 724 609 728 c 1,32,33
 789 913 789 913 789 1114 c 2,34,-1
 789 1117 l 2,35,36
 789 1174 789 1174 775 1232 c 1,37,-1
 454 1232 l 2,38,39
 330 1232 330 1232 278 1218 c 1,40,-1
 264 1022 l 1,41,42
 247 934 247 934 163 934 c 0,43,44
 89 934 89 934 57 1050 c 0,45,46
 43 1100 43 1100 43 1196 c 128,-1,47
 43 1292 43 1292 66 1327 c 0,48,49
 113 1400 113 1400 371 1400 c 1,50,-1
 616 1394 l 1,51,-1
 804 1400 l 1,52,53
 1040 1400 1040 1400 1080 1383 c 0,54,55
 1165 1346 1165 1346 1165 1234 c 2,56,-1
 1165 1230 l 2,57,58
 1165 1117 1165 1117 1114 967.5 c 128,-1,59
 1063 818 1063 818 1016.5 754.5 c 128,-1,60
 970 691 970 691 970 680 c 0,61,62
 970 670 970 670 985 663 c 0,63,64
 1005 655 1005 655 1005 618 c 2,65,-1
 1005 610 l 1,0,1
EndSplineSet
Validated: 1
EndChar

StartChar: eight
Encoding: 56 56 23
Width: 1365
VWidth: 1894
Flags: W
HStem: -34 162<537.226 819.419> 1264 140<513.525 720.898>
VStem: 771 328<1019.37 1214.01>
LayerCount: 2
Fore
SplineSet
932 1366 m 1,0,1
 1099 1314 1099 1314 1099 1183 c 128,-1,2
 1099 1052 1099 1052 984 914 c 1,3,4
 1013 895 1013 895 1075.5 857.5 c 128,-1,5
 1138 820 1138 820 1179.5 781 c 128,-1,6
 1221 742 1221 742 1249 699 c 0,7,8
 1305 611 1305 611 1305 503 c 2,9,-1
 1291 346 l 1,10,11
 1256 234 1256 234 1100 102 c 128,-1,12
 944 -30 944 -30 833 -33 c 0,13,14
 784 -34 784 -34 731 -34 c 128,-1,15
 678 -34 678 -34 593.5 -22 c 128,-1,16
 509 -10 509 -10 478 -4.5 c 128,-1,17
 447 1 447 1 420 8 c 0,18,19
 365 22 365 22 302 49 c 128,-1,20
 239 76 239 76 143.5 180 c 128,-1,21
 48 284 48 284 48 348 c 2,22,-1
 48 349 l 1,23,-1
 78 497 l 1,24,25
 109 597 109 597 130 609.5 c 128,-1,26
 151 622 151 622 211.5 696 c 128,-1,27
 272 770 272 770 316.5 794 c 128,-1,28
 361 818 361 818 376 828 c 1,29,30
 346 843 346 843 252.5 884 c 128,-1,31
 159 925 159 925 159 994 c 2,32,-1
 159 997 l 1,33,34
 161 1053 161 1053 236 1191 c 0,35,36
 312 1329 312 1329 432 1359 c 1,37,38
 470 1398 470 1398 575.5 1401 c 128,-1,39
 681 1404 681 1404 715 1404 c 0,40,41
 771 1404 771 1404 783 1401 c 2,42,-1
 932 1366 l 1,0,1
865 237 m 1,43,44
 913 302 913 302 913 384 c 0,45,46
 912 385 912 385 912 386 c 0,47,48
 912 469 912 469 863.5 561.5 c 128,-1,49
 815 654 815 654 649 702 c 1,50,51
 521 680 521 680 461 631 c 1,52,53
 415 520 415 520 415 461 c 1,54,-1
 454 231 l 1,55,56
 534 164 534 164 547 155 c 1,57,58
 652 128 652 128 664 128 c 0,59,60
 774 128 774 128 811 177 c 128,-1,61
 848 226 848 226 865 237 c 1,43,44
653 966 m 2,62,63
 692 966 692 966 751 1021 c 1,64,65
 771 1060 771 1060 771 1094 c 0,66,67
 771 1202 771 1202 665 1264 c 1,68,-1
 584 1260 l 1,69,70
 561 1254 561 1254 512 1224 c 1,71,72
 486 1172 486 1172 486 1128 c 0,73,74
 486 1043 486 1043 587 984 c 0,75,76
 618 968 618 968 647 966 c 1,77,-1
 653 966 l 2,62,63
EndSplineSet
Validated: 1
EndChar

StartChar: nine
Encoding: 57 57 24
Width: 1279
VWidth: 1894
Flags: W
HStem: -58 182<400.097 770.531> 355 205<530.124 788.78> 1221 162<521.468 826.709>
VStem: 861 358<783.748 1098>
LayerCount: 2
Fore
SplineSet
479 614 m 1,0,1
 538 560 538 560 562 560 c 128,-1,2
 586 560 586 560 598 564 c 1,3,-1
 788 543 l 1,4,-1
 854 621 l 1,5,6
 861 719 861 719 861 851 c 0,7,8
 861 1166 861 1166 807 1203 c 0,9,10
 782 1221 782 1221 737 1221 c 128,-1,11
 692 1221 692 1221 516 1182 c 1,12,13
 411 1016 411 1016 410 876 c 2,14,-1
 410 873 l 2,15,16
 410 734 410 734 479 614 c 1,0,1
178 56 m 0,17,18
 95 118 95 118 94 204 c 0,19,20
 94 242 94 242 145 250 c 1,21,-1
 145 254 l 1,22,-1
 186 254 l 2,23,24
 237 254 237 254 294 220 c 0,25,26
 456 124 456 124 616 124 c 2,27,-1
 633 124 l 2,28,29
 721 124 721 124 764 133 c 1,30,31
 800 247 800 247 823 360 c 1,32,33
 793 355 793 355 755.5 355 c 128,-1,34
 718 355 718 355 690 356.5 c 128,-1,35
 662 358 662 358 648 360.5 c 128,-1,36
 634 363 634 363 615.5 367 c 128,-1,37
 597 371 597 371 574 378 c 0,38,39
 529 390 529 390 465 410 c 0,40,41
 303 460 303 460 197 574 c 0,42,43
 92 687 92 687 75 715 c 1,44,-1
 57 780 l 1,45,46
 102 998 102 998 121.5 1040.5 c 128,-1,47
 141 1083 141 1083 144.5 1099 c 128,-1,48
 148 1115 148 1115 150 1122 c 0,49,50
 152 1134 152 1134 152 1136 c 0,51,52
 153 1272 153 1272 330 1345 c 2,53,-1
 445 1392 l 1,54,-1
 832 1383 l 1,55,-1
 834 1378 l 1,56,57
 851 1368 851 1368 955 1337 c 128,-1,58
 1059 1306 1059 1306 1132 1218 c 128,-1,59
 1205 1130 1205 1130 1211 1098 c 2,60,-1
 1217 1065 l 1,61,-1
 1219 1005 l 1,62,-1
 1189 542 l 1,63,-1
 1185 375 l 1,64,65
 1185 324 1185 324 1171 278 c 128,-1,66
 1157 232 1157 232 1093.5 144.5 c 128,-1,67
 1030 57 1030 57 996 -0.5 c 128,-1,68
 962 -58 962 -58 744 -58 c 2,69,-1
 729 -58 l 1,70,71
 507 -56 507 -56 362 -14.5 c 128,-1,72
 217 27 217 27 178 56 c 0,17,18
EndSplineSet
Validated: 1
EndChar

StartChar: less
Encoding: 60 60 27
Width: 1216
VWidth: 1894
Flags: W
LayerCount: 2
Fore
SplineSet
1081 1116 m 0,0,1
 1081 1091 1081 1091 1071 1070 c 1,2,3
 1081 1051 1081 1051 1067 1036 c 0,4,5
 858 809 858 809 650 581 c 1,6,7
 910 228 910 228 1073 98 c 0,8,9
 1089 85 1089 85 1081 67 c 1,10,-1
 1086 40 l 1,11,-1
 1081 36 l 1,12,13
 1077 -8 1077 -8 1052 -26.5 c 128,-1,14
 1027 -45 1027 -45 1011 -56 c 0,15,16
 983 -76 983 -76 958 -76 c 2,17,-1
 938 -76 l 1,18,19
 896 -68 896 -68 873.5 -25 c 128,-1,20
 851 18 851 18 764.5 91 c 128,-1,21
 678 164 678 164 634.5 186 c 128,-1,22
 591 208 591 208 575.5 216.5 c 128,-1,23
 560 225 560 225 542 236.5 c 128,-1,24
 524 248 524 248 503 261 c 128,-1,25
 482 274 482 274 458 290 c 0,26,27
 198 463 198 463 153.5 511 c 128,-1,28
 109 559 109 559 109 594 c 0,29,30
 109 672 109 672 165 697 c 0,31,32
 190 708 190 708 200 713 c 0,33,34
 215 721 215 721 237.5 726 c 128,-1,35
 260 731 260 731 271.5 738.5 c 128,-1,36
 283 746 283 746 302 758 c 0,37,38
 464 869 464 869 674 1033.5 c 128,-1,39
 884 1198 884 1198 938 1209 c 1,40,-1
 1009 1220 l 1,41,-1
 1011 1220 l 2,42,43
 1081 1220 1081 1220 1081 1116 c 0,0,1
EndSplineSet
Validated: 1
EndChar

StartChar: equal
Encoding: 61 61 28
Width: 1538
VWidth: 1894
Flags: W
HStem: 308 216<391.316 1364.56> 334 180<202 434.684 848.438 1370.77> 681 215<361.717 1381.85> 705 177<193 443.283>
LayerCount: 2
Fore
SplineSet
1002 308 m 2,0,-1
 624 308 l 1,1,-1
 202 334 l 1,2,-1
 160 374 l 1,3,4
 133 405 133 405 133 446.5 c 128,-1,5
 133 488 133 488 174.5 514 c 128,-1,6
 216 540 216 540 280 540 c 1,7,-1
 873 524 l 1,8,9
 1297 519 1297 519 1330.5 509 c 128,-1,10
 1364 499 1364 499 1371 496 c 0,11,12
 1410 479 1410 479 1410 415.5 c 128,-1,13
 1410 352 1410 352 1366 330 c 128,-1,14
 1322 308 1322 308 1002 308 c 2,0,-1
992 681 m 2,15,-1
 612 681 l 1,16,-1
 193 705 l 1,17,-1
 150 749 l 2,18,19
 123 778 123 778 123 819.5 c 128,-1,20
 123 861 123 861 164 886.5 c 128,-1,21
 205 912 205 912 268 912 c 1,22,-1
 866 896 l 1,23,24
 1257 891 1257 891 1309.5 882 c 128,-1,25
 1362 873 1362 873 1382.5 857.5 c 128,-1,26
 1403 842 1403 842 1403 808 c 128,-1,27
 1403 774 1403 774 1402 767 c 128,-1,28
 1401 760 1401 760 1400 753.5 c 128,-1,29
 1399 747 1399 747 1396.5 741.5 c 128,-1,30
 1394 736 1394 736 1391 730.5 c 128,-1,31
 1388 725 1388 725 1384 720.5 c 128,-1,32
 1380 716 1380 716 1376 712 c 0,33,34
 1341 681 1341 681 992 681 c 2,15,-1
EndSplineSet
Validated: 1
EndChar

StartChar: greater
Encoding: 62 62 29
Width: 1122
VWidth: 1894
Flags: W
LayerCount: 2
Fore
SplineSet
120 1040 m 2,0,1
 120 1071 120 1071 138 1085 c 1,2,-1
 138 1090 l 2,3,4
 138 1122 138 1122 162.5 1151 c 128,-1,5
 187 1180 187 1180 242 1180 c 2,6,-1
 244 1180 l 2,7,8
 297 1180 297 1180 378 1107 c 0,9,10
 587 919 587 919 672 877.5 c 128,-1,11
 757 836 757 836 814 780 c 128,-1,12
 871 724 871 724 932.5 697 c 128,-1,13
 994 670 994 670 994 620 c 2,14,-1
 994 618 l 1,15,-1
 983 562 l 1,16,17
 970 528 970 528 746.5 325.5 c 128,-1,18
 523 123 523 123 313 -91 c 0,19,20
 279 -124 279 -124 221 -124 c 1,21,-1
 210 -126 l 1,22,-1
 205 -126 l 2,23,24
 155 -126 155 -126 133 -102 c 1,25,-1
 118 -40 l 1,26,-1
 118 -38 l 2,27,28
 118 11 118 11 141.5 38.5 c 128,-1,29
 165 66 165 66 198 97 c 1,30,31
 412 353 412 353 472 591 c 1,32,33
 298 812 298 812 120 1036 c 1,34,-1
 120 1040 l 2,0,1
EndSplineSet
Validated: 1
EndChar

StartChar: question
Encoding: 63 63 30
Width: 1154
Flags: W
HStem: -48 328<437.165 675.141> 378 160<648 717.092> 1280 126<453.828 647.281>
VStem: 154 186<910.672 1174> 168 215<865 1240.33> 333 290<530.498 653.88> 350 399<20.9238 193.088> 740 280<875.603 1188.25>
LayerCount: 2
Fore
SplineSet
749 477 m 0,0,1
 749 459 749 459 715 420 c 0,2,3
 678 378 678 378 529 378 c 0,4,5
 504 378 504 378 367 452 c 1,6,7
 333 497 333 497 333 565 c 0,8,9
 333 632 333 632 350 657 c 0,10,11
 367 682 367 682 426 712 c 0,12,13
 485 741 485 741 543 752 c 0,14,15
 601 763 601 763 641 805 c 0,16,17
 682 847 682 847 713 862 c 1,18,19
 740 938 740 938 740 1043 c 0,20,21
 740 1147 740 1147 648 1269 c 1,22,23
 625 1280 625 1280 599 1280 c 2,24,-1
 569 1280 l 2,25,26
 479 1280 479 1280 453 1262 c 0,27,28
 427 1244 427 1244 383 1201 c 0,29,30
 340 1159 340 1159 340 1148 c 0,31,32
 339 1137 339 1137 343 1119 c 0,33,34
 347 1101 347 1101 359 1016 c 0,35,36
 371 931 371 931 383 910 c 1,37,-1
 380 865 l 1,38,-1
 349 831 l 1,39,40
 319 808 319 808 278 803 c 1,41,-1
 265 803 l 2,42,43
 192 803 192 803 173 887 c 0,44,45
 154 971 154 971 154 978 c 2,46,-1
 168 1174 l 2,47,48
 173 1241 173 1241 270 1324 c 0,49,50
 367 1406 367 1406 568 1406 c 2,51,-1
 575 1406 l 2,52,53
 727 1406 727 1406 850 1319 c 1,54,55
 1020 1201 1020 1201 1020 1032 c 2,56,-1
 1020 1030 l 2,57,58
 1020 786 1020 786 660 655 c 1,59,60
 623 619 623 619 623 604 c 2,61,-1
 623 587 l 2,62,63
 623 556 623 556 648 529 c 1,64,-1
 689 538 l 1,65,-1
 692 538 l 1,66,67
 717 535 717 535 733 515 c 0,68,69
 749 495 749 495 749 477 c 0,0,1
EndSplineSet
Refer: 13 46 N 1 0 0 1 188 0 2
Validated: 1
EndChar

StartChar: at
Encoding: 64 64 31
Width: 1805
VWidth: 1894
Flags: W
HStem: 210 188<682.211 888> 886 181<775.48 1000.75> 1310 208<658.537 1041.76>
VStem: 19 342<376.113 788.411> 402 217<461.924 771.776> 1466 286<549.882 1037.81>
LayerCount: 2
Fore
SplineSet
1412 456 m 0,0,1
 1466 538 1466 538 1466 848 c 0,2,3
 1466 1058 1466 1058 1294 1181 c 0,4,5
 1185 1259 1185 1259 1139.5 1277.5 c 128,-1,6
 1094 1296 1094 1296 997 1303 c 0,7,8
 885 1310 885 1310 851 1310 c 128,-1,9
 817 1310 817 1310 780.5 1305 c 128,-1,10
 744 1300 744 1300 714 1290 c 128,-1,11
 684 1280 684 1280 660 1266 c 0,12,13
 613 1237 613 1237 589 1189 c 0,14,15
 361 736 361 736 361 627 c 0,16,17
 361 327 361 327 609 40 c 1,18,19
 745 -26 745 -26 905 -37 c 128,-1,20
 1065 -48 1065 -48 1073 -51 c 0,21,22
 1090 -57 1090 -57 1112 -57 c 0,23,24
 1165 -57 1165 -57 1248 -21 c 0,25,26
 1365 30 1365 30 1420 81 c 128,-1,27
 1475 132 1475 132 1519 206 c 1,28,-1
 1606 323 l 1,29,30
 1644 362 1644 362 1691 362 c 128,-1,31
 1738 362 1738 362 1754 340 c 0,32,33
 1768 320 1768 320 1768 262 c 0,34,35
 1768 258 1768 258 1768 254 c 0,36,37
 1768 252 1768 252 1768 250 c 0,38,39
 1767 182 1767 182 1694 90 c 0,40,41
 1571 -63 1571 -63 1455 -127 c 2,42,-1
 1361 -177 l 1,43,-1
 1002 -248 l 1,44,-1
 650 -172 l 1,45,46
 447 -94 447 -94 313 -2 c 128,-1,47
 179 90 179 90 142 152 c 0,48,49
 59 289 59 289 39 349.5 c 128,-1,50
 19 410 19 410 19 580 c 0,51,52
 19 815 19 815 172 1108 c 0,53,54
 188 1140 188 1140 214 1176.5 c 128,-1,55
 240 1213 240 1213 276.5 1270.5 c 128,-1,56
 313 1328 313 1328 380.5 1392 c 128,-1,57
 448 1456 448 1456 492 1474.5 c 128,-1,58
 536 1493 536 1493 554 1498 c 128,-1,59
 572 1503 572 1503 592 1507 c 128,-1,60
 612 1511 612 1511 636 1513 c 0,61,62
 682 1518 682 1518 728.5 1518 c 128,-1,63
 775 1518 775 1518 805 1517.5 c 128,-1,64
 835 1517 835 1517 860 1515 c 0,65,66
 910 1512 910 1512 951.5 1504 c 128,-1,67
 993 1496 993 1496 1161 1426 c 0,68,69
 1540 1270 1540 1270 1702 1063 c 0,70,71
 1752 1000 1752 1000 1752 870 c 0,72,73
 1752 631 1752 631 1667 438 c 0,74,75
 1642 381 1642 381 1591 328 c 0,76,77
 1464 198 1464 198 1338 198 c 2,78,-1
 1336 198 l 2,79,80
 1209 198 1209 198 1151 267 c 0,81,82
 1120 304 1120 304 1103 320 c 1,83,84
 1093 313 1093 313 1071 293.5 c 128,-1,85
 1049 274 1049 274 1018 255 c 0,86,87
 955 217 955 217 890 212 c 1,88,-1
 888 210 l 1,89,-1
 871 210 l 2,90,91
 679 210 679 210 573 274 c 0,92,93
 531 299 531 299 466.5 391.5 c 128,-1,94
 402 484 402 484 402 638 c 0,95,96
 402 925 402 925 695 1035 c 0,97,98
 777 1066 777 1066 850 1067 c 0,99,100
 971 1068 971 1068 1002 1072 c 1,101,-1
 1053 1090 l 1,102,-1
 1106 1114 l 2,103,104
 1107 1114 1107 1114 1113 1115 c 1,105,-1
 1213 1113 l 1,106,107
 1297 1084 1297 1084 1303 1055 c 0,108,109
 1351 733 1351 733 1380 415 c 1,110,111
 1399 436 1399 436 1412 456 c 0,0,1
1010 829 m 1,112,113
 979 884 979 884 852 886 c 0,114,115
 790 886 790 886 775 875 c 0,116,117
 743 850 743 850 681 792.5 c 128,-1,118
 619 735 619 735 619 619.5 c 128,-1,119
 619 504 619 504 673 451 c 128,-1,120
 727 398 727 398 840 398 c 1,121,-1
 897 403 l 1,122,123
 913 410 913 410 952.5 440.5 c 128,-1,124
 992 471 992 471 1016 475 c 0,125,126
 1051 481 1051 481 1066 483 c 1,127,128
 1065 493 1065 493 1063 505 c 128,-1,129
 1061 517 1061 517 1060 524.5 c 128,-1,130
 1059 532 1059 532 1057.5 542.5 c 128,-1,131
 1056 553 1056 553 1054.5 566 c 128,-1,132
 1053 579 1053 579 1052 595 c 0,133,134
 1049 626 1049 626 1040 708 c 128,-1,135
 1031 790 1031 790 1010 827 c 1,136,-1
 1010 829 l 1,112,113
EndSplineSet
Validated: 1
EndChar

StartChar: A
Encoding: 65 65 32
Width: 1500
VWidth: 1894
Flags: W
HStem: 516.5 177.5<570.719 951> 520 183<568.574 947.842> 1188 182<662.1 871>
VStem: 951 360<694 1084.89>
LayerCount: 2
Fore
SplineSet
908 87 m 0,0,1
 908 147 908 147 978 172 c 1,2,3
 967 342 967 342 958 511 c 1,4,5
 888 513 888 513 795 516.5 c 128,-1,6
 702 520 702 520 664 520 c 2,7,-1
 640 520 l 2,8,9
 592 520 592 520 572 517 c 0,10,11
 544 512 544 512 535 511 c 1,12,13
 505 339 505 339 473 165 c 1,14,-1
 475 165 l 1,15,-1
 540 142 l 1,16,-1
 518 119 l 1,17,-1
 520 116 l 1,18,-1
 506 71 l 1,19,20
 479 25 479 25 414.5 15.5 c 128,-1,21
 350 6 350 6 256 6 c 128,-1,22
 162 6 162 6 105 17.5 c 128,-1,23
 48 29 48 29 48 75.5 c 128,-1,24
 48 122 48 122 89 148 c 128,-1,25
 130 174 130 174 135 184 c 1,26,27
 187 554 187 554 191 633 c 1,28,-1
 188 682 l 1,29,30
 188 749 188 749 231 909 c 0,31,32
 301 1168 301 1168 506 1316 c 0,33,34
 582 1370 582 1370 724 1370 c 0,35,36
 758 1370 758 1370 812 1368 c 0,37,38
 1176 1348 1176 1348 1281 1049 c 0,39,40
 1311 958 1311 958 1311 884.5 c 128,-1,41
 1311 811 1311 811 1306 785 c 1,42,-1
 1332 187 l 1,43,-1
 1419 130 l 1,44,-1
 1441 94 l 1,45,-1
 1412 2 l 1,46,-1
 988 16 l 1,47,48
 908 30 908 30 908 87 c 0,0,1
871 1178 m 1,49,-1
 789 1188 l 1,50,51
 680 1186 680 1186 661.5 1171.5 c 128,-1,52
 643 1157 643 1157 638 1154 c 1,53,54
 605 927 605 927 568 703 c 1,55,-1
 742 712 l 1,56,57
 850 702 850 702 951 694 c 1,58,59
 943 913 943 913 938 1133 c 1,60,-1
 871 1178 l 1,49,-1
EndSplineSet
Validated: 1
EndChar

StartChar: B
Encoding: 66 66 33
Width: 1364
VWidth: 1894
Flags: W
HStem: -12 154<614 809.552> -6 166<145 263> 1131 199<136.01 265.91> 1170 182<650 814.18>
VStem: 263 351<160 561.282> 266 366<161.79 568 761 1132.56> 862 359<864.477 990 991 1126.97> 933 373<258.024 511.039>
LayerCount: 2
Fore
SplineSet
614 142 m 1,0,1
 734 144 734 144 812 167 c 1,2,3
 933 283 933 283 933 376 c 128,-1,4
 933 469 933 469 855 553 c 1,5,6
 681 569 681 569 669 569 c 0,7,8
 649 569 649 569 632 568 c 1,9,10
 625 353 625 353 614 142 c 1,0,1
677 1170 m 1,11,12
 666 1170 666 1170 650 1171 c 1,13,14
 646 966 646 966 640 761 c 1,15,16
 765 772 765 772 809 825 c 0,17,18
 862 888 862 888 862 974.5 c 128,-1,19
 862 1061 862 1061 841 1096 c 0,20,21
 815 1140 815 1140 772.5 1158.5 c 128,-1,22
 730 1177 730 1177 724 1177 c 2,23,-1
 677 1170 l 1,11,12
273 993 m 2,24,25
 273 1055 273 1055 258 1136 c 1,26,-1
 178 1131 l 1,27,28
 110 1131 110 1131 81 1170 c 0,29,30
 76 1177 76 1177 76 1184 c 2,31,-1
 76 1195 l 1,32,33
 82 1312 82 1312 319 1330 c 0,34,35
 425 1338 425 1338 438 1344 c 0,36,37
 461 1352 461 1352 510 1352 c 2,38,-1
 598 1352 l 2,39,40
 870 1352 870 1352 1028 1272 c 0,41,42
 1154 1206 1154 1206 1207 1065 c 0,43,44
 1221 1028 1221 1028 1221 996 c 2,45,-1
 1221 991 l 1,46,-1
 1220 990 l 1,47,48
 1218 928 1218 928 1165.5 845.5 c 128,-1,49
 1113 763 1113 763 1089.5 749 c 128,-1,50
 1066 735 1066 735 1056 728 c 1,51,52
 1065 723 1065 723 1073.5 718.5 c 128,-1,53
 1082 714 1082 714 1087.5 710.5 c 128,-1,54
 1093 707 1093 707 1099 704 c 0,55,56
 1191 650 1191 650 1248.5 557.5 c 128,-1,57
 1306 465 1306 465 1306 419 c 128,-1,58
 1306 373 1306 373 1281 301 c 0,59,60
 1220 126 1220 126 985 37 c 0,61,62
 855 -12 855 -12 440 -12 c 1,63,-1
 164 -6 l 1,64,65
 51 7 51 7 51 86 c 2,66,-1
 51 94 l 1,67,-1
 84 134 l 1,68,-1
 145 160 l 1,69,-1
 263 160 l 1,70,-1
 266 497 l 1,71,-1
 273 993 l 2,24,25
EndSplineSet
Validated: 1
EndChar

StartChar: C
Encoding: 67 67 34
Width: 1379
VWidth: 1894
Flags: W
HStem: -52 193<622.134 966.1> 57 301<1033.5 1226.42> 1199 187<778.116 969.754>
VStem: 53 432<400.327 818.989>
LayerCount: 2
Fore
SplineSet
973 1167 m 1,0,1
 972 1199 972 1199 918 1199 c 0,2,3
 879 1199 879 1199 811 1181 c 0,4,5
 802 1179 802 1179 799 1177 c 0,6,7
 485 890 485 890 485 609 c 128,-1,8
 485 328 485 328 620 166 c 1,9,10
 688 141 688 141 793 141 c 0,11,12
 795 141 795 141 797 141 c 0,13,14
 991 141 991 141 991 242 c 0,15,16
 991 243 991 243 991 244 c 0,17,18
 991 358 991 358 1102 358 c 0,19,20
 1210 358 1210 358 1284 250 c 0,21,22
 1320 196 1320 196 1320 172.5 c 128,-1,23
 1320 149 1320 149 1318 141 c 0,24,25
 1304 63 1304 63 1258 57 c 0,26,27
 1179 48 1179 48 1100 38 c 1,28,29
 1063 28 1063 28 908 -43 c 0,30,31
 888 -52 888 -52 803 -52 c 2,32,-1
 650 -52 l 2,33,34
 491 -52 491 -52 324 47 c 1,35,36
 130 172 130 172 115.5 279.5 c 128,-1,37
 101 387 101 387 83 473 c 0,38,39
 53 616 53 616 53 644.5 c 128,-1,40
 53 673 53 673 54 688 c 0,41,42
 59 764 59 764 88 819 c 0,43,44
 204 1049 204 1049 336 1165 c 1,45,46
 434 1243 434 1243 582 1314.5 c 128,-1,47
 730 1386 730 1386 890 1386 c 0,48,49
 1051 1386 1051 1386 1077 1372 c 0,50,51
 1118 1350 1118 1350 1132 1350 c 2,52,-1
 1166 1350 l 1,53,-1
 1220 1347 l 1,54,55
 1281 1332 1281 1332 1289.5 1307.5 c 128,-1,56
 1298 1283 1298 1283 1298 1259 c 2,57,-1
 1298 1244 l 1,58,59
 1293 1189 1293 1189 1270 1166.5 c 128,-1,60
 1247 1144 1247 1144 1208 1087.5 c 128,-1,61
 1169 1031 1169 1031 1122 1007 c 1,62,-1
 1049 964 l 1,63,64
 951 1060 951 1060 950 1064.5 c 128,-1,65
 949 1069 949 1069 949 1076 c 2,66,-1
 949 1083 l 1,67,-1
 973 1167 l 1,0,1
EndSplineSet
Validated: 1
EndChar

StartChar: D
Encoding: 68 68 35
Width: 1604
VWidth: 1894
Flags: W
HStem: 5 145<124.248 250.965>
VStem: 266 364<182 879.879> 1194 351<617.293 994.734>
LayerCount: 2
Fore
SplineSet
966 323 m 1,0,1
 1194 604 1194 604 1194 816 c 0,2,3
 1194 1080 1194 1080 896 1207 c 1,4,-1
 666 1223 l 1,5,6
 658 699 658 699 630 182 c 1,7,8
 740 195 740 195 804 219.5 c 128,-1,9
 868 244 868 244 966 323 c 1,0,1
57 1189 m 0,10,11
 57 1368 57 1368 648 1368 c 0,12,13
 858 1368 858 1368 971 1350 c 128,-1,14
 1084 1332 1084 1332 1191 1286 c 128,-1,15
 1298 1240 1298 1240 1325 1209.5 c 128,-1,16
 1352 1179 1352 1179 1369 1161 c 0,17,18
 1404 1125 1404 1125 1474.5 1061.5 c 128,-1,19
 1545 998 1545 998 1545 878 c 2,20,-1
 1545 809 l 1,21,22
 1538 696 1538 696 1487.5 582 c 128,-1,23
 1437 468 1437 468 1376 413 c 128,-1,24
 1315 358 1315 358 1295 329 c 0,25,26
 1223 227 1223 227 1009 122 c 0,27,28
 913 75 913 75 709.5 38.5 c 128,-1,29
 506 2 506 2 360 2 c 128,-1,30
 214 2 214 2 180.5 5 c 128,-1,31
 147 8 147 8 122 31 c 1,32,-1
 100 72 l 1,33,-1
 123 112 l 1,34,35
 163 144 163 144 193.5 150 c 128,-1,36
 224 156 224 156 234 160 c 0,37,38
 250 166 250 166 251 172 c 2,39,-1
 266 239 l 1,40,-1
 258 481 l 1,41,42
 258 676 258 676 280 967 c 1,43,44
 272 1110 272 1110 264 1132 c 1,45,46
 190 1117 190 1117 174 1117 c 0,47,48
 58 1117 58 1117 57 1189 c 0,10,11
EndSplineSet
Validated: 1
EndChar

StartChar: E
Encoding: 69 69 36
Width: 1451
VWidth: 1894
Flags: W
HStem: 540 334<731.116 916.849> 1086 229<107.738 175 1054.9 1224.86> 1177 156<755.322 1051.38> 1368 20G<1288.5 1331.5>
VStem: 224 400<413.973 616 813 1088.94> 244 385<275 616>
LayerCount: 2
Fore
SplineSet
1026 133 m 0,0,-1
 672 103 l 0,1,2
 531 83 531 83 390 63 c 1,3,-1
 173 28 l 2,4,5
 156 25 156 25 141 25 c 0,6,7
 67 26 67 26 67 97 c 0,8,9
 67 106 67 106 71 132 c 128,-1,10
 75 158 75 158 138 191 c 1,11,-1
 244 250 l 1,12,-1
 224 829 l 1,13,14
 208 1048 208 1048 202.5 1062 c 128,-1,15
 197 1076 197 1076 194.5 1081.5 c 128,-1,16
 192 1087 192 1087 191 1089 c 1,17,-1
 178 1090 l 1,18,-1
 175 1086 l 1,19,-1
 157 1086 l 2,20,21
 34 1086 34 1086 33 1178 c 1,22,-1
 33 1179 l 2,23,24
 33 1272 33 1272 245 1315 c 0,25,26
 340 1334 340 1334 555 1334 c 128,-1,27
 770 1334 770 1334 836 1333 c 128,-1,28
 902 1332 902 1332 952 1331 c 0,29,30
 1043 1328 1043 1328 1072 1322 c 0,31,32
 1094 1317 1094 1317 1108 1314 c 0,33,34
 1134 1308 1134 1308 1141 1308 c 0,35,36
 1174 1308 1174 1308 1199 1334.5 c 128,-1,37
 1224 1361 1224 1361 1238 1370 c 0,38,39
 1267 1388 1267 1388 1310 1388 c 128,-1,40
 1353 1388 1353 1388 1380 1363.5 c 128,-1,41
 1407 1339 1407 1339 1407 1310 c 0,42,43
 1407 1264 1407 1264 1361 1202 c 0,44,45
 1271 1081 1271 1081 1168 1081 c 0,46,47
 1111 1081 1111 1081 1081.5 1110 c 128,-1,48
 1052 1139 1052 1139 1006 1150 c 128,-1,49
 960 1161 960 1161 950.5 1163 c 128,-1,50
 941 1165 941 1165 932 1167 c 128,-1,51
 923 1169 923 1169 915.5 1170.5 c 128,-1,52
 908 1172 908 1172 901 1173.5 c 128,-1,53
 894 1175 894 1175 888 1176 c 128,-1,54
 882 1177 882 1177 877 1177 c 0,55,56
 867 1178 867 1178 861 1179 c 2,57,-1
 604 1147 l 1,58,59
 612 980 612 980 618 813 c 1,60,61
 645 816 645 816 679 820 c 0,62,63
 739 826 739 826 788 850 c 128,-1,64
 837 874 837 874 870 874 c 2,65,-1
 873 874 l 1,66,-1
 946 858 l 1,67,68
 1016 836 1016 836 1016 762 c 0,69,70
 1016 761 1016 761 1016 759 c 0,71,72
 1016 714 1016 714 986 667 c 0,73,74
 908 540 908 540 795 540 c 0,75,76
 744 540 744 540 658 623 c 1,77,-1
 624 616 l 1,78,79
 629 445 629 445 629 275 c 1,80,81
 671 278 671 278 720 278 c 0,82,83
 726 278 726 278 733 278 c 0,84,85
 930 276 930 276 1095 265 c 1,86,87
 1107 275 1107 275 1128 297 c 0,88,89
 1165 338 1165 338 1226 338 c 2,90,-1
 1228 338 l 2,91,92
 1310 338 1310 338 1310 254 c 2,93,-1
 1310 253 l 2,94,95
 1310 177 1310 177 1249.5 127 c 128,-1,96
 1189 77 1189 77 1173 59 c 1,97,98
 1112 -8 1112 -8 1068 -8 c 0,99,100
 1049 -8 1049 -8 1034 4 c 0,101,102
 1003 29 1003 29 1002 64 c 0,103,104
 1002 95 1002 95 1026 133 c 0,0,-1
EndSplineSet
Validated: 1
EndChar

StartChar: F
Encoding: 70 70 37
Width: 1547
VWidth: 1894
Flags: W
HStem: 506 332<896.599 1019.15> 588 185<656 855.289> 1106 183<76.8274 277.487> 1134 194<690.78 1210> 1342 20G<1373 1418>
LayerCount: 2
Fore
SplineSet
176 1106 m 1,0,1
 62 1106 62 1106 55 1190 c 1,2,-1
 55 1206 l 1,3,-1
 76 1258 l 1,4,5
 102 1289 102 1289 189 1289 c 2,6,-1
 195 1289 l 1,7,-1
 200 1288 l 1,8,9
 266 1288 266 1288 301 1306 c 128,-1,10
 336 1324 336 1324 370.5 1324 c 128,-1,11
 405 1324 405 1324 418 1323 c 128,-1,12
 431 1322 431 1322 443 1320 c 0,13,14
 467 1316 467 1316 496.5 1304 c 128,-1,15
 526 1292 526 1292 546 1292 c 0,16,17
 581 1292 581 1292 688 1307 c 0,18,19
 839 1328 839 1328 970.5 1328 c 128,-1,20
 1102 1328 1102 1328 1140 1328 c 0,21,22
 1293 1328 1293 1328 1328 1338 c 1,23,24
 1360 1362 1360 1362 1386 1362 c 2,25,-1
 1395 1362 l 2,26,27
 1441 1362 1441 1362 1469 1337.5 c 128,-1,28
 1497 1313 1497 1313 1499 1273 c 2,29,-1
 1499 1236 l 2,30,31
 1499 1197 1499 1197 1455.5 1122.5 c 128,-1,32
 1412 1048 1412 1048 1367 1048 c 0,33,34
 1294 1048 1294 1048 1242 1101 c 2,35,-1
 1210 1134 l 1,36,-1
 1089 1134 l 2,37,38
 941 1134 941 1134 859 1121 c 128,-1,39
 777 1108 777 1108 688 1099 c 1,40,41
 673 936 673 936 656 773 c 1,42,43
 699 775 699 775 757 775.5 c 128,-1,44
 815 776 815 776 829.5 780.5 c 128,-1,45
 844 785 844 785 864 804 c 0,46,47
 899 838 899 838 958 838 c 0,48,49
 1081 838 1081 838 1081 751 c 0,50,51
 1081 705 1081 705 1064 629.5 c 128,-1,52
 1047 554 1047 554 1020 530 c 128,-1,53
 993 506 993 506 954 506 c 128,-1,54
 915 506 915 506 896 514 c 0,55,56
 866 526 866 526 814 590 c 1,57,-1
 636 588 l 1,58,59
 613 384 613 384 586 180 c 1,60,-1
 655 120 l 1,61,-1
 667 87 l 1,62,-1
 661 57 l 1,63,64
 638 14 638 14 562 8 c 0,65,66
 439 0 439 0 376 0 c 1,67,-1
 112 6 l 1,68,69
 87 13 87 13 68 30 c 1,70,-1
 53 68 l 1,71,-1
 53 72 l 2,72,73
 53 104 53 104 88 126 c 128,-1,74
 123 148 123 148 188 172 c 128,-1,75
 253 196 253 196 253 256 c 2,76,-1
 253 288 l 2,77,78
 253 315 253 315 266 369 c 0,79,80
 287 457 287 457 287 530 c 1,81,-1
 266 977 l 1,82,-1
 278 1096 l 1,83,84
 278 1108 278 1108 253 1108 c 2,85,-1
 176 1106 l 1,0,1
EndSplineSet
Validated: 1
EndChar

StartChar: G
Encoding: 71 71 38
Width: 1419
VWidth: 1894
Flags: W
HStem: -18 144<627.658 867.106> 510 190<799.293 988> 1209 169<722.171 1026.21> 1338 20G<1207.5 1284.5>
VStem: 54 384<231.216 888.297>
LayerCount: 2
Fore
SplineSet
810 1209 m 1,0,1
 766 1207 766 1207 742 1204 c 1,2,3
 563 1031 563 1031 547 1011 c 0,4,5
 438 874 438 874 438 557 c 0,6,7
 438 329 438 329 449 298.5 c 128,-1,8
 460 268 460 268 464.5 259 c 128,-1,9
 469 250 469 250 475.5 240 c 128,-1,10
 482 230 482 230 490 218 c 0,11,12
 507 195 507 195 533 169 c 1,13,-1
 675 126 l 1,14,15
 793 126 793 126 872 172 c 1,16,17
 927 343 927 343 988 510 c 1,18,-1
 945 510 l 2,19,20
 794 510 794 510 774 602 c 1,21,-1
 770 606 l 1,22,-1
 770 622 l 2,23,24
 770 700 770 700 928 700 c 1,25,-1
 1040 694 l 1,26,27
 1108 696 1108 696 1166 712 c 128,-1,28
 1224 728 1224 728 1242 728 c 128,-1,29
 1260 728 1260 728 1271 723 c 0,30,31
 1291 715 1291 715 1311 693 c 1,32,33
 1356 658 1356 658 1357 631 c 0,34,35
 1359 588 1359 588 1359 557 c 0,36,37
 1359 506 1359 506 1341 351 c 128,-1,38
 1323 196 1323 196 1318.5 152.5 c 128,-1,39
 1314 109 1314 109 1283 85 c 128,-1,40
 1252 61 1252 61 1219 61 c 2,41,-1
 1218 61 l 1,42,-1
 1127 69 l 1,43,44
 1109 69 1109 69 1069 50 c 0,45,46
 926 -18 926 -18 692 -18 c 2,47,-1
 683 -18 l 2,48,49
 333 -18 333 -18 196 106 c 128,-1,50
 59 230 59 230 54 344 c 1,51,-1
 48 572 l 1,52,53
 48 805 48 805 93 894 c 128,-1,54
 138 983 138 983 158.5 1053.5 c 128,-1,55
 179 1124 179 1124 285 1218 c 0,56,57
 469 1378 469 1378 744 1378 c 0,58,59
 851 1378 851 1378 932.5 1362.5 c 128,-1,60
 1014 1347 1014 1347 1045 1342 c 0,61,62
 1105 1332 1105 1332 1123 1332 c 128,-1,63
 1141 1332 1141 1332 1162.5 1345 c 128,-1,64
 1184 1358 1184 1358 1231 1358 c 2,65,-1
 1233 1358 l 2,66,67
 1336 1358 1336 1358 1344 1269 c 2,68,-1
 1347 1229 l 1,69,70
 1347 1196 1347 1196 1307.5 1124.5 c 128,-1,71
 1268 1053 1268 1053 1204 1034 c 1,72,73
 1148 1037 1148 1037 1104.5 1091.5 c 128,-1,74
 1061 1146 1061 1146 1040 1157 c 128,-1,75
 1019 1168 1019 1168 1011 1171.5 c 128,-1,76
 1003 1175 1003 1175 993.5 1178 c 128,-1,77
 984 1181 984 1181 974 1185 c 0,78,79
 939 1195 939 1195 810 1209 c 1,0,1
EndSplineSet
Validated: 1
EndChar

StartChar: H
Encoding: 72 72 39
Width: 1565
VWidth: 1894
Flags: W
HStem: -26 181<937.989 1014.66> 6 195<73.4717 184.229> 626 200<638 740.275> 716 172<744.892 1039> 1326 20G<359.5 421 577.25 613.75>
VStem: 1015 355<241 707.374> 1067 357<960.906 1185>
LayerCount: 2
Fore
SplineSet
220 1284 m 1,0,1
 328 1344 328 1344 391 1346 c 1,2,-1
 418 1346 l 1,3,-1
 421 1343 l 1,4,5
 559 1356 559 1356 595.5 1356 c 128,-1,6
 632 1356 632 1356 679 1330.5 c 128,-1,7
 726 1305 726 1305 728 1270 c 1,8,-1
 728 1263 l 1,9,-1
 725 1251 l 1,10,-1
 725 1233 l 1,11,12
 694 1225 694 1225 679 1219 c 1,13,14
 661 1022 661 1022 638 826 c 1,15,16
 734 842 734 842 740.5 847.5 c 128,-1,17
 747 853 747 853 755.5 856.5 c 128,-1,18
 764 860 764 860 782 864 c 0,19,20
 909 888 909 888 1048 888 c 1,21,-1
 1067 1185 l 1,22,-1
 1025 1186 l 1,23,-1
 1002 1241 l 1,24,-1
 1016 1294 l 1,25,26
 1054 1365 1054 1365 1243 1365 c 128,-1,27
 1432 1365 1432 1365 1453.5 1345.5 c 128,-1,28
 1475 1326 1475 1326 1484 1316 c 0,29,30
 1501 1296 1501 1296 1507 1276 c 1,31,-1
 1511 1272 l 1,32,-1
 1511 1257 l 2,33,34
 1511 1217 1511 1217 1481 1198 c 0,35,36
 1424 1160 1424 1160 1424 957 c 2,37,-1
 1424 904 l 2,38,39
 1424 803 1424 803 1412.5 719 c 128,-1,40
 1401 635 1401 635 1397.5 608.5 c 128,-1,41
 1394 582 1394 582 1391.5 556.5 c 128,-1,42
 1389 531 1389 531 1386 507 c 0,43,44
 1379 437 1379 437 1370 241 c 1,45,-1
 1409 197 l 1,46,47
 1463 147 1463 147 1463 118 c 2,48,-1
 1463 116 l 2,49,50
 1463 43 1463 43 1263 -6 c 0,51,52
 1180 -26 1180 -26 1049 -26 c 128,-1,53
 918 -26 918 -26 918 62 c 0,54,55
 918 109 918 109 990 155 c 1,56,57
 1004 158 1004 158 1015 161 c 1,58,59
 1023 440 1023 440 1039 716 c 1,60,-1
 1032 716 l 2,61,62
 859 716 859 716 765 679 c 128,-1,63
 671 642 671 642 615 626 c 1,64,65
 588 398 588 398 557 172 c 1,66,-1
 606 150 l 2,67,68
 631 139 631 139 630 122 c 2,69,-1
 631 103 l 2,70,71
 631 90 631 90 611 74 c 1,72,73
 550 6 550 6 261 6 c 2,74,-1
 241 6 l 2,75,76
 52 6 52 6 50 106 c 1,77,-1
 50 110 l 2,78,79
 50 150 50 150 81.5 173.5 c 128,-1,80
 113 197 113 197 144.5 201 c 128,-1,81
 176 205 176 205 184.5 222 c 128,-1,82
 193 239 193 239 212.5 386 c 128,-1,83
 232 533 232 533 232 637 c 1,84,-1
 220 1284 l 1,0,1
EndSplineSet
Validated: 1
EndChar

StartChar: I
Encoding: 73 73 40
Width: 676
VWidth: 1894
Flags: W
HStem: -6 21G<174 365> 1320 20G<393.25 453.75>
VStem: 153 379<184.728 683.606> 192 340<684.342 1119.13>
LayerCount: 2
Fore
SplineSet
532 187 m 1,0,1
 621 154 621 154 621 92 c 0,2,3
 621 62 621 62 584 39 c 128,-1,4
 547 16 547 16 510 8 c 0,5,6
 440 -6 440 -6 290 -6 c 0,7,8
 58 -6 58 -6 57 80 c 2,9,-1
 57 82 l 2,10,11
 57 162 57 162 144 183 c 1,12,13
 152 237 152 237 153 455 c 128,-1,14
 154 673 154 673 159.5 684 c 128,-1,15
 165 695 165 695 166 699 c 128,-1,16
 167 703 167 703 168.5 708.5 c 128,-1,17
 170 714 170 714 171 721.5 c 128,-1,18
 172 729 172 729 173.5 738.5 c 128,-1,19
 175 748 175 748 176 759 c 0,20,21
 192 881 192 881 192 927 c 1,22,-1
 188 1065 l 2,23,24
 188 1092 188 1092 162 1120 c 1,25,26
 67 1134 67 1134 65 1204 c 1,27,-1
 65 1212 l 1,28,29
 67 1272 67 1272 92.5 1287 c 128,-1,30
 118 1302 118 1302 240.5 1321 c 128,-1,31
 363 1340 363 1340 423.5 1340 c 128,-1,32
 484 1340 484 1340 527 1314 c 1,33,-1
 592 1266 l 1,34,-1
 532 1186 l 1,35,36
 538 848 538 848 538 680 c 1,37,-1
 532 187 l 1,0,1
EndSplineSet
Validated: 1
EndChar

StartChar: J
Encoding: 74 74 41
Width: 1317
VWidth: 1894
Flags: W
HStem: -40 169<377.32 601.064> 1160 196<408.773 906>
VStem: 906 347<746.916 1159.25>
LayerCount: 2
Fore
SplineSet
848 522 m 1,0,1
 822 516 822 516 788 516 c 0,2,3
 682 516 682 516 646 615 c 0,4,5
 644 627 644 627 644 637 c 0,6,7
 644 711 644 711 826 733 c 0,8,9
 857 737 857 737 876 739 c 1,10,11
 903 993 903 993 906 1160 c 1,12,-1
 853 1160 l 2,13,14
 661 1160 661 1160 538 1140 c 128,-1,15
 415 1120 415 1120 406.5 1114 c 128,-1,16
 398 1108 398 1108 384 1067 c 128,-1,17
 370 1026 370 1026 347.5 1002 c 128,-1,18
 325 978 325 978 268 978 c 0,19,20
 147 978 147 978 147 1128 c 0,21,22
 147 1163 147 1163 165.5 1202.5 c 128,-1,23
 184 1242 184 1242 281.5 1278 c 128,-1,24
 379 1314 379 1314 520 1325 c 128,-1,25
 661 1336 661 1336 767.5 1346 c 128,-1,26
 874 1356 874 1356 926.5 1356 c 128,-1,27
 979 1356 979 1356 1041 1346.5 c 128,-1,28
 1103 1337 1103 1337 1128 1330 c 0,29,30
 1180 1316 1180 1316 1208 1294 c 0,31,32
 1257 1255 1257 1255 1257 1088 c 1,33,-1
 1245 878 l 1,34,-1
 1253 741 l 1,35,36
 1253 678 1253 678 1215 525.5 c 128,-1,37
 1177 373 1177 373 1141 295.5 c 128,-1,38
 1105 218 1105 218 1033 133 c 0,39,40
 959 49 959 49 896.5 4.5 c 128,-1,41
 834 -40 834 -40 639 -40 c 2,42,-1
 627 -40 l 2,43,44
 331 -40 331 -40 193 44.5 c 128,-1,45
 55 129 55 129 55 229 c 0,46,47
 55 326 55 326 81 347 c 128,-1,48
 107 368 107 368 164.5 368 c 128,-1,49
 222 368 222 368 253.5 339.5 c 128,-1,50
 285 311 285 311 299.5 276 c 128,-1,51
 314 241 314 241 318.5 231 c 128,-1,52
 323 221 323 221 326.5 214 c 128,-1,53
 330 207 330 207 333 202 c 0,54,55
 339 192 339 192 346 186.5 c 128,-1,56
 353 181 353 181 426 155.5 c 128,-1,57
 499 130 499 130 530 129 c 2,58,-1
 547 129 l 2,59,60
 572 129 572 129 602 131 c 1,61,62
 706 195 706 195 762 269.5 c 128,-1,63
 818 344 818 344 848 522 c 1,0,1
EndSplineSet
Validated: 1
EndChar

StartChar: K
Encoding: 75 75 42
Width: 1578
VWidth: 1894
Flags: W
HStem: -6 21G<159.5 267> 1179 177<1423 1488.5>
VStem: 215 377<188.375 511.5 709 1106.26>
LayerCount: 2
Fore
SplineSet
589 709 m 1,0,1
 1008 1025 1008 1025 1054 1181 c 1,2,-1
 1035 1257 l 1,3,-1
 1035 1260 l 1,4,5
 1037 1360 1037 1360 1255 1360 c 1,6,-1
 1392 1356 l 1,7,-1
 1394 1356 l 1,8,9
 1445 1352 1445 1352 1474.5 1330 c 128,-1,10
 1504 1308 1504 1308 1504 1279 c 0,11,12
 1504 1205 1504 1205 1423 1179 c 1,13,-1
 1315 1124 l 1,14,-1
 998 818 l 2,15,16
 971 791 971 791 936.5 754.5 c 128,-1,17
 902 718 902 718 867 684 c 1,18,19
 1166 478 1166 478 1351 282 c 0,20,21
 1401 229 1401 229 1443 197 c 0,22,23
 1524 136 1524 136 1524 106 c 0,24,25
 1524 0 1524 0 1354 0 c 0,26,27
 1091 0 1091 0 1030 37.5 c 128,-1,28
 969 75 969 75 969 112 c 2,29,-1
 969 130 l 1,30,-1
 1053 160 l 1,31,32
 872 305 872 305 728 435 c 1,33,-1
 622 512 l 1,34,35
 607 496 607 496 591 479 c 1,36,37
 590 328 590 328 588 176 c 1,38,39
 669 146 669 146 684 107 c 1,40,-1
 674 69 l 1,41,42
 659 50 659 50 653.5 47 c 128,-1,43
 648 44 648 44 647 43 c 128,-1,44
 646 42 646 42 645 40 c 0,45,46
 642 37 642 37 637 29 c 0,47,48
 627 12 627 12 556 8 c 0,49,50
 312 -6 312 -6 222 -6 c 0,51,52
 97 -6 97 -6 76 73 c 0,53,54
 74 80 74 80 74 96.5 c 128,-1,55
 74 113 74 113 92.5 129 c 128,-1,56
 111 145 111 145 121 151 c 0,57,58
 140 163 140 163 163.5 171 c 128,-1,59
 187 179 187 179 190 185 c 0,60,61
 215 291 215 291 215 653 c 0,62,63
 215 1055 215 1055 194 1108 c 1,64,65
 184 1111 184 1111 153.5 1116.5 c 128,-1,66
 123 1122 123 1122 88 1150.5 c 128,-1,67
 53 1179 53 1179 53 1203 c 2,68,-1
 53 1209 l 1,69,70
 96 1346 96 1346 271 1346 c 0,71,72
 601 1346 601 1346 641 1306 c 0,73,74
 663 1285 663 1285 664 1248 c 1,75,-1
 664 1246 l 1,76,77
 665 1207 665 1207 635 1197.5 c 128,-1,78
 605 1188 605 1188 586 1182 c 1,79,80
 592 925 592 925 592 835 c 2,81,-1
 592 800 l 1,82,-1
 589 709 l 1,0,1
EndSplineSet
Validated: 1
EndChar

StartChar: L
Encoding: 76 76 43
Width: 1450
VWidth: 1894
Flags: W
HStem: -30 194<74.9802 260.559> -12 178<647 966.201> 36 187<832.745 1124.12>
VStem: 237 378<603.309 1158.25> 261 386<166 593.483>
LayerCount: 2
Fore
SplineSet
210 -30 m 0,0,1
 58 -30 58 -30 57 66 c 1,2,-1
 57 68 l 2,3,4
 57 164 57 164 224 164 c 2,5,-1
 261 164 l 1,6,-1
 237 883 l 1,7,-1
 232 1148 l 1,8,9
 147 1166 147 1166 102 1204 c 1,10,-1
 82 1239 l 1,11,-1
 82 1250 l 1,12,-1
 106 1308 l 1,13,-1
 116 1308 l 1,14,15
 172 1349 172 1349 273 1349 c 2,16,-1
 278 1349 l 1,17,-1
 535 1348 l 1,18,19
 636 1346 636 1346 677.5 1316.5 c 128,-1,20
 719 1287 719 1287 719 1266 c 128,-1,21
 719 1245 719 1245 615 1168 c 1,22,23
 643 648 643 648 647 166 c 1,24,-1
 774 175 l 1,25,26
 850 175 850 175 951.5 199 c 128,-1,27
 1053 223 1053 223 1100 223 c 128,-1,28
 1147 223 1147 223 1152 224 c 0,29,30
 1158 225 1158 225 1160 230.5 c 128,-1,31
 1162 236 1162 236 1164 239 c 128,-1,32
 1166 242 1166 242 1168 245.5 c 128,-1,33
 1170 249 1170 249 1173 252.5 c 128,-1,34
 1176 256 1176 256 1179.5 259.5 c 128,-1,35
 1183 263 1183 263 1187 267 c 0,36,37
 1240 321 1240 321 1283 321 c 128,-1,38
 1326 321 1326 321 1360.5 281 c 128,-1,39
 1395 241 1395 241 1395 186.5 c 128,-1,40
 1395 132 1395 132 1325 66 c 1,41,-1
 1238 -12 l 1,42,-1
 1194 -20 l 1,43,-1
 1166 -20 l 1,44,45
 1118 -13 1118 -13 1094.5 11.5 c 128,-1,46
 1071 36 1071 36 1014.5 36 c 128,-1,47
 958 36 958 36 887 17 c 128,-1,48
 816 -2 816 -2 564 -12 c 128,-1,49
 312 -22 312 -22 272.5 -26 c 128,-1,50
 233 -30 233 -30 210 -30 c 0,0,1
EndSplineSet
Validated: 1
EndChar

StartChar: M
Encoding: 77 77 44
Width: 2006
VWidth: 1894
Flags: W
HStem: 586 257<1023.25 1212.77> 1325 20G<25.4615 124 1833 1901>
VStem: 227 380<137.121 793.269> 1392 390<202.226 807.877>
LayerCount: 2
Fore
SplineSet
542 -38 m 1,0,-1
 327 -32 l 1,1,-1
 212 -32 l 2,2,3
 143 -32 143 -32 111 -6 c 128,-1,4
 79 20 79 20 79 45 c 2,5,-1
 79 52 l 1,6,-1
 105 92 l 1,7,8
 143 125 143 125 189.5 139.5 c 128,-1,9
 236 154 236 154 239 165 c 1,10,-1
 227 456 l 1,11,-1
 229 692 l 1,12,-1
 226 764 l 1,13,-1
 210 977 l 1,14,-1
 191 1082 l 1,15,16
 191 1090 191 1090 135 1124 c 0,17,18
 21 1193 21 1193 21 1260 c 2,19,-1
 21 1267 l 1,20,-1
 27 1345 l 1,21,-1
 124 1334 l 1,22,23
 426 1324 426 1324 1047 847 c 1,24,25
 1076 843 1076 843 1127 843 c 0,26,27
 1188 843 1188 843 1218 895 c 0,28,29
 1283 1007 1283 1007 1304 1030.5 c 128,-1,30
 1325 1054 1325 1054 1343 1078 c 0,31,32
 1379 1126 1379 1126 1390 1151.5 c 128,-1,33
 1401 1177 1401 1177 1414.5 1195 c 128,-1,34
 1428 1213 1428 1213 1448 1234 c 0,35,36
 1533 1322 1533 1322 1551.5 1328 c 128,-1,37
 1570 1334 1570 1334 1575.5 1335 c 128,-1,38
 1581 1336 1581 1336 1586.5 1337 c 128,-1,39
 1592 1338 1592 1338 1600 1338 c 0,40,41
 1612 1339 1612 1339 1637 1341 c 0,42,43
 1692 1344 1692 1344 1745.5 1352 c 128,-1,44
 1799 1360 1799 1360 1867 1360 c 128,-1,45
 1935 1360 1935 1360 1935 1318 c 0,46,47
 1935 1283 1935 1283 1891.5 1242 c 128,-1,48
 1848 1201 1848 1201 1834 1166.5 c 128,-1,49
 1820 1132 1820 1132 1806 1071 c 0,50,51
 1782 969 1782 969 1782 719.5 c 128,-1,52
 1782 470 1782 470 1802 349 c 1,53,-1
 1790 265 l 1,54,55
 1791 210 1791 210 1840 192 c 0,56,57
 1952 151 1952 151 1952 100 c 0,58,59
 1952 -24 1952 -24 1815 -24 c 0,60,61
 1786 -24 1786 -24 1757 -9 c 1,62,63
 1734 -20 1734 -20 1696.5 -20 c 128,-1,64
 1659 -20 1659 -20 1642 2 c 1,65,66
 1606 -1 1606 -1 1566 -13 c 0,67,68
 1531 -24 1531 -24 1380 -34 c 1,69,70
 1328 2 1328 2 1328 25 c 2,71,-1
 1328 30 l 1,72,-1
 1329 31 l 1,73,74
 1339 88 1339 88 1377 103 c 128,-1,75
 1415 118 1415 118 1432 127 c 1,76,77
 1403 471 1403 471 1392 813 c 1,78,79
 1369 789 1369 789 1326.5 744 c 128,-1,80
 1284 699 1284 699 1268 677 c 128,-1,81
 1252 655 1252 655 1244.5 647 c 128,-1,82
 1237 639 1237 639 1230 631 c 0,83,84
 1181 586 1181 586 1107 586 c 128,-1,85
 1033 586 1033 586 1018 596 c 0,86,87
 811 732 811 732 603 869 c 1,88,89
 607 713 607 713 607 546 c 2,90,-1
 607 502 l 2,91,92
 607 305 607 305 601 90 c 1,93,94
 647 56 647 56 647 16 c 0,95,96
 647 15 647 15 647 14 c 2,97,-1
 647 -7 l 1,98,-1
 542 -38 l 1,0,-1
EndSplineSet
Validated: 1
EndChar

StartChar: N
Encoding: 78 78 45
Width: 1634
VWidth: 1894
Flags: W
HStem: -33 187<88.3867 200.35> 1338 20G<1377.5 1499.5>
VStem: 1171 451<1152.53 1300.08>
LayerCount: 2
Fore
SplineSet
430 -20 m 1,0,-1
 177 -33 l 1,1,2
 105 -33 105 -33 76 26 c 0,3,4
 68 41 68 41 67 74 c 0,5,6
 67 120 67 120 195 154 c 1,7,8
 207 220 207 220 214 483 c 1,9,-1
 223 936 l 1,10,11
 222 1069 222 1069 215 1086 c 128,-1,12
 208 1103 208 1103 168.5 1118 c 128,-1,13
 129 1133 129 1133 114 1140 c 0,14,15
 82 1154 82 1154 65 1169.5 c 128,-1,16
 48 1185 48 1185 45 1228 c 1,17,-1
 31 1311 l 1,18,-1
 469 1303 l 1,19,20
 505 1273 505 1273 764 978 c 128,-1,21
 1023 683 1023 683 1067.5 629.5 c 128,-1,22
 1112 576 1112 576 1127.5 557.5 c 128,-1,23
 1143 539 1143 539 1153 527 c 128,-1,24
 1163 515 1163 515 1175 499 c 0,25,26
 1192 477 1192 477 1197 457 c 1,27,28
 1226 609 1226 609 1251 1129 c 1,29,30
 1171 1175 1171 1175 1171 1221 c 128,-1,31
 1171 1267 1171 1267 1199.5 1288.5 c 128,-1,32
 1228 1310 1228 1310 1245 1318 c 0,33,34
 1285 1337 1285 1337 1470 1358 c 1,35,-1
 1471 1358 l 2,36,37
 1528 1358 1528 1358 1575 1325 c 128,-1,38
 1622 1292 1622 1292 1622 1259 c 2,39,-1
 1622 1211 l 2,40,41
 1622 1161 1622 1161 1576.5 1145.5 c 128,-1,42
 1531 1130 1531 1130 1524 1120 c 0,43,44
 1453 1020 1453 1020 1443 418 c 1,45,-1
 1431 25 l 1,46,-1
 1376 -15 l 1,47,48
 1325 -56 1325 -56 1267 -56 c 2,49,-1
 1265 -56 l 2,50,51
 1203 -56 1203 -56 1175 -28.5 c 128,-1,52
 1147 -1 1147 -1 1115 29 c 0,53,54
 1062 78 1062 78 1021 153 c 1,55,-1
 586 664 l 1,56,57
 534 346 534 346 531 130 c 1,58,-1
 577 136 l 1,59,-1
 577 118 l 1,60,61
 621 84 621 84 621 44 c 2,62,-1
 621 41 l 1,63,-1
 606 9 l 1,64,65
 591 -9 591 -9 585 -17 c 1,66,67
 552 -25 552 -25 548 -25 c 2,68,-1
 430 -20 l 1,0,-1
EndSplineSet
Validated: 1
EndChar

StartChar: O
Encoding: 79 79 46
Width: 1551
VWidth: 1894
Flags: W
HStem: 1228 164<645.001 963.793>
VStem: 48 376<326.031 920.974> 1138 354<442.301 991.602>
LayerCount: 2
Fore
SplineSet
1041 253 m 0,0,1
 1138 408 1138 408 1138 755 c 0,2,3
 1138 759 1138 759 1138 762 c 0,4,5
 1138 889 1138 889 1126 1041 c 1,6,7
 1082 1133 1082 1133 960 1186 c 0,8,9
 890 1216 890 1216 877.5 1222 c 128,-1,10
 865 1228 865 1228 808.5 1228 c 128,-1,11
 752 1228 752 1228 636 1182 c 1,12,13
 568 1119 568 1119 522 1045 c 0,14,15
 424 888 424 888 424 536 c 0,16,17
 424 411 424 411 436 260 c 1,18,19
 548 119 548 119 816 102 c 0,20,21
 823 102 823 102 829 102 c 2,22,-1
 883 109 l 1,23,24
 922 130 922 130 962 150 c 1,25,26
 1003 191 1003 191 1041 253 c 0,0,1
657 -20 m 1,27,-1
 477 19 l 1,28,29
 282 73 282 73 211 149 c 0,30,31
 83 285 83 285 60 439 c 1,32,-1
 48 572 l 1,33,-1
 48 573 l 2,34,35
 48 634 48 634 62.5 766.5 c 128,-1,36
 77 899 77 899 90.5 937 c 128,-1,37
 104 975 104 975 113 999 c 0,38,39
 187 1184 187 1184 214 1218 c 0,40,41
 256 1272 256 1272 367.5 1332 c 128,-1,42
 479 1392 479 1392 716 1400 c 1,43,-1
 870 1392 l 1,44,-1
 871 1392 l 1,45,46
 1074 1365 1074 1365 1175 1308.5 c 128,-1,47
 1276 1252 1276 1252 1334.5 1191.5 c 128,-1,48
 1393 1131 1393 1131 1437.5 1018.5 c 128,-1,49
 1482 906 1482 906 1487 872 c 128,-1,50
 1492 838 1492 838 1492 791.5 c 128,-1,51
 1492 745 1492 745 1482.5 602 c 128,-1,52
 1473 459 1473 459 1371.5 270 c 128,-1,53
 1270 81 1270 81 1089 17 c 1,54,55
 1020 -10 1020 -10 963 -27 c 1,56,-1
 859 -42 l 1,57,-1
 657 -20 l 1,27,-1
EndSplineSet
Validated: 1
EndChar

StartChar: P
Encoding: 80 80 47
Width: 1367
VWidth: 1894
Flags: W
HStem: 310 154<636.031 783.691> 1185 161<577 813.696>
VStem: 178 399<499.844 1106.74> 958 362<694.024 1098.22>
LayerCount: 2
Fore
SplineSet
743 310 m 1,0,-1
 549 336 l 1,1,-1
 526 336 l 1,2,3
 518 246 518 246 510 156 c 1,4,5
 519 152 519 152 541.5 143.5 c 128,-1,6
 564 135 564 135 576 118 c 0,7,8
 596 89 596 89 596 71 c 0,9,10
 596 41 596 41 558.5 26.5 c 128,-1,11
 521 12 521 12 378 0 c 128,-1,12
 235 -12 235 -12 161.5 -12 c 128,-1,13
 88 -12 88 -12 57 27 c 1,14,-1
 52 31 l 1,15,-1
 43 59 l 1,16,-1
 43 63 l 2,17,18
 43 103 43 103 130 162 c 1,19,20
 178 771 178 771 178 904 c 128,-1,21
 178 1037 178 1037 163 1109 c 1,22,-1
 137 1107 l 1,23,-1
 59 1122 l 1,24,25
 7 1141 7 1141 7 1187 c 2,26,-1
 7 1188 l 2,27,28
 7 1281 7 1281 211 1319 c 0,29,30
 260 1328 260 1328 305 1328 c 1,31,-1
 526 1346 l 1,32,33
 601 1346 601 1346 791 1325 c 0,34,35
 1159 1284 1159 1284 1260 1124 c 0,36,37
 1313 1041 1313 1041 1316.5 1002 c 128,-1,38
 1320 963 1320 963 1320 941.5 c 128,-1,39
 1320 920 1320 920 1319 908 c 128,-1,40
 1318 896 1318 896 1315.5 880 c 128,-1,41
 1313 864 1313 864 1309 844 c 0,42,43
 1273 648 1273 648 1235 588 c 0,44,45
 1143 443 1143 443 1067 388 c 0,46,47
 1039 368 1039 368 925 340 c 128,-1,48
 811 312 811 312 757 310 c 1,49,-1
 743 310 l 1,0,-1
538 489 m 1,50,51
 653 464 653 464 704 464 c 2,52,-1
 717 464 l 1,53,54
 743 466 743 466 785 483 c 1,55,56
 958 696 958 696 958 900 c 0,57,58
 958 1023 958 1023 895 1148 c 1,59,60
 878 1153 878 1153 865.5 1156 c 128,-1,61
 853 1159 853 1159 846.5 1160.5 c 128,-1,62
 840 1162 840 1162 835.5 1163.5 c 128,-1,63
 831 1165 831 1165 827 1166 c 0,64,65
 820 1169 820 1169 814 1174 c 0,66,67
 806 1182 806 1182 577 1185 c 1,68,69
 562 836 562 836 538 489 c 1,50,51
EndSplineSet
Validated: 1
EndChar

StartChar: Q
Encoding: 81 81 48
Width: 1503
VWidth: 1894
Flags: W
HStem: -22 186<466.498 657.178> -18 312<684.21 962.62> 1216 168<706.406 879.086>
VStem: 43 372<291.126 785.352> 1077 369<403.522 685 689 922.854>
LayerCount: 2
Fore
SplineSet
1222 -22 m 1,0,-1
 1306 -22 l 2,1,2
 1405 -22 1405 -22 1405 -90 c 2,3,-1
 1405 -93 l 1,4,-1
 1388 -155 l 1,5,6
 1365 -202 1365 -202 1302.5 -245 c 128,-1,7
 1240 -288 1240 -288 1194.5 -288 c 128,-1,8
 1149 -288 1149 -288 1131 -284 c 0,9,10
 1092 -276 1092 -276 1066 -247 c 128,-1,11
 1040 -218 1040 -218 1006.5 -129 c 128,-1,12
 973 -40 973 -40 963 -21 c 1,13,14
 951 -18 951 -18 919 -18 c 2,15,-1
 772 -22 l 1,16,17
 451 -22 451 -22 256 91 c 0,18,19
 183 133 183 133 120 234.5 c 128,-1,20
 57 336 57 336 53 385.5 c 128,-1,21
 49 435 49 435 47.5 450.5 c 128,-1,22
 46 466 46 466 45.5 481 c 128,-1,23
 45 496 45 496 44 510 c 0,24,25
 43 538 43 538 43 582 c 0,26,27
 43 639 43 639 104 849 c 0,28,29
 234 1294 234 1294 366 1355 c 0,30,31
 429 1384 429 1384 564.5 1384 c 128,-1,32
 700 1384 700 1384 732 1373 c 128,-1,33
 764 1362 764 1362 774.5 1359 c 128,-1,34
 785 1356 785 1356 797 1353 c 128,-1,35
 809 1350 809 1350 821 1348 c 0,36,37
 846 1343 846 1343 872 1340 c 128,-1,38
 898 1337 898 1337 924 1330 c 0,39,40
 975 1316 975 1316 1015.5 1292.5 c 128,-1,41
 1056 1269 1056 1269 1077 1258 c 0,42,43
 1118 1236 1118 1236 1129.5 1232 c 128,-1,44
 1141 1228 1141 1228 1148 1225 c 128,-1,45
 1155 1222 1155 1222 1160 1218 c 0,46,47
 1168 1213 1168 1213 1244 1140 c 1,48,49
 1425 961 1425 961 1446 769 c 1,50,51
 1432 435 1432 435 1390 350 c 0,52,53
 1360 288 1360 288 1295.5 196.5 c 128,-1,54
 1231 105 1231 105 1222.5 98 c 128,-1,55
 1214 91 1214 91 1214 73 c 1,56,-1
 1222 -22 l 1,0,-1
1079 685 m 1,57,-1
 1077 689 l 1,58,-1
 1077 694 l 2,59,60
 1077 864 1077 864 1010 1039 c 1,61,62
 916 1153 916 1153 863.5 1184.5 c 128,-1,63
 811 1216 811 1216 797 1216 c 2,64,-1
 795 1216 l 1,65,66
 750 1212 750 1212 705 1207 c 1,67,68
 604 1141 604 1141 531 1036 c 0,69,70
 415 870 415 870 415 473 c 0,71,72
 415 288 415 288 436 244.5 c 128,-1,73
 457 201 457 201 504 188 c 0,74,75
 594 164 594 164 619 164 c 2,76,-1
 621 164 l 1,77,-1
 649 165 l 1,78,79
 656 168 656 168 656 178 c 2,80,-1
 656 194 l 2,81,82
 656 294 656 294 849 294 c 0,83,84
 908 294 908 294 924 281 c 0,85,86
 948 261 948 261 964 253 c 1,87,88
 1047 411 1047 411 1063 506.5 c 128,-1,89
 1079 602 1079 602 1079 685 c 1,57,-1
EndSplineSet
Validated: 1
EndChar

StartChar: R
Encoding: 82 82 49
Width: 1421
VWidth: 1894
Flags: W
HStem: 1154 186<613.836 888.611>
VStem: 210 413<398.72 1044.11> 210 367<155 293 387 1035.22> 944 420<735.375 1087.28>
LayerCount: 2
Fore
SplineSet
690 1154 m 2,0,1
 638 1154 638 1154 612 1142 c 1,2,-1
 610 1142 l 1,3,4
 605 762 605 762 583 387 c 1,5,-1
 587 387 l 1,6,-1
 760 456 l 1,7,8
 943 682 943 682 944 900 c 2,9,-1
 944 902 l 2,10,11
 944 1023 944 1023 869 1144 c 1,12,13
 750 1154 750 1154 695 1154 c 2,14,-1
 690 1154 l 2,0,1
535 -36 m 1,15,16
 513 -26 513 -26 478 -6 c 1,17,-1
 474 -6 l 1,18,-1
 406 0 l 1,19,20
 372 0 372 0 349 -12 c 0,21,22
 307 -32 307 -32 263 -32 c 2,23,-1
 232 -32 l 2,24,25
 115 -32 115 -32 108 51 c 1,26,-1
 108 58 l 1,27,28
 121 109 121 109 155.5 131.5 c 128,-1,29
 190 154 190 154 197 205 c 0,30,31
 210 292 210 292 210 398 c 1,32,-1
 200 979 l 1,33,34
 200 979 200 979 200 980 c 0,35,36
 200 985 200 985 188 1046 c 1,37,38
 147 1023 147 1023 124 1023 c 0,39,40
 124 1023 124 1023 122 1024 c 0,41,42
 98 1024 98 1024 59.5 1053.5 c 128,-1,43
 21 1083 21 1083 21 1123 c 0,44,45
 21 1208 21 1208 138 1252 c 0,46,47
 211 1280 211 1280 369 1309 c 0,48,49
 538 1340 538 1340 675.5 1340 c 128,-1,50
 813 1340 813 1340 901 1329.5 c 128,-1,51
 989 1319 989 1319 1005.5 1317 c 128,-1,52
 1022 1315 1022 1315 1037 1312.5 c 128,-1,53
 1052 1310 1052 1310 1066 1308 c 0,54,55
 1147 1294 1147 1294 1193 1271.5 c 128,-1,56
 1239 1249 1239 1249 1286 1184 c 0,57,58
 1364 1076 1364 1076 1364 981.5 c 128,-1,59
 1364 887 1364 887 1323 744 c 0,60,61
 1279 589 1279 589 1219 529 c 128,-1,62
 1159 469 1159 469 1098 440 c 128,-1,63
 1037 411 1037 411 1016 401 c 0,64,65
 975 381 975 381 954 369 c 1,66,67
 1025 296 1025 296 1058 280 c 0,68,69
 1119 250 1119 250 1175.5 191.5 c 128,-1,70
 1232 133 1232 133 1279.5 124.5 c 128,-1,71
 1327 116 1327 116 1336.5 104 c 128,-1,72
 1346 92 1346 92 1348.5 85.5 c 128,-1,73
 1351 79 1351 79 1353 70 c 0,74,75
 1356 54 1356 54 1356 18 c 0,76,77
 1356 -49 1356 -49 1308 -55 c 0,78,79
 1283 -59 1283 -59 1260 -59 c 0,80,81
 1218 -59 1218 -59 1179 -48 c 0,82,83
 1118 -30 1118 -30 986 -30 c 128,-1,84
 854 -30 854 -30 854 46 c 2,85,-1
 854 50 l 1,86,-1
 856 57 l 1,87,-1
 829 142 l 1,88,-1
 829 148 l 2,89,90
 829 180 829 180 684 275 c 0,91,92
 649 298 649 298 615 298 c 1,93,-1
 577 293 l 1,94,-1
 570 155 l 1,95,-1
 592 120 l 1,96,97
 623 94 623 94 623 79 c 2,98,-1
 623 65 l 1,99,-1
 594 -3 l 1,100,101
 591 -6 591 -6 589.5 -8 c 128,-1,102
 588 -10 588 -10 587 -11 c 0,103,104
 575 -29 575 -29 559 -34 c 1,105,-1
 535 -36 l 1,15,16
EndSplineSet
Validated: 1
EndChar

StartChar: S
Encoding: 83 83 50
Width: 1417
VWidth: 1894
Flags: W
HStem: 44 278<116.284 169 174 296.98> 962 396<963 1150.95> 1183 211<655.829 959.793>
VStem: 94 364<836.109 1064.27> 999 362<275.406 508.689>
LayerCount: 2
Fore
SplineSet
144 44 m 2,0,1
 38 44 38 44 38 131 c 2,2,-1
 38 134 l 2,3,4
 38 178 38 178 79 243 c 1,5,6
 99 259 99 259 119.5 283.5 c 128,-1,7
 140 308 140 308 164 320 c 1,8,-1
 169 320 l 1,9,-1
 174 322 l 1,10,-1
 183 322 l 2,11,12
 225 322 225 322 306 272.5 c 128,-1,13
 387 223 387 223 517.5 187.5 c 128,-1,14
 648 152 648 152 716 145 c 1,15,16
 998 228 998 228 999 385 c 2,17,-1
 999 386 l 2,18,19
 999 453 999 453 952 535 c 1,20,21
 888 573 888 573 838.5 579 c 128,-1,22
 789 585 789 585 756 588 c 0,23,24
 690 594 690 594 572.5 603 c 128,-1,25
 455 612 455 612 407 620 c 0,26,27
 280 640 280 640 164 781 c 1,28,-1
 107 874 l 1,29,30
 94 905 94 905 94 986.5 c 128,-1,31
 94 1068 94 1068 115 1106.5 c 128,-1,32
 136 1145 136 1145 151 1165 c 0,33,34
 181 1204 181 1204 243 1253.5 c 128,-1,35
 305 1303 305 1303 335 1315 c 1,36,-1
 402 1326 l 1,37,-1
 416 1324 l 1,38,-1
 420 1324 l 1,39,-1
 585 1375 l 1,40,41
 658 1394 658 1394 745 1394 c 128,-1,42
 832 1394 832 1394 935 1372 c 128,-1,43
 1038 1350 1038 1350 1092 1350 c 1,44,-1
 1203 1358 l 1,45,-1
 1204 1358 l 2,46,47
 1328 1358 1328 1358 1328 1288 c 2,48,-1
 1328 1287 l 2,49,50
 1328 1225 1328 1225 1256.5 1129.5 c 128,-1,51
 1185 1034 1185 1034 1141 998 c 128,-1,52
 1097 962 1097 962 1052 962 c 0,53,54
 955 962 955 962 954 1044 c 1,55,-1
 962 1138 l 1,56,-1
 961 1145 l 1,57,58
 923 1182 923 1182 807 1183 c 2,59,-1
 773 1183 l 2,60,61
 681 1183 681 1183 655 1179 c 1,62,63
 458 1075 458 1075 458 956 c 2,64,-1
 458 955 l 2,65,66
 458 891 458 891 515 818 c 1,67,68
 602 799 602 799 774.5 786.5 c 128,-1,69
 947 774 947 774 1025 751 c 0,70,71
 1194 703 1194 703 1299 539 c 0,72,73
 1351 454 1351 454 1356 413.5 c 128,-1,74
 1361 373 1361 373 1361 345 c 0,75,76
 1361 214 1361 214 1216 83 c 0,77,78
 1135 10 1135 10 1081.5 -5 c 128,-1,79
 1028 -20 1028 -20 860 -20 c 128,-1,80
 692 -20 692 -20 525 17 c 128,-1,81
 358 54 358 54 285 54 c 1,82,-1
 147 44 l 1,83,-1
 144 44 l 2,0,1
EndSplineSet
Validated: 1
EndChar

StartChar: T
Encoding: 84 84 51
Width: 1632
VWidth: 1894
Flags: W
HStem: 5 165<1014 1090.59> 974 371<1385.97 1535.66> 1119 190<271.257 612.988> 1148 202<1036.66 1288.83>
VStem: 596 418<341.4 916.628> 608 427<436.6 1071> 1354 249<1046.87 1168>
LayerCount: 2
Fore
SplineSet
134 915 m 1,0,1
 19 926 19 926 19 1112 c 0,2,3
 19 1221 19 1221 34 1256 c 1,4,-1
 34 1259 l 1,5,-1
 73 1309 l 1,6,-1
 369 1309 l 2,7,8
 687 1309 687 1309 826 1321.5 c 128,-1,9
 965 1334 965 1334 975 1337 c 0,10,11
 1000 1347 1000 1347 1109 1350 c 1,12,-1
 1510 1345 l 1,13,14
 1603 1338 1603 1338 1603 1246 c 0,15,16
 1603 1049 1603 1049 1501 990 c 0,17,18
 1474 974 1474 974 1445 974 c 128,-1,19
 1416 974 1416 974 1385 998.5 c 128,-1,20
 1354 1023 1354 1023 1354 1072 c 1,21,-1
 1350 1168 l 1,22,-1
 1134 1150 l 1,23,-1
 1035 1148 l 1,24,25
 1035 653 1035 653 1014 170 c 1,26,-1
 1016 170 l 1,27,28
 1071 149 1071 149 1099 117 c 1,29,-1
 1122 66 l 1,30,-1
 1122 62 l 2,31,32
 1122 18 1122 18 1054 5 c 1,33,-1
 551 -4 l 1,34,35
 525 5 525 5 504 18 c 1,36,-1
 458 62 l 1,37,-1
 458 80 l 1,38,-1
 479 123 l 1,39,40
 487 130 487 130 498.5 138.5 c 128,-1,41
 510 147 510 147 514 150 c 0,42,43
 532 164 532 164 555 171 c 0,44,45
 590 182 590 182 595.5 186.5 c 128,-1,46
 601 191 601 191 605.5 208.5 c 128,-1,47
 610 226 610 226 612 235 c 0,48,49
 616 253 616 253 617 270 c 1,50,-1
 596 495 l 1,51,-1
 608 1012 l 1,52,-1
 605 1071 l 1,53,-1
 619 1126 l 1,54,-1
 316 1119 l 1,55,56
 279 1112 279 1112 271 1104 c 0,57,58
 257 1090 257 1090 245 1029.5 c 128,-1,59
 233 969 233 969 213 944 c 1,60,61
 179 916 179 916 142 915 c 2,62,-1
 134 915 l 1,0,1
EndSplineSet
Validated: 1
EndChar

StartChar: U
Encoding: 85 85 52
Width: 1569
VWidth: 1894
Flags: W
HStem: -24 190<604.648 893.577> 1328 20G<279 496 1350.75 1376.25>
VStem: 1093 364<800.05 1136.65>
LayerCount: 2
Fore
SplineSet
143 588 m 1,0,-1
 176 985 l 1,1,2
 165 1090 165 1090 161 1099 c 0,3,4
 155 1111 155 1111 131 1121 c 128,-1,5
 107 1131 107 1131 96 1136 c 0,6,7
 70 1150 70 1150 52 1185 c 1,8,-1
 31 1185 l 1,9,-1
 53 1256 l 1,10,11
 89 1308 89 1308 279 1330 c 1,12,-1
 473 1348 l 1,13,-1
 491 1348 l 1,14,-1
 496 1344 l 1,15,16
 594 1326 594 1326 611 1218 c 1,17,-1
 599 1170 l 1,18,-1
 548 1156 l 1,19,20
 535 722 535 722 499 294 c 1,21,22
 618 166 618 166 774 166 c 0,23,24
 887 166 887 166 999 321 c 1,25,26
 1035 731 1035 731 1093 1137 c 1,27,28
 968 1138 968 1138 960 1221 c 1,29,-1
 960 1228 l 2,30,31
 960 1306 960 1306 1081 1318 c 0,32,33
 1190 1328 1190 1328 1245 1338 c 0,34,35
 1338 1356 1338 1356 1363.5 1356 c 128,-1,36
 1389 1356 1389 1356 1423.5 1341.5 c 128,-1,37
 1458 1327 1458 1327 1469.5 1322 c 128,-1,38
 1481 1317 1481 1317 1490 1312 c 0,39,40
 1509 1302 1509 1302 1522 1291 c 1,41,-1
 1543 1236 l 1,42,-1
 1535 1184 l 1,43,44
 1519 1153 1519 1153 1491 1149 c 0,45,46
 1457 1144 1457 1144 1457 1131 c 2,47,-1
 1457 1130 l 1,48,-1
 1460 1004 l 1,49,50
 1458 954 1458 954 1406.5 662 c 128,-1,51
 1355 370 1355 370 1280 239 c 0,52,53
 1256 197 1256 197 1175 124 c 0,54,55
 1012 -24 1012 -24 832 -24 c 0,56,57
 646 -24 646 -24 542.5 5 c 128,-1,58
 439 34 439 34 417.5 52.5 c 128,-1,59
 396 71 396 71 338 105.5 c 128,-1,60
 280 140 280 140 249 183 c 0,61,62
 143 332 143 332 143 588 c 1,0,-1
EndSplineSet
Validated: 1
EndChar

StartChar: V
Encoding: 86 86 53
Width: 1631
VWidth: 1894
Flags: W
HStem: -62 1426<569 934> 1132 205.5<91.8403 224.493> 1370 20G<1365.5 1452.5>
LayerCount: 2
Fore
SplineSet
729 1269 m 0,0,1
 729 1250 729 1250 676 1221 c 1,2,3
 799 786 799 786 996 432 c 1,4,5
 1029 514 1029 514 1079.5 667 c 128,-1,6
 1130 820 1130 820 1173 934.5 c 128,-1,7
 1216 1049 1216 1049 1227 1128 c 128,-1,8
 1238 1207 1238 1207 1241 1224.5 c 128,-1,9
 1244 1242 1244 1242 1247 1257.5 c 128,-1,10
 1250 1273 1250 1273 1253.5 1286.5 c 128,-1,11
 1257 1300 1257 1300 1261 1311.5 c 128,-1,12
 1265 1323 1265 1323 1269 1332 c 0,13,14
 1278 1350 1278 1350 1300 1370 c 128,-1,15
 1322 1390 1322 1390 1409 1390 c 128,-1,16
 1496 1390 1496 1390 1556.5 1346.5 c 128,-1,17
 1617 1303 1617 1303 1617 1275 c 0,18,19
 1617 1228 1617 1228 1558 1207 c 0,20,21
 1510 1190 1510 1190 1502 1181.5 c 128,-1,22
 1494 1173 1494 1173 1481.5 1143 c 128,-1,23
 1469 1113 1469 1113 1404.5 961.5 c 128,-1,24
 1340 810 1340 810 1327 768 c 0,25,26
 1233 461 1233 461 1161 308 c 128,-1,27
 1089 155 1089 155 1089 102 c 2,28,-1
 1089 96 l 1,29,30
 1088 -2 1088 -2 971 -52 c 0,31,32
 949 -62 949 -62 934 -62 c 0,33,34
 841 -62 841 -62 791.5 36 c 128,-1,35
 742 134 742 134 681 240 c 0,36,37
 580 416 580 416 563 441 c 0,38,39
 535 483 535 483 504 550 c 128,-1,40
 473 617 473 617 441.5 661 c 128,-1,41
 410 705 410 705 380.5 782 c 128,-1,42
 351 859 351 859 300.5 936 c 128,-1,43
 250 1013 250 1013 240.5 1061 c 128,-1,44
 231 1109 231 1109 225 1126 c 1,45,46
 209 1129 209 1129 162.5 1132 c 128,-1,47
 116 1135 116 1135 77 1166 c 1,48,-1
 16 1217 l 1,49,-1
 68 1273 l 2,50,51
 103 1311 103 1311 190.5 1337.5 c 128,-1,52
 278 1364 278 1364 569 1364 c 0,53,54
 729 1364 729 1364 729 1269 c 0,0,1
EndSplineSet
Validated: 1
EndChar

StartChar: W
Encoding: 87 87 54
Width: 1967
VWidth: 1894
Flags: W
HStem: -28 1373<387 821>
LayerCount: 2
Fore
SplineSet
4 1241 m 0,0,1
 4 1345 4 1345 387 1345 c 0,2,3
 535 1345 535 1345 557 1323.5 c 128,-1,4
 579 1302 579 1302 580 1265 c 1,5,-1
 569 1190 l 1,6,7
 561 1182 561 1182 557 1178 c 1,8,9
 764 725 764 725 899 439 c 1,10,11
 903 462 903 462 906 492 c 0,12,13
 916 591 916 591 945.5 608.5 c 128,-1,14
 975 626 975 626 1013.5 633.5 c 128,-1,15
 1052 641 1052 641 1087.5 654 c 128,-1,16
 1123 667 1123 667 1143 670 c 1,17,-1
 1148 674 l 1,18,-1
 1164 674 l 2,19,20
 1195 674 1195 674 1227.5 653.5 c 128,-1,21
 1260 633 1260 633 1260 584 c 2,22,-1
 1260 583 l 1,23,-1
 1249 461 l 1,24,25
 1253 407 1253 407 1277 407 c 0,26,27
 1279 407 1279 407 1280 407 c 1,28,-1
 1505 1187 l 1,29,30
 1445 1207 1445 1207 1444 1243 c 1,31,-1
 1448 1267 l 1,32,33
 1463 1299 1463 1299 1554 1305 c 2,34,-1
 1813 1320 l 1,35,-1
 1826 1320 l 1,36,-1
 1892 1302 l 1,37,-1
 1895 1304 l 1,38,39
 1949 1279 1949 1279 1949 1241 c 128,-1,40
 1949 1203 1949 1203 1888 1059 c 128,-1,41
 1827 915 1827 915 1802 879.5 c 128,-1,42
 1777 844 1777 844 1741 665 c 1,43,44
 1673 475 1673 475 1643.5 341 c 128,-1,45
 1614 207 1614 207 1568 139 c 0,46,47
 1491 27 1491 27 1448 13 c 1,48,-1
 1446 13 l 1,49,-1
 1381 -1 l 1,50,51
 1258 26 1258 26 1211 109 c 0,52,53
 1138 240 1138 240 1091 268 c 1,54,-1
 1052 232 l 1,55,56
 1029 194 1029 194 1006.5 129 c 128,-1,57
 984 64 984 64 934 11 c 1,58,-1
 929 14 l 1,59,-1
 821 -28 l 1,60,61
 754 -28 754 -28 710 5 c 1,62,63
 654 17 654 17 632 50 c 0,64,65
 589 114 589 114 523 274 c 128,-1,66
 457 434 457 434 397.5 520.5 c 128,-1,67
 338 607 338 607 311 685 c 128,-1,68
 284 763 284 763 253.5 811 c 128,-1,69
 223 859 223 859 180 964 c 128,-1,70
 137 1069 137 1069 137 1107 c 0,71,72
 137 1128 137 1128 70.5 1155 c 128,-1,73
 4 1182 4 1182 4 1241 c 0,0,1
EndSplineSet
Validated: 1
EndChar

StartChar: X
Encoding: 88 88 55
Width: 1444
VWidth: 1894
Flags: W
HStem: 1 185<82.4957 211.431 1218.67 1372.89> 1352 20G<1084 1231>
LayerCount: 2
Fore
SplineSet
1336 1197 m 1,0,1
 1250 1052 1250 1052 909 609 c 1,2,3
 1070 359 1070 359 1126 321.5 c 128,-1,4
 1182 284 1182 284 1198 259.5 c 128,-1,5
 1214 235 1214 235 1221.5 228 c 128,-1,6
 1229 221 1229 221 1238 214 c 0,7,8
 1256 201 1256 201 1297 188.5 c 128,-1,9
 1338 176 1338 176 1376.5 138.5 c 128,-1,10
 1415 101 1415 101 1415 78 c 2,11,-1
 1415 75 l 1,12,13
 1401 25 1401 25 1381 17 c 128,-1,14
 1361 9 1361 9 1338 6 c 0,15,16
 1298 0 1298 0 1189.5 0 c 128,-1,17
 1081 0 1081 0 1037 6.5 c 128,-1,18
 993 13 993 13 956 50 c 1,19,-1
 935 50 l 1,20,-1
 935 86 l 2,21,22
 935 109 935 109 954 127 c 128,-1,23
 973 145 973 145 974 155 c 1,24,25
 965 170 965 170 956.5 179.5 c 128,-1,26
 948 189 948 189 770 450 c 1,27,-1
 574 146 l 1,28,29
 596 136 596 136 608 121 c 1,30,-1
 623 91 l 1,31,-1
 584 39 l 1,32,33
 541 4 541 4 407.5 2.5 c 128,-1,34
 274 1 274 1 222 1 c 2,35,-1
 191 1 l 2,36,37
 113 1 113 1 81.5 20.5 c 128,-1,38
 50 40 50 40 50 87 c 0,39,40
 50 166 50 166 153 186 c 0,41,42
 186 192 186 192 198.5 211 c 128,-1,43
 211 230 211 230 227 255 c 128,-1,44
 243 280 243 280 290 329.5 c 128,-1,45
 337 379 337 379 410 469.5 c 128,-1,46
 483 560 483 560 508 595 c 0,47,48
 556 660 556 660 557 667.5 c 128,-1,49
 558 675 558 675 553 684 c 128,-1,50
 548 693 548 693 539 706 c 0,51,52
 518 737 518 737 458 808.5 c 128,-1,53
 398 880 398 880 351 944.5 c 128,-1,54
 304 1009 304 1009 271 1054 c 0,55,56
 216 1128 216 1128 168.5 1151.5 c 128,-1,57
 121 1175 121 1175 107.5 1188.5 c 128,-1,58
 94 1202 94 1202 89 1211 c 0,59,60
 79 1229 79 1229 79 1261 c 128,-1,61
 79 1293 79 1293 111 1314.5 c 128,-1,62
 143 1336 143 1336 223 1336 c 128,-1,63
 303 1336 303 1336 336 1333 c 0,64,65
 432 1324 432 1324 518 1266 c 0,66,67
 545 1248 545 1248 545 1224 c 2,68,-1
 545 1220 l 1,69,-1
 528 1177 l 1,70,71
 498 1150 498 1150 500 1140 c 0,72,73
 507 1110 507 1110 586 1012.5 c 128,-1,74
 665 915 665 915 706 878 c 1,75,-1
 813 1030 l 1,76,-1
 905 1179 l 1,77,-1
 907 1183 l 1,78,-1
 887 1263 l 1,79,-1
 887 1266 l 1,80,-1
 895 1303 l 1,81,82
 915 1326 915 1326 932.5 1332 c 128,-1,83
 950 1338 950 1338 960 1342 c 0,84,85
 980 1349 980 1349 1010 1360.5 c 128,-1,86
 1040 1372 1040 1372 1128 1372 c 2,87,-1
 1148 1372 l 2,88,89
 1314 1372 1314 1372 1346 1353 c 128,-1,90
 1378 1334 1378 1334 1388 1326 c 0,91,92
 1419 1300 1419 1300 1419 1274.5 c 128,-1,93
 1419 1249 1419 1249 1419 1247 c 0,94,95
 1414 1188 1414 1188 1377 1188 c 2,96,-1
 1375 1188 l 1,97,98
 1356 1194 1356 1194 1336 1197 c 1,0,1
EndSplineSet
Validated: 1
EndChar

StartChar: Y
Encoding: 89 89 56
Width: 1653
VWidth: 1894
Flags: W
HStem: 1144 212<86.7177 277.036>
VStem: 744 360<135.625 578.477>
LayerCount: 2
Fore
SplineSet
626 12 m 1,0,-1
 633 50 l 1,1,2
 633 74 633 74 673 107.5 c 128,-1,3
 713 141 713 141 744 152 c 1,4,-1
 746 221 l 1,5,6
 746 313 746 313 729 432 c 128,-1,7
 712 551 712 551 706.5 564.5 c 128,-1,8
 701 578 701 578 684 601 c 0,9,10
 649 650 649 650 593 714 c 0,11,12
 501 819 501 819 386 964.5 c 128,-1,13
 271 1110 271 1110 240 1144 c 1,14,15
 164 1147 164 1147 126.5 1167.5 c 128,-1,16
 89 1188 89 1188 75 1195 c 0,17,18
 21 1226 21 1226 21 1265 c 128,-1,19
 21 1304 21 1304 101 1318 c 0,20,21
 307 1356 307 1356 362 1356 c 0,22,23
 677 1356 677 1356 677 1265 c 2,24,-1
 677 1264 l 2,25,26
 677 1220 677 1220 629 1200 c 1,27,28
 789 1027 789 1027 942 837 c 1,29,-1
 1065 990 l 1,30,-1
 1065 991 l 1,31,32
 1203 1153 1203 1153 1206 1208 c 1,33,-1
 1202 1241 l 1,34,-1
 1202 1244 l 1,35,36
 1204 1364 1204 1364 1403 1364 c 0,37,38
 1507 1364 1507 1364 1570.5 1318 c 128,-1,39
 1634 1272 1634 1272 1634 1252.5 c 128,-1,40
 1634 1233 1634 1233 1632 1226 c 128,-1,41
 1630 1219 1630 1219 1625 1214 c 0,42,43
 1607 1190 1607 1190 1551.5 1182.5 c 128,-1,44
 1496 1175 1496 1175 1489 1159 c 0,45,46
 1479 1134 1479 1134 1394 1042 c 0,47,48
 1250 887 1250 887 1191 805.5 c 128,-1,49
 1132 724 1132 724 1101 685 c 1,50,51
 1110 646 1110 646 1110 569 c 1,52,-1
 1104 151 l 1,53,54
 1202 125 1202 125 1202 61 c 2,55,-1
 1202 21 l 2,56,57
 1202 9 1202 9 1182 -8 c 1,58,-1
 906 -10 l 1,59,-1
 747 -26 l 1,60,-1
 746 -26 l 2,61,62
 681 -26 681 -26 669 -18.5 c 128,-1,63
 657 -11 657 -11 641.5 -8 c 128,-1,64
 626 -5 626 -5 626 12 c 1,0,-1
EndSplineSet
Validated: 1
EndChar

StartChar: Z
Encoding: 90 90 57
Width: 1438
VWidth: 1894
Flags: W
HStem: -14 358<1204.01 1326.25> 40 212<693.477 1169.98> 1175 127<478.549 624.553> 1336 20G<925.704 1308>
LayerCount: 2
Fore
SplineSet
993 1163 m 1,0,1
 920 1175 920 1175 806 1175 c 0,2,3
 568 1175 568 1175 371 1094 c 1,4,5
 350 1062 350 1062 345 1027 c 0,6,7
 333 957 333 957 253 957 c 0,8,9
 252 957 252 957 251 957 c 2,10,-1
 249 957 l 2,11,12
 217 957 217 957 184 984 c 0,13,14
 130 1030 130 1030 130 1122 c 2,15,-1
 130 1137 l 2,16,17
 130 1237 130 1237 210 1299 c 1,18,-1
 261 1329 l 1,19,20
 368 1302 368 1302 405 1302 c 1,21,-1
 1232 1356 l 1,22,-1
 1233 1356 l 2,23,24
 1383 1356 1383 1356 1419 1271 c 0,25,26
 1424 1259 1424 1259 1424 1244 c 0,27,28
 1424 1227 1424 1227 1362 1207 c 1,29,-1
 1354 1206 l 1,30,31
 1208 919 1208 919 972 670 c 1,32,33
 988 657 988 657 996 640 c 1,34,-1
 1004 640 l 1,35,36
 998 572 998 572 983.5 568 c 128,-1,37
 969 564 969 564 923 563 c 1,38,39
 716 385 716 385 516 199 c 1,40,41
 627 207 627 207 705 207 c 0,42,43
 840 207 840 207 980 229.5 c 128,-1,44
 1120 252 1120 252 1140 252 c 128,-1,45
 1160 252 1160 252 1164 250 c 0,46,47
 1167 248 1167 248 1169 248 c 0,48,-1
 1170 248 l 0,49,50
 1179 256 1179 256 1204 300 c 128,-1,51
 1229 344 1229 344 1286 344 c 0,52,53
 1378 344 1378 344 1378 206 c 0,54,55
 1378 176 1378 176 1355.5 99.5 c 128,-1,56
 1333 23 1333 23 1296 -5 c 1,57,-1
 1262 -14 l 1,58,-1
 1257 -14 l 2,59,60
 1222 -14 1222 -14 1199.5 1 c 128,-1,61
 1177 16 1177 16 1170.5 19.5 c 128,-1,62
 1164 23 1164 23 1158.5 26 c 128,-1,63
 1153 29 1153 29 1148 31 c 0,64,65
 1136 37 1136 37 998 39 c 0,66,67
 979 39 979 39 961 40 c 0,68,69
 848 40 848 40 778 26 c 0,70,71
 661 3 661 3 227 -22 c 1,72,73
 55 -22 55 -22 55 122 c 0,74,75
 55 186 55 186 125 267 c 0,76,77
 219 375 219 375 443 548 c 1,78,-1
 380 600 l 1,79,-1
 374 628 l 1,80,-1
 374 630 l 2,81,82
 374 679 374 679 395 700 c 0,83,84
 420 726 420 726 613 748 c 1,85,86
 628 770 628 770 665 801.5 c 128,-1,87
 702 833 702 833 717 847 c 128,-1,88
 732 861 732 861 748 878.5 c 128,-1,89
 764 896 764 896 782 916 c 0,90,91
 818 957 818 957 891 1048 c 0,92,93
 964 1140 964 1140 993 1163 c 1,0,1
EndSplineSet
Validated: 1
EndChar

StartChar: bracketleft
Encoding: 91 91 58
Width: 585
VWidth: 1894
Flags: W
HStem: -327 181<487.981 746.36> 1394 200<528 737.781>
VStem: 130 355<-165 70.5408> 174 354<750.375 1398>
LayerCount: 2
Fore
SplineSet
597 1394 m 0,0,1
 565 1394 565 1394 528 1398 c 1,2,3
 518 609 518 609 485 -165 c 1,4,5
 581 -146 581 -146 600.5 -146 c 128,-1,6
 620 -146 620 -146 639 -148 c 128,-1,7
 658 -150 658 -150 675 -155 c 0,8,9
 739 -174 739 -174 768.5 -214 c 128,-1,10
 798 -254 798 -254 798 -273 c 128,-1,11
 798 -292 798 -292 782 -305 c 0,12,13
 755 -326 755 -326 681 -327 c 1,14,-1
 130 -328 l 1,15,-1
 150 228 l 1,16,-1
 145 438 l 1,17,-1
 157 830 l 1,18,19
 174 1082 174 1082 174 1444 c 2,20,-1
 174 1466 l 2,21,22
 174 1550 174 1550 311 1582 c 0,23,24
 365 1594 365 1594 533 1594 c 128,-1,25
 701 1594 701 1594 739 1576 c 0,26,27
 776 1558 776 1558 776 1524 c 0,28,29
 776 1523 776 1523 776 1522 c 1,30,-1
 776 1518 l 1,31,32
 767 1394 767 1394 597 1394 c 0,0,1
EndSplineSet
Validated: 1
EndChar

StartChar: backslash
Encoding: 92 92 59
Width: 919
VWidth: 1894
Flags: W
LayerCount: 2
Fore
SplineSet
1109 -47 m 1,0,1
 1102 -168 1102 -168 974 -168 c 0,2,3
 870 -168 870 -168 846 -140.5 c 128,-1,4
 822 -113 822 -113 795.5 -68.5 c 128,-1,5
 769 -24 769 -24 609 222 c 128,-1,6
 449 468 449 468 241.5 812.5 c 128,-1,7
 34 1157 34 1157 -49.5 1257.5 c 128,-1,8
 -133 1358 -133 1358 -133 1410 c 0,9,10
 -133 1481 -133 1481 -44 1506 c 0,11,12
 11 1521 11 1521 40 1521 c 128,-1,13
 69 1521 69 1521 81.5 1520 c 128,-1,14
 94 1519 94 1519 102 1519 c 128,-1,15
 110 1519 110 1519 115.5 1518.5 c 128,-1,16
 121 1518 121 1518 127 1516 c 0,17,18
 138 1513 138 1513 145 1504 c 0,19,20
 1109 7 1109 7 1109 -46 c 0,21,-1
 1109 -47 l 1,0,1
EndSplineSet
Validated: 1
EndChar

StartChar: bracketright
Encoding: 93 93 60
Width: 541
VWidth: 1894
Flags: W
HStem: 1419 199<-72.4617 52> 1419 180<-149.109 50.2415>
VStem: 48 348<-68.7095 944.396> 52 303<-114.145 568.375>
LayerCount: 2
Fore
SplineSet
52 1422 m 1,0,-1
 -22 1419 l 1,1,2
 -82 1419 -82 1419 -138 1456 c 2,3,-1
 -217 1510 l 1,4,5
 -99 1593 -99 1593 -74 1599 c 0,6,7
 -27 1610 -27 1610 305 1618 c 1,8,9
 388 1618 388 1618 403 1554 c 1,10,-1
 413 1460 l 1,11,-1
 382 934 l 1,12,-1
 396 414 l 1,13,14
 394 299 394 299 379 176 c 0,15,16
 355 -30 355 -30 355 -70 c 128,-1,17
 355 -110 355 -110 363 -122 c 1,18,-1
 393 -186 l 1,19,-1
 338 -290 l 1,20,-1
 84 -294 l 1,21,22
 -122 -294 -122 -294 -143 -228 c 1,23,-1
 -145 -207 l 1,24,-1
 -140 -186 l 1,25,-1
 -80 -141 l 1,26,27
 -18 -117 -18 -117 52 -106 c 1,28,29
 48 280 48 280 48 661 c 128,-1,30
 48 1042 48 1042 52 1422 c 1,0,-1
EndSplineSet
Validated: 1
EndChar

StartChar: a
Encoding: 97 97 61
Width: 1106
VWidth: 1894
Flags: W
HStem: 0 161<419.919 601.943> 431 143<400.768 509 565.542 645> 698 180<402.343 685.705>
VStem: 52 294<210.762 381.848>
LayerCount: 2
Fore
SplineSet
645 431 m 1,0,1
 582 438 582 438 565 438 c 2,2,-1
 509 438 l 1,3,-1
 444 426 l 1,4,5
 346 357 346 357 346 295.5 c 128,-1,6
 346 234 346 234 441 168 c 1,7,8
 497 161 497 161 526 161 c 0,9,10
 545 161 545 161 551 165 c 0,11,12
 566 173 566 173 576 182 c 0,13,14
 597 201 597 201 614 215 c 1,15,16
 629 324 629 324 645 431 c 1,0,1
672 574 m 1,17,18
 684 631 684 631 691 680 c 1,19,20
 634 698 634 698 598 698 c 2,21,-1
 546 698 l 1,22,-1
 470 695 l 1,23,24
 430 684 430 684 407 659 c 0,25,26
 332 579 332 579 288 569 c 0,27,28
 243 559 243 559 221 559 c 0,29,30
 162 559 162 559 144 606 c 0,31,32
 140 617 140 617 140 626 c 0,33,34
 140 663 140 663 160 696 c 0,35,36
 180 728 180 728 188 742 c 0,37,38
 201 764 201 764 212.5 773 c 128,-1,39
 224 782 224 782 230 787 c 0,40,41
 339 878 339 878 503 878 c 0,42,43
 740 878 740 878 880 800 c 0,44,45
 916 782 916 782 996 651 c 1,46,-1
 997 649 l 1,47,-1
 1010 547 l 1,48,-1
 981 367 l 1,49,-1
 1001 139 l 2,50,51
 1002 131 1002 131 1015 119 c 1,52,-1
 1054 97 l 1,53,54
 993 11 993 11 973.5 0.5 c 128,-1,55
 954 -10 954 -10 928 -10 c 2,56,-1
 926 -10 l 2,57,58
 873 -10 873 -10 825.5 18.5 c 128,-1,59
 778 47 778 47 773 54 c 128,-1,60
 768 61 768 61 765 65 c 1,61,62
 635 0 635 0 536 0 c 0,63,64
 54 0 54 0 52 259 c 0,65,66
 52 294 52 294 83.5 385 c 128,-1,67
 115 476 115 476 179.5 504.5 c 128,-1,68
 244 533 244 533 589 580 c 1,69,-1
 672 574 l 1,17,18
EndSplineSet
Validated: 1
EndChar

StartChar: b
Encoding: 98 98 62
Width: 1294
VWidth: 1894
Flags: W
HStem: 15 95<559.469 735.495> 723 185<609.812 810.686> 1332 20G<187 389.5>
VStem: 183 334<223.871 644.018 860 1119.85>
LayerCount: 2
Fore
SplineSet
517 177 m 1,0,1
 637 110 637 110 685 110 c 2,2,-1
 689 110 l 1,3,-1
 809 147 l 1,4,-1
 811 148 l 1,5,6
 884 293 884 293 884 425 c 0,7,8
 884 427 884 427 884 429 c 2,9,-1
 884 431 l 2,10,11
 884 564 884 564 812 688 c 1,12,13
 770 722 770 722 723 723 c 2,14,-1
 722 723 l 2,15,16
 671 723 671 723 601.5 673.5 c 128,-1,17
 532 624 532 624 523 613 c 1,18,19
 523 396 523 396 517 177 c 1,0,1
472 73 m 1,20,21
 472 72 472 72 472 71 c 0,22,23
 469 -2 469 -2 287 -8 c 1,24,-1
 285 -10 l 1,25,-1
 268 -10 l 2,26,27
 120 -10 120 -10 120 63 c 2,28,-1
 120 65 l 2,29,30
 120 95 120 95 156.5 128 c 128,-1,31
 193 161 193 161 195 192 c 1,32,-1
 183 274 l 1,33,-1
 176 469 l 1,34,-1
 181 940 l 1,35,36
 181 1085 181 1085 167 1121 c 1,37,38
 55 1192 55 1192 55 1232 c 0,39,40
 57 1308 57 1308 187 1345 c 1,41,-1
 281 1352 l 1,42,-1
 282 1352 l 2,43,44
 497 1352 497 1352 539 1326 c 128,-1,45
 581 1300 581 1300 581 1256 c 2,46,-1
 581 1242 l 1,47,48
 559 1210 559 1210 518 1198 c 1,49,50
 520 1028 520 1028 521 860 c 1,51,52
 640 908 640 908 679 908 c 128,-1,53
 718 908 718 908 733 907 c 0,54,55
 757 906 757 906 882 877 c 128,-1,56
 1007 848 1007 848 1082 781.5 c 128,-1,57
 1157 715 1157 715 1193 591 c 1,58,-1
 1233 422 l 1,59,-1
 1227 418 l 1,60,61
 1203 249 1203 249 1102.5 166 c 128,-1,62
 1002 83 1002 83 882 49 c 128,-1,63
 762 15 762 15 713 15 c 2,64,-1
 673 15 l 2,65,66
 638 16 638 16 472 73 c 1,20,21
EndSplineSet
Validated: 1
EndChar

StartChar: c
Encoding: 99 99 63
Width: 1282
VWidth: 1894
Flags: W
HStem: -26 164<563.278 858.386> 54 270<951.355 1141.84>
VStem: 48 381<257.096 514.254> 906 317<97 267>
LayerCount: 2
Fore
SplineSet
714 882 m 1,0,-1
 925 848 l 1,1,-1
 998 856 l 1,2,-1
 1001 856 l 2,3,4
 1139 856 1139 856 1139 804 c 0,5,6
 1139 760 1139 760 1096.5 698 c 128,-1,7
 1054 636 1054 636 970 625 c 1,8,-1
 965 622 l 1,9,-1
 948 622 l 2,10,11
 900 622 900 622 865.5 656 c 128,-1,12
 831 690 831 690 788 690 c 2,13,-1
 776 690 l 2,14,15
 726 690 726 690 631 668 c 1,16,17
 429 520 429 520 429 384 c 0,18,19
 429 288 429 288 530 192 c 1,20,21
 714 138 714 138 759 138 c 0,22,23
 760 138 760 138 761 138 c 0,24,25
 767 138 767 138 770 139 c 0,26,27
 839 160 839 160 904 217 c 1,28,-1
 910 232 l 1,29,30
 906 247 906 247 906 267 c 128,-1,31
 906 287 906 287 933.5 305.5 c 128,-1,32
 961 324 961 324 1003 324 c 2,33,-1
 1006 324 l 2,34,35
 1156 324 1156 324 1202 188 c 0,36,37
 1223 125 1223 125 1223 97 c 0,38,39
 1223 41 1223 41 1157 41 c 128,-1,40
 1091 41 1091 41 1069 48 c 0,41,42
 1053 53 1053 53 1043 54 c 0,43,44
 1040 54 1040 54 1038 53 c 0,45,46
 1029 50 1029 50 956 12 c 128,-1,47
 883 -26 883 -26 726 -26 c 0,48,49
 459 -26 459 -26 304 45 c 0,50,51
 163 111 163 111 91 223 c 0,52,53
 48 289 48 289 48 328.5 c 128,-1,54
 48 368 48 368 51.5 396 c 128,-1,55
 55 424 55 424 62 450.5 c 128,-1,56
 69 477 69 477 80 502.5 c 128,-1,57
 91 528 91 528 105 552 c 128,-1,58
 119 576 119 576 137 599 c 0,59,60
 172 644 172 644 221 684 c 0,61,62
 399 820 399 820 511 844 c 0,63,64
 693 882 693 882 714 882 c 1,0,-1
EndSplineSet
Validated: 1
EndChar

StartChar: d
Encoding: 100 100 64
Width: 1340
VWidth: 1894
Flags: W
HStem: -32 176<504.984 722.168> 706 183<474.934 767.959> 1343 20G<847 1104>
VStem: 54 337<219.464 562.246> 823 376<869 1215.23>
LayerCount: 2
Fore
SplineSet
825 636 m 1,0,1
 794 649 794 649 732.5 677.5 c 128,-1,2
 671 706 671 706 654 706 c 2,3,-1
 651 706 l 2,4,5
 529 706 529 706 457 651 c 1,6,7
 391 525 391 525 391 413 c 2,8,-1
 391 412 l 2,9,10
 391 302 391 302 442 203 c 1,11,12
 562 144 562 144 608 144 c 2,13,-1
 617 144 l 1,14,15
 630 146 630 146 705 179 c 128,-1,16
 780 212 780 212 836 271 c 1,17,18
 829 454 829 454 825 636 c 1,0,1
720 1279 m 1,19,20
 727 1363 727 1363 967 1363 c 2,21,-1
 1009 1363 l 1,22,23
 1199 1359 1199 1359 1199 1254 c 2,24,-1
 1199 1194 l 1,25,-1
 1185 795 l 1,26,-1
 1211 394 l 1,27,28
 1223 278 1223 278 1225 239 c 0,29,30
 1228 175 1228 175 1257 147.5 c 128,-1,31
 1286 120 1286 120 1286 95 c 2,32,-1
 1286 61 l 1,33,-1
 1271 61 l 1,34,35
 1266 54 1266 54 1255.5 41.5 c 128,-1,36
 1245 29 1245 29 1181 14 c 1,37,-1
 1036 0 l 1,38,-1
 1026 8 l 1,39,40
 960 35 960 35 942 111 c 1,41,42
 721 -29 721 -29 591 -32 c 1,43,-1
 387 2 l 1,44,-1
 242 61 l 1,45,46
 122 105 122 105 54 323 c 1,47,-1
 57 431 l 1,48,49
 74 604 74 604 278 771 c 0,50,51
 346 826 346 826 493 855 c 0,52,53
 643 885 643 885 725 889 c 1,54,-1
 730 889 l 2,55,56
 763 889 763 889 823 869 c 1,57,-1
 823 1198 l 1,58,59
 720 1235 720 1235 720 1270 c 2,60,-1
 720 1279 l 1,19,20
EndSplineSet
Validated: 1
EndChar

StartChar: e
Encoding: 101 101 65
Width: 1159
VWidth: 1894
Flags: W
HStem: -17 181<525.973 739.536> 403 142<448.229 668.474> 736 166<471.26 591.374>
VStem: 685 415<477.359 658.086>
LayerCount: 2
Fore
SplineSet
444 542 m 1,0,1
 490 545 490 545 498 545 c 128,-1,2
 506 545 506 545 513 545.5 c 128,-1,3
 520 546 520 546 530 546 c 0,4,5
 590 550 590 550 671 563 c 1,6,7
 685 586 685 586 685 604 c 128,-1,8
 685 622 685 622 679 637.5 c 128,-1,9
 673 653 673 653 662 669 c 0,10,11
 639 702 639 702 592 737 c 1,12,13
 572 739 572 739 548 744 c 0,14,15
 541 746 541 746 534 746 c 0,16,17
 517 746 517 746 500 736 c 1,18,-1
 499 736 l 1,19,20
 465 704 465 704 456 637.5 c 128,-1,21
 447 571 447 571 444 542 c 1,0,1
1100 495 m 0,22,23
 1100 391 1100 391 931 391 c 0,24,25
 929 391 929 391 926 391 c 1,26,27
 772 403 772 403 687 403 c 0,28,29
 633 403 633 403 606 399 c 0,30,31
 539 386 539 386 515 381.5 c 128,-1,32
 491 377 491 377 474 374 c 128,-1,33
 457 371 457 371 447 369 c 1,34,35
 453 275 453 275 499 185 c 1,36,-1
 584 164 l 1,37,-1
 603 164 l 2,38,39
 726 164 726 164 740 176 c 0,40,41
 771 202 771 202 773 256 c 128,-1,42
 775 310 775 310 818 337 c 1,43,-1
 908 354 l 1,44,-1
 998 338 l 1,45,-1
 1000 336 l 1,46,47
 1095 271 1095 271 1095 200 c 2,48,-1
 1095 198 l 2,49,50
 1095 129 1095 129 1080 103 c 0,51,52
 1065 78 1065 78 1009 66 c 0,53,54
 915 47 915 47 870 28 c 0,55,56
 757 -17 757 -17 621 -17 c 0,57,58
 618 -17 618 -17 615 -17 c 0,59,60
 539 -17 539 -17 455 -4 c 0,61,62
 324 17 324 17 238.5 65.5 c 128,-1,63
 153 114 153 114 121 150 c 1,64,65
 60 273 60 273 60 311 c 2,66,-1
 60 346 l 1,67,68
 72 442 72 442 107 516 c 0,69,70
 235 790 235 790 345.5 846 c 128,-1,71
 456 902 456 902 542.5 902 c 128,-1,72
 629 902 629 902 737 883 c 128,-1,73
 845 864 845 864 881 842.5 c 128,-1,74
 917 821 917 821 1008.5 721.5 c 128,-1,75
 1100 622 1100 622 1100 495 c 0,22,23
EndSplineSet
Validated: 1
EndChar

StartChar: f
Encoding: 102 102 66
Width: 908
VWidth: 1894
Flags: W
HStem: -16 181<82.9209 162.25> 1086 272<612.711 828.456>
VStem: 161 359<157.541 517 691.141 1104.24>
LayerCount: 2
Fore
SplineSet
654 51 m 1,0,1
 650 37 650 37 650 26 c 2,2,-1
 650 25 l 1,3,4
 648 7 648 7 621 5 c 1,5,-1
 624 3 l 1,6,-1
 200 -16 l 1,7,8
 111 -16 111 -16 82 25 c 128,-1,9
 53 66 53 66 53 81 c 0,10,11
 53 104 53 104 84.5 133.5 c 128,-1,12
 116 163 116 163 139 165 c 128,-1,13
 162 167 162 167 162 173 c 2,14,-1
 166 704 l 1,15,16
 161 754 161 754 161 795.5 c 128,-1,17
 161 837 161 837 161 874 c 0,18,19
 162 935 162 935 186 1037 c 0,20,21
 246 1290 246 1290 433 1345 c 1,22,-1
 533 1358 l 1,23,24
 747 1355 747 1355 780 1348.5 c 128,-1,25
 813 1342 813 1342 830 1330 c 128,-1,26
 847 1318 847 1318 855 1308 c 0,27,28
 873 1286 873 1286 873 1266.5 c 128,-1,29
 873 1247 873 1247 870 1233 c 0,30,31
 846 1117 846 1117 785 1100 c 0,32,33
 754 1092 754 1092 710 1086 c 1,34,-1
 703 1086 l 2,35,36
 658 1086 658 1086 587 1153 c 1,37,38
 544 1132 544 1132 516 1109 c 1,39,40
 520 901 520 901 520 697 c 1,41,42
 635 684 635 684 685.5 657 c 128,-1,43
 736 630 736 630 736 574 c 2,44,-1
 736 497 l 1,45,-1
 535 518 l 1,46,-1
 520 517 l 1,47,48
 520 335 520 335 516 155 c 1,49,50
 619 131 619 131 640 89 c 1,51,-1
 646 89 l 1,52,-1
 646 80 l 1,53,54
 654 66 654 66 654 56 c 2,55,-1
 654 51 l 1,0,1
EndSplineSet
Validated: 1
EndChar

StartChar: g
Encoding: 103 103 67
Width: 1455
VWidth: 1894
Flags: W
HStem: -72 197<376.912 464.877> 666 204<640.021 885.871>
VStem: 106 339<383.572 536.651> 1004 338<466.018 613.162>
LayerCount: 2
Fore
SplineSet
887 660 m 1,0,1
 851 665 851 665 798 666 c 1,2,-1
 787 666 l 2,3,4
 734 666 734 666 637 645 c 1,5,6
 445 539 445 539 445 462 c 0,7,8
 445 412 445 412 524 356 c 1,9,10
 566 352 566 352 604 352 c 128,-1,11
 642 352 642 352 660 353 c 0,12,13
 695 355 695 355 729 362.5 c 128,-1,14
 763 370 763 370 848 372 c 1,15,16
 1004 466 1004 466 1004 534 c 128,-1,17
 1004 602 1004 602 887 660 c 1,0,1
660 -167 m 1,18,19
 811 -143 811 -143 811 -87 c 2,20,-1
 811 -84 l 1,21,22
 809 -41 809 -41 675 0 c 1,23,-1
 576 -23 l 1,24,25
 442 -72 442 -72 374 -72 c 128,-1,26
 306 -72 306 -72 221.5 -36.5 c 128,-1,27
 137 -1 137 -1 109.5 31 c 128,-1,28
 82 63 82 63 82 105.5 c 128,-1,29
 82 148 82 148 123.5 186 c 128,-1,30
 165 224 165 224 179 248 c 1,31,32
 170 260 170 260 138 295 c 128,-1,33
 106 330 106 330 106 398 c 128,-1,34
 106 466 106 466 172 575 c 1,35,36
 201 603 201 603 218.5 624.5 c 128,-1,37
 236 646 236 646 245 657 c 0,38,39
 264 679 264 679 279 687 c 128,-1,40
 294 695 294 695 307.5 703.5 c 128,-1,41
 321 712 321 712 332 718.5 c 128,-1,42
 343 725 343 725 352 730.5 c 128,-1,43
 361 736 361 736 368 741 c 0,44,45
 381 750 381 750 386 756 c 0,46,47
 398 770 398 770 489 805 c 0,48,49
 656 869 656 869 772 870 c 0,50,51
 946 872 946 872 963.5 881.5 c 128,-1,52
 981 891 981 891 1014 953 c 1,53,54
 1070 1080 1070 1080 1214 1080 c 0,55,56
 1273 1080 1273 1080 1319 1051 c 0,57,58
 1395 1002 1395 1002 1395 905 c 128,-1,59
 1395 808 1395 808 1325 808 c 0,60,61
 1296 808 1296 808 1237 843 c 1,62,-1
 1224 807 l 1,63,64
 1240 791 1240 791 1291 747.5 c 128,-1,65
 1342 704 1342 704 1342 624 c 2,66,-1
 1342 622 l 2,67,68
 1342 558 1342 558 1300 466 c 0,69,70
 1196 222 1196 222 920 197 c 1,71,72
 1161 112 1161 112 1161 -64 c 0,73,74
 1161 -259 1161 -259 987 -318 c 0,75,76
 900 -348 900 -348 857 -348 c 0,77,78
 752 -348 752 -348 646 -320 c 0,79,80
 453 -270 453 -270 429 -270 c 0,81,82
 333 -270 333 -270 268 -287 c 1,83,84
 255 -312 255 -312 213 -341 c 0,85,86
 141 -392 141 -392 98 -392 c 128,-1,87
 55 -392 55 -392 38 -373.5 c 128,-1,88
 21 -355 21 -355 21 -304.5 c 128,-1,89
 21 -254 21 -254 53 -214 c 0,90,91
 106 -148 106 -148 166.5 -123 c 128,-1,92
 227 -98 227 -98 337 -98 c 128,-1,93
 447 -98 447 -98 501 -106 c 1,94,-1
 502 -106 l 1,95,-1
 659 -167 l 1,96,-1
 660 -167 l 1,18,19
377 128 m 0,97,98
 374 125 374 125 393 125 c 128,-1,99
 412 125 412 125 414 125 c 128,-1,100
 416 125 416 125 418.5 125.5 c 128,-1,101
 421 126 421 126 423.5 126.5 c 128,-1,102
 426 127 426 127 429 127.5 c 128,-1,103
 432 128 432 128 435.5 128.5 c 128,-1,104
 439 129 439 129 442.5 130 c 128,-1,105
 446 131 446 131 450 132 c 0,106,107
 458 134 458 134 466 136 c 1,108,-1
 423 140 l 1,109,-1
 405 140 l 1,110,111
 386 137 386 137 377 128 c 0,97,98
EndSplineSet
Validated: 1
EndChar

StartChar: h
Encoding: 104 104 68
Width: 1184
VWidth: 1894
Flags: W
HStem: 709 199<580.512 748.215> 1349 20G<174 210>
VStem: 60 399<97 572.451> 101 364<97 564.934 848 1171.74> 755 333<96.375 702.727>
LayerCount: 2
Fore
SplineSet
707 92 m 1,0,1
 721 112 721 112 755 128 c 1,2,3
 750 268 750 268 750 407 c 128,-1,4
 750 546 750 546 755 687 c 1,5,6
 723 709 723 709 659.5 709 c 128,-1,7
 596 709 596 709 580 704 c 0,8,9
 550 695 550 695 483 595 c 1,10,-1
 465 539 l 1,11,12
 465 319 465 319 459 97 c 1,13,-1
 479 90 l 1,14,-1
 489 5 l 1,15,16
 473 -20 473 -20 431.5 -22.5 c 128,-1,17
 390 -25 390 -25 332 -25 c 2,18,-1
 292 -25 l 1,19,20
 210 -24 210 -24 193 -24 c 0,21,22
 60 -24 60 -24 60 47 c 0,23,24
 60 71 60 71 76 100 c 0,25,26
 101 147 101 147 101 626 c 128,-1,27
 101 1105 101 1105 74 1174 c 1,28,29
 40 1196 40 1196 40 1225 c 2,30,-1
 40 1245 l 2,31,32
 40 1295 40 1295 77 1322 c 0,33,34
 138 1367 138 1367 210 1369 c 1,35,-1
 210 1368 l 1,36,-1
 226 1368 l 1,37,38
 385 1363 385 1363 456.5 1351.5 c 128,-1,39
 528 1340 528 1340 528 1308 c 2,40,-1
 528 1307 l 1,41,-1
 525 1249 l 1,42,43
 488 1240 488 1240 459 1232 c 1,44,45
 461 1028 461 1028 463 848 c 1,46,47
 539 908 539 908 635 908 c 2,48,-1
 638 908 l 2,49,50
 982 908 982 908 1054 715 c 0,51,52
 1090 619 1090 619 1090 453 c 1,53,-1
 1088 417 l 1,54,-1
 1088 362 l 2,55,56
 1088 228 1088 228 1106 176 c 1,57,-1
 1126 72 l 1,58,-1
 1122 68 l 1,59,60
 1117 -23 1117 -23 1040 -23 c 0,61,62
 808 -23 808 -23 767 -5 c 0,63,64
 703 23 703 23 703 76 c 2,65,-1
 703 84 l 1,66,-1
 707 89 l 1,67,-1
 707 92 l 1,0,1
EndSplineSet
Validated: 1
EndChar

StartChar: k
Encoding: 107 107 71
Width: 1200
VWidth: 1894
Flags: W
HStem: -14 1365<143.456 438.699>
VStem: 113 349<725.179 955.374>
LayerCount: 2
Fore
SplineSet
472 1290 m 2,0,1
 472 1290 472 1290 462 817 c 1,2,-1
 445 457 l 1,3,4
 489 504 489 504 551 566 c 0,5,6
 672 687 672 687 682 776 c 1,7,-1
 680 779 l 1,8,-1
 680 798 l 2,9,10
 680 841 680 841 701 860 c 0,11,12
 722 880 722 880 784 880 c 2,13,-1
 893 880 l 2,14,15
 964 880 964 880 984 857 c 0,16,17
 1005 833 1005 833 1005 800 c 0,18,19
 1005 771 1005 771 988 734 c 8,20,21
 934 614 934 614 748 480 c 1,22,23
 837 411 837 411 998 246 c 0,24,25
 1155 84 1155 84 1156 76 c 1,26,-1
 1156 72 l 2,27,28
 1156 -12 1156 -12 1021 -12 c 0,29,30
 805 -12 805 -12 805 66 c 2,31,-1
 805 70 l 1,32,-1
 813 95 l 1,33,34
 742 129 742 129 639.5 208.5 c 128,-1,35
 537 288 537 288 524 288 c 128,-1,36
 511 288 511 288 505 286 c 128,-1,37
 499 284 499 284 493 279 c 0,38,39
 473 262 473 262 444 200 c 1,40,-1
 493 187 l 1,41,42
 547 170 547 170 547 137 c 1,43,-1
 539 81 l 1,44,45
 539 13 539 13 222 -12 c 0,46,47
 197 -14 197 -14 156 -14 c 128,-1,48
 115 -14 115 -14 85 27 c 128,-1,49
 55 68 55 68 55 84 c 0,50,51
 55 108 55 108 91 134 c 1,52,53
 96 537 96 537 113 935 c 1,54,55
 90 946 90 946 67 956 c 1,56,57
 58 977 58 977 56 1005 c 0,58,59
 56 1010 56 1010 56 1016 c 0,60,61
 56 1069 56 1069 82 1154 c 0,62,-1
 134 1290 l 0,63,64
 156 1351 156 1351 314 1351 c 129,-1,65
 472 1351 472 1351 472 1292 c 0,66,67
 472 1291 472 1291 472 1291 c 0,68,69
 472 1290 472 1290 472 1290 c 2,0,1
EndSplineSet
Validated: 1
EndChar

StartChar: l
Encoding: 108 108 72
Width: 617
VWidth: 1894
Flags: W
HStem: -6 21G<379.25 425.75> 1344 20G<240 395>
VStem: 111 349<237.764 784.031> 117 343<237.764 801.734 1233.47 1323.84>
LayerCount: 2
Fore
SplineSet
252 1364 m 2,0,-1
 395 1359 l 1,1,2
 452 1359 452 1359 453 1294 c 0,3,4
 460 990 460 990 460 726.5 c 128,-1,5
 460 463 460 463 455 235 c 1,6,-1
 481 243 l 1,7,-1
 487 243 l 2,8,9
 558 243 558 243 558 130 c 0,10,11
 558 76 558 76 503.5 35 c 128,-1,12
 449 -6 449 -6 402.5 -6 c 128,-1,13
 356 -6 356 -6 334 -3.5 c 128,-1,14
 312 -1 312 -1 296 4 c 0,15,16
 266 14 266 14 215.5 49.5 c 128,-1,17
 165 85 165 85 138 129.5 c 128,-1,18
 111 174 111 174 111 364 c 2,19,-1
 111 721 l 1,20,21
 115 754 115 754 117 785 c 1,22,23
 48 791 48 791 31 884 c 1,24,-1
 31 890 l 1,25,-1
 70 1038 l 1,26,27
 93 1218 93 1218 104.5 1233 c 128,-1,28
 116 1248 116 1248 116.5 1254 c 128,-1,29
 117 1260 117 1260 130 1288 c 0,30,31
 144 1319 144 1319 152 1324 c 0,32,33
 228 1364 228 1364 252 1364 c 2,0,-1
EndSplineSet
Validated: 1
EndChar

StartChar: m
Encoding: 109 109 73
Width: 1717
VWidth: 1894
Flags: W
HStem: -5 21G<1312 1392> 1 99<1217.79 1279> 696 186<559.661 664 1139.48 1278>
VStem: 733 305<106.594 588.748> 1267 339<137.633 668.841>
LayerCount: 2
Fore
SplineSet
1279 673 m 1,0,1
 1247 691 1247 691 1200.5 691 c 128,-1,2
 1154 691 1154 691 1139 672 c 0,3,4
 1072 588 1072 588 1038 496 c 1,5,6
 1042 419 1042 419 1042 327.5 c 128,-1,7
 1042 236 1042 236 1038 128 c 1,8,9
 1090 110 1090 110 1106 81 c 1,10,-1
 1111 50 l 1,11,-1
 1092 12 l 1,12,13
 1070 -14 1070 -14 971 -18.5 c 128,-1,14
 872 -23 872 -23 831 -24 c 1,15,-1
 816 -24 l 2,16,17
 697 -24 697 -24 697 42 c 0,18,19
 697 69 697 69 711 96 c 0,20,21
 733 140 733 140 733 158 c 0,22,23
 733 647 733 647 715 660 c 1,24,-1
 664 704 l 1,25,-1
 626 696 l 1,26,27
 559 693 559 693 501 538 c 0,28,29
 499 532 499 532 498 511 c 0,30,31
 498 508 498 508 499 504 c 0,32,33
 499 487 499 487 499 463 c 0,34,35
 499 449 499 449 499 433 c 0,36,37
 499 390 499 390 498.5 329 c 128,-1,38
 498 268 498 268 497 167 c 1,39,40
 558 103 558 103 558 80 c 2,41,-1
 558 79 l 2,42,43
 558 58 558 58 537.5 30.5 c 128,-1,44
 517 3 517 3 480 2 c 2,45,-1
 294 -5 l 1,46,47
 208 -36 208 -36 190.5 -36 c 128,-1,48
 173 -36 173 -36 168.5 -35.5 c 128,-1,49
 164 -35 164 -35 160 -34 c 128,-1,50
 156 -33 156 -33 151.5 -32 c 128,-1,51
 147 -31 147 -31 143 -29 c 128,-1,52
 139 -27 139 -27 135 -25 c 0,53,54
 94 -3 94 -3 94 33 c 128,-1,55
 94 69 94 69 120 98 c 0,56,57
 162 145 162 145 164 163 c 1,58,-1
 128 598 l 1,59,60
 123 627 123 627 107 651 c 1,61,-1
 55 710 l 1,62,-1
 166 845 l 1,63,64
 201 881 201 881 220 881 c 128,-1,65
 239 881 239 881 247 882.5 c 128,-1,66
 255 884 255 884 258.5 885 c 128,-1,67
 262 886 262 886 266 886 c 0,68,69
 276 887 276 887 284 887 c 0,70,71
 296 887 296 887 301 885 c 0,72,73
 313 879 313 879 352 879 c 0,74,75
 371 879 371 879 397 880 c 2,76,-1
 406 880 l 2,77,78
 496 880 496 880 496 795 c 1,79,-1
 496 788 l 1,80,-1
 528 830 l 1,81,82
 679 882 679 882 715.5 882 c 128,-1,83
 752 882 752 882 816 840.5 c 128,-1,84
 880 799 880 799 893.5 763 c 128,-1,85
 907 727 907 727 913 716 c 1,86,87
 933 731 933 731 968 771.5 c 128,-1,88
 1003 812 1003 812 1034 840 c 0,89,90
 1086 886 1086 886 1143 887.5 c 128,-1,91
 1200 889 1200 889 1224.5 889 c 128,-1,92
 1249 889 1249 889 1257 889 c 128,-1,93
 1265 889 1265 889 1274 888.5 c 128,-1,94
 1283 888 1283 888 1293 888 c 128,-1,95
 1303 888 1303 888 1314 887 c 0,96,97
 1336 886 1336 886 1363 885 c 0,98,99
 1447 881 1447 881 1534 764 c 0,100,101
 1576 707 1576 707 1590 653.5 c 128,-1,102
 1604 600 1604 600 1604 478 c 1,103,104
 1624 375 1624 375 1624 339 c 0,105,106
 1624 332 1624 332 1623 328 c 0,107,108
 1619 300 1619 300 1617.5 292.5 c 128,-1,109
 1616 285 1616 285 1615 277.5 c 128,-1,110
 1614 270 1614 270 1613 263 c 128,-1,111
 1612 256 1612 256 1611 249 c 0,112,113
 1606 217 1606 217 1606 209 c 0,114,115
 1606 188 1606 188 1616.5 177.5 c 128,-1,116
 1627 167 1627 167 1632 162 c 128,-1,117
 1637 157 1637 157 1641 152 c 128,-1,118
 1645 147 1645 147 1648 142 c 0,119,120
 1661 122 1661 122 1661 98 c 1,121,-1
 1658 80 l 1,122,123
 1646 38 1646 38 1505 14 c 1,124,-1
 1392 -2 l 1,125,-1
 1392 5 l 1,126,-1
 1317 -5 l 1,127,128
 1307 1 1307 1 1304 4 c 1,129,-1
 1268 1 l 1,130,131
 1219 1 1219 1 1217 43 c 1,132,-1
 1217 47 l 2,133,134
 1217 88 1217 88 1279 100 c 1,135,136
 1268 254 1268 254 1267 397 c 0,137,138
 1268 540 1268 540 1279 673 c 1,0,1
EndSplineSet
Validated: 1
EndChar

StartChar: n
Encoding: 110 110 74
Width: 1403
VWidth: 1894
Flags: W
HStem: 700 180<579.116 845.68>
VStem: 154 341<110.974 626.223> 914 334<188 436.001>
LayerCount: 2
Fore
SplineSet
914 322 m 1,0,1
 916 344 916 344 916 352 c 2,2,-1
 888 614 l 1,3,4
 855 665 855 665 847 673 c 0,5,6
 805 700 805 700 731 700 c 2,7,-1
 701 700 l 1,8,9
 572 691 572 691 490 565 c 1,10,11
 495 457 495 457 495 360 c 2,12,-1
 495 359 l 1,13,14
 494 349 494 349 494 292.5 c 128,-1,15
 494 236 494 236 492 137 c 1,16,17
 514 124 514 124 545 108 c 128,-1,18
 576 92 576 92 576 72 c 0,19,20
 576 40 576 40 531.5 9.5 c 128,-1,21
 487 -21 487 -21 421.5 -26.5 c 128,-1,22
 356 -32 356 -32 234 -32 c 2,23,-1
 228 -32 l 1,24,25
 159 -30 159 -30 128 9 c 1,26,-1
 128 13 l 2,27,28
 128 13 128 13 118 33 c 1,29,-1
 118 42 l 1,30,-1
 132 79 l 1,31,32
 148 100 148 100 151 146.5 c 128,-1,33
 154 193 154 193 154 404 c 128,-1,34
 154 615 154 615 143.5 638 c 128,-1,35
 133 661 133 661 94 683 c 128,-1,36
 55 705 55 705 55 740.5 c 128,-1,37
 55 776 55 776 105.5 832 c 128,-1,38
 156 888 156 888 244 888 c 0,39,40
 337 888 337 888 376 785 c 0,41,42
 383 767 383 767 388 753 c 1,43,44
 406 765 406 765 440 790 c 0,45,46
 567 880 567 880 811 880 c 0,47,48
 894 880 894 880 1007.5 821.5 c 128,-1,49
 1121 763 1121 763 1148 705 c 0,50,51
 1173 651 1173 651 1206 588 c 1,52,-1
 1243 480 l 1,53,-1
 1248 188 l 1,54,-1
 1324 146 l 1,55,56
 1347 127 1347 127 1347 113.5 c 128,-1,57
 1347 100 1347 100 1346 95.5 c 128,-1,58
 1345 91 1345 91 1343 87 c 128,-1,59
 1341 83 1341 83 1338 79 c 0,60,61
 1323 58 1323 58 1276.5 40.5 c 128,-1,62
 1230 23 1230 23 1177.5 -15 c 128,-1,63
 1125 -53 1125 -53 1081.5 -54.5 c 128,-1,64
 1038 -56 1038 -56 999 -56 c 2,65,-1
 998 -56 l 2,66,67
 951 -56 951 -56 909 -27 c 128,-1,68
 867 2 867 2 867 29 c 2,69,-1
 867 60 l 1,70,-1
 920 75 l 1,71,72
 914 236 914 236 914 296 c 2,73,-1
 914 322 l 1,0,1
EndSplineSet
Validated: 1
EndChar

StartChar: o
Encoding: 111 111 75
Width: 1213
VWidth: 1894
Flags: W
HStem: -30 192<486.041 733.137> 730 152<490.031 640.703>
VStem: 814 344<280.336 553.992> 814 315<255 619.895>
LayerCount: 2
Fore
SplineSet
814 450 m 1,0,1
 810 561 810 561 731 692 c 1,2,-1
 586 730 l 1,3,4
 545 728 545 728 487 684 c 1,5,6
 407 550 407 550 407 436 c 1,7,-1
 434 316 l 1,8,-1
 434 315 l 2,9,10
 434 280 434 280 484 186 c 1,11,12
 549 162 549 162 655 162 c 2,13,-1
 663 162 l 2,14,15
 675 162 675 162 735 184 c 1,16,17
 814 331 814 331 814 438 c 0,18,19
 814 439 814 439 814 441 c 2,20,-1
 814 450 l 1,0,1
45 339 m 1,21,22
 65 532 65 532 99 602 c 128,-1,23
 133 672 133 672 167 705 c 128,-1,24
 201 738 201 738 213.5 749 c 128,-1,25
 226 760 226 760 237 769 c 0,26,27
 286 808 286 808 405 845 c 128,-1,28
 524 882 524 882 613 882 c 128,-1,29
 702 882 702 882 804 853 c 0,30,31
 998 798 998 798 1106 672 c 0,32,33
 1121 655 1121 655 1127 640 c 1,34,-1
 1158 480 l 1,35,-1
 1158 478 l 2,36,37
 1158 444 1158 444 1143.5 418.5 c 128,-1,38
 1129 393 1129 393 1129 350.5 c 128,-1,39
 1129 308 1129 308 1088.5 221.5 c 128,-1,40
 1048 135 1048 135 1004 80 c 0,41,42
 920 -30 920 -30 724 -30 c 0,43,44
 401 -30 401 -30 207 91 c 0,45,46
 146 130 146 130 98 223 c 1,47,-1
 45 339 l 1,21,22
EndSplineSet
Validated: 1
EndChar

StartChar: p
Encoding: 112 112 76
Width: 1327
VWidth: 1894
Flags: W
HStem: -394 1244<150.479 440.356> 17 108<541.744 830.406> 740 182<594.989 852.205>
VStem: 114 367<-231.249 67.8461> 149 346<170.833 614> 914 352<303.773 670.58>
LayerCount: 2
Fore
SplineSet
259 850 m 0,0,1
 327 850 327 850 444 819 c 1,2,3
 485 822 485 822 527 849.5 c 128,-1,4
 569 877 569 877 587 886 c 0,5,6
 653 922 653 922 743 922 c 128,-1,7
 833 922 833 922 868 918 c 0,8,9
 1016 900 1016 900 1081 844 c 0,10,11
 1259 693 1259 693 1266 496 c 1,12,-1
 1266 481 l 2,13,14
 1266 365 1266 365 1192.5 254 c 128,-1,15
 1119 143 1119 143 1092 118 c 0,16,17
 981 17 981 17 792 17 c 2,18,-1
 764 17 l 1,19,20
 680 19 680 19 606.5 40 c 128,-1,21
 533 61 533 61 491 69 c 1,22,23
 487 -71 487 -71 481 -209 c 1,24,25
 530 -232 530 -232 542 -242 c 1,26,-1
 561 -270 l 1,27,-1
 561 -278 l 2,28,29
 561 -303 561 -303 519 -341 c 1,30,31
 496 -394 496 -394 429 -394 c 2,32,-1
 264 -394 l 1,33,-1
 124 -380 l 1,34,-1
 123 -380 l 2,35,36
 24 -380 24 -380 24 -312 c 2,37,-1
 24 -310 l 2,38,39
 24 -261 24 -261 74 -233 c 0,40,41
 113 -211 113 -211 114 -200 c 0,42,43
 122 67 122 67 130 103.5 c 128,-1,44
 138 140 138 140 140 159 c 128,-1,45
 142 178 142 178 143.5 204 c 128,-1,46
 145 230 145 230 147 261 c 0,47,48
 149 325 149 325 149 477 c 128,-1,49
 149 629 149 629 127 686 c 1,50,51
 98 707 98 707 96 751 c 2,52,-1
 96 756 l 2,53,54
 96 850 96 850 259 850 c 0,0,1
846 722 m 1,55,56
 805 740 805 740 785.5 740 c 128,-1,57
 766 740 766 740 749 738.5 c 128,-1,58
 732 737 732 737 715 734.5 c 128,-1,59
 698 732 698 732 681.5 728 c 128,-1,60
 665 724 665 724 650 719 c 0,61,62
 619 708 619 708 589 692 c 1,63,-1
 501 614 l 1,64,-1
 495 188 l 1,65,66
 599 143 599 143 729 125 c 1,67,68
 730 125 730 125 731 125 c 0,69,70
 781 125 781 125 832 167 c 1,71,72
 914 322 914 322 914 459 c 0,73,74
 914 460 914 460 915 461 c 0,75,76
 915 597 915 597 846 722 c 1,55,56
EndSplineSet
Validated: 1
EndChar

StartChar: q
Encoding: 113 113 77
Width: 1341
VWidth: 1894
Flags: W
HStem: -7 21G<482.5 568.5> 856 20G<546.25 636.75>
LayerCount: 2
Fore
SplineSet
1066 742 m 2,0,1
 1066 680 1066 680 1040 416 c 1,2,3
 1046 380 1046 380 1059 77 c 1,4,5
 1129 158 1129 158 1174 158 c 0,6,7
 1174 158 1174 158 1175 158 c 2,8,-1
 1180 158 l 1,9,-1
 1302 121 l 1,10,11
 1282 -33 1282 -33 1265.5 -64.5 c 128,-1,12
 1249 -96 1249 -96 1182 -220 c 128,-1,13
 1115 -344 1115 -344 1088 -364 c 0,14,15
 1044 -398 1044 -398 1022 -398 c 128,-1,16
 1000 -398 1000 -398 943 -384.5 c 128,-1,17
 886 -371 886 -371 877 -369 c 128,-1,18
 868 -367 868 -367 859 -365 c 0,19,20
 841 -361 841 -361 818 -358 c 1,21,22
 787 -321 787 -321 755 -283 c 1,23,24
 738 -107 738 -107 720 69 c 1,25,26
 683 22 683 22 646 8 c 128,-1,27
 609 -6 609 -6 528 -7 c 1,28,-1
 521 -7 l 2,29,30
 444 -6 444 -6 305 26 c 0,31,32
 170 58 170 58 132.5 95 c 128,-1,33
 95 132 95 132 81 152 c 0,34,35
 54 193 54 193 50 240 c 2,36,-1
 38 384 l 1,37,-1
 53 503 l 2,38,39
 57 538 57 538 97 610 c 0,40,41
 137 683 137 683 162 708 c 128,-1,42
 187 733 187 733 206 747 c 0,43,44
 245 776 245 776 324 817 c 128,-1,45
 403 858 403 858 452 867 c 128,-1,46
 501 876 501 876 591.5 876 c 128,-1,47
 682 876 682 876 771 841 c 1,48,-1
 869 808 l 1,49,-1
 976 824 l 1,50,-1
 980 824 l 2,51,52
 1066 824 1066 824 1066 744 c 2,53,-1
 1066 742 l 2,0,1
712 640 m 1,54,55
 655 680 655 680 636 706 c 1,56,57
 427 691 427 691 386 677 c 1,58,59
 322 542 322 542 322 418.5 c 128,-1,60
 322 295 322 295 379 180 c 1,61,-1
 406 170 l 1,62,-1
 483 158 l 1,63,-1
 502 159 l 1,64,65
 576 187 576 187 616.5 238 c 128,-1,66
 657 289 657 289 671 305 c 1,67,68
 688 474 688 474 712 640 c 1,54,55
EndSplineSet
Validated: 1
EndChar

StartChar: r
Encoding: 114 114 78
Width: 997
VWidth: 1894
Flags: W
HStem: 16 149<538 594.771> 586 344<670.385 915.12> 836 20G<229.5 398>
VStem: 176 368<143.513 640.055>
LayerCount: 2
Fore
SplineSet
595 139 m 1,0,-1
 607 83 l 1,1,2
 607 16 607 16 555 16 c 0,3,4
 554 16 554 16 553 16 c 1,5,-1
 425 24 l 1,6,-1
 288 12 l 1,7,8
 135 12 135 12 91 77 c 1,9,-1
 91 86 l 2,10,11
 91 116 91 116 176 177 c 1,12,-1
 176 631 l 1,13,14
 112 636 112 636 65 697 c 0,15,16
 55 711 55 711 55 727.5 c 128,-1,17
 55 744 55 744 69 768 c 0,18,19
 121 856 121 856 338 856 c 2,20,-1
 372 856 l 2,21,22
 424 856 424 856 493 820 c 1,23,-1
 644 910 l 1,24,-1
 649 910 l 1,25,26
 699 930 699 930 775 930 c 128,-1,27
 851 930 851 930 903 901 c 128,-1,28
 955 872 955 872 955 771 c 0,29,30
 955 586 955 586 805 586 c 0,31,32
 749 586 749 586 706.5 610.5 c 128,-1,33
 664 635 664 635 653 638 c 1,34,-1
 626 638 l 1,35,-1
 609 647 l 1,36,37
 591 643 591 643 547 621 c 1,38,39
 550 562 550 562 550 516 c 0,40,41
 550 449 550 449 544 412 c 1,42,-1
 544 391 l 2,43,44
 544 278 544 278 538 165 c 1,45,46
 588 145 588 145 595 139 c 1,0,-1
EndSplineSet
Validated: 1
EndChar

StartChar: s
Encoding: 115 115 79
Width: 1049
VWidth: 1894
Flags: W
HStem: -72 388<99.6973 232.312> 407 192<467 571.956> 594 263<701.554 872.047> 874 20G<426.75 534.25 877.5 945>
VStem: 618 330<188.947 358.825>
LayerCount: 2
Fore
SplineSet
899 894 m 0,0,1
 991 894 991 894 991 822 c 0,2,3
 991 789 991 789 952 732 c 0,4,5
 858 594 858 594 776 594 c 2,6,-1
 753 594 l 1,7,8
 707 612 707 612 701 638.5 c 128,-1,9
 695 665 695 665 692 673 c 1,10,11
 626 697 626 697 588 699 c 1,12,13
 468 676 468 676 467 599 c 1,14,-1
 475 599 l 1,15,16
 493 600 493 600 576.5 600 c 128,-1,17
 660 600 660 600 736 567 c 0,18,19
 860 512 860 512 904 453.5 c 128,-1,20
 948 395 948 395 948 265 c 128,-1,21
 948 135 948 135 908 91 c 1,22,23
 817 -34 817 -34 685 -38 c 1,24,-1
 516 -16 l 1,25,-1
 288 27 l 1,26,-1
 207 -53 l 1,27,28
 182 -72 182 -72 157.5 -72 c 128,-1,29
 133 -72 133 -72 95 -56 c 128,-1,30
 57 -40 57 -40 57 5 c 0,31,32
 57 179 57 179 78 232 c 0,33,34
 111 315 111 315 183 316 c 0,35,36
 235 316 235 316 321.5 240.5 c 128,-1,37
 408 165 408 165 437.5 156 c 128,-1,38
 467 147 467 147 512 139 c 1,39,40
 618 208 618 208 618 272 c 0,41,42
 618 272 618 272 618 273 c 0,43,44
 618 338 618 338 516 407 c 1,45,-1
 296 414 l 1,46,-1
 292 414 l 1,47,48
 247 418 247 418 176.5 459.5 c 128,-1,49
 106 501 106 501 106 599 c 2,50,-1
 106 601 l 1,51,-1
 118 675 l 1,52,53
 127 701 127 701 171.5 756 c 128,-1,54
 216 811 216 811 284 845 c 0,55,56
 373 888 373 888 480.5 888 c 128,-1,57
 588 888 588 888 674 872.5 c 128,-1,58
 760 857 760 857 778 857 c 2,59,-1
 780 857 l 1,60,61
 791 859 791 859 823.5 876.5 c 128,-1,62
 856 894 856 894 899 894 c 0,0,1
EndSplineSet
Validated: 1
EndChar

StartChar: t
Encoding: 116 116 80
Width: 844
VWidth: 1894
Flags: W
HStem: -15.5 167.5<600.725 754.929> 502 171<127 217.795> 1353 20G<436 522.5>
VStem: 191 439<745.391 1050.54> 220 401<176.406 452.936>
LayerCount: 2
Fore
SplineSet
400 1360 m 1,0,1
 412 1370 412 1370 460 1373 c 1,2,-1
 473 1373 l 2,3,4
 572 1373 572 1373 610.5 1347 c 128,-1,5
 649 1321 649 1321 649 1303 c 0,6,7
 649 1143 649 1143 630 724 c 1,8,9
 769 711 769 711 783 621 c 1,10,-1
 785 615 l 1,11,-1
 785 609 l 2,12,13
 785 562 785 562 772 545 c 0,14,15
 754 521 754 521 621 517 c 1,16,17
 611 344 611 344 600 171 c 1,18,19
 623 159 623 159 673 152 c 0,20,21
 778 138 778 138 778 77 c 2,22,-1
 778 76 l 2,23,24
 778 47 778 47 745 19 c 128,-1,25
 712 -9 712 -9 691.5 -15.5 c 128,-1,26
 671 -22 671 -22 656 -24 c 0,27,28
 618 -29 618 -29 584 -29 c 0,29,30
 503 -29 503 -29 441 1 c 0,31,32
 354 44 354 44 320 76 c 0,33,34
 287 109 287 109 260 172 c 0,35,36
 220 265 220 265 220 348 c 2,37,-1
 220 349 l 1,38,-1
 240 494 l 1,39,40
 224 498 224 498 180.5 502 c 128,-1,41
 137 506 137 506 53 539 c 1,42,-1
 53 638 l 1,43,-1
 127 673 l 1,44,-1
 260 694 l 1,45,-1
 251 738 l 1,46,47
 203 754 203 754 191 834 c 1,48,-1
 191 862 l 2,49,50
 191 896 191 896 206.5 938.5 c 128,-1,51
 222 981 222 981 241 1084.5 c 128,-1,52
 260 1188 260 1188 268 1225 c 0,53,54
 286 1304 286 1304 305 1325 c 1,55,56
 346 1357 346 1357 400 1360 c 1,0,1
EndSplineSet
Validated: 1
EndChar

StartChar: u
Encoding: 117 117 81
Width: 1340
Flags: W
HStem: -36 138<503.649 686.695> 872 6G<191 350.5 1022.5 1076.5>
VStem: 96 361<143.39 719.969>
LayerCount: 2
Fore
SplineSet
472 822 m 1,0,1
 458 619 458 619 457 482 c 0,2,3
 457 216 457 216 502 141 c 1,4,5
 555 103 555 103 579 102 c 1,6,7
 675 125 675 125 739.5 186 c 128,-1,8
 804 247 804 247 815 263 c 1,9,-1
 815 266 l 2,10,11
 815 515 815 515 837 644 c 1,12,13
 832 645 832 645 826 645.5 c 128,-1,14
 820 646 820 646 817 647 c 128,-1,15
 814 648 814 648 811.5 649.5 c 128,-1,16
 809 651 809 651 805 654.5 c 128,-1,17
 801 658 801 658 798 660.5 c 128,-1,18
 795 663 795 663 789 668 c 128,-1,19
 783 673 783 673 778 677 c 0,20,21
 770 683 770 683 770 693.5 c 128,-1,22
 770 704 770 704 771 709 c 0,23,24
 778 761 778 761 798 775 c 0,25,26
 836 801 836 801 847 807 c 128,-1,27
 858 813 858 813 927 855.5 c 128,-1,28
 996 898 996 898 1049 898 c 0,29,30
 1104 898 1104 898 1139 873.5 c 128,-1,31
 1174 849 1174 849 1184.5 841.5 c 128,-1,32
 1195 834 1195 834 1200 830 c 128,-1,33
 1205 826 1205 826 1211 820 c 0,34,35
 1221 811 1221 811 1222 801 c 1,36,-1
 1222 769 l 2,37,38
 1222 653 1222 653 1177 190 c 1,39,-1
 1290 89 l 1,40,41
 1187 3 1187 3 1171 2 c 128,-1,42
 1155 1 1155 1 1138 1 c 0,43,44
 1004 1 1004 1 953 101 c 0,45,46
 948 112 948 112 943 119 c 1,47,48
 910 98 910 98 863 56 c 0,49,50
 757 -36 757 -36 542.5 -36 c 128,-1,51
 328 -36 328 -36 242.5 19.5 c 128,-1,52
 157 75 157 75 129 119 c 128,-1,53
 101 163 101 163 96 297 c 1,54,-1
 101 556 l 1,55,56
 99 640 99 640 77 669 c 128,-1,57
 55 698 55 698 55 718 c 2,58,-1
 55 720 l 1,59,-1
 73 771 l 1,60,61
 130 872 130 872 252 872 c 2,62,-1
 268 872 l 1,63,64
 433 863 433 863 452.5 853.5 c 128,-1,65
 472 844 472 844 472 823 c 2,66,-1
 472 822 l 1,0,1
EndSplineSet
Validated: 1
EndChar

StartChar: v
Encoding: 118 118 82
Width: 1370
VWidth: 1894
Flags: W
HStem: 836 20G<164 314.5>
VStem: 1028.5 289.5<649.5 812.673>
LayerCount: 2
Fore
SplineSet
48 717 m 0,0,1
 48 856 48 856 280 856 c 0,2,3
 349 856 349 856 379 828 c 0,4,5
 426 784 426 784 753 363 c 1,6,7
 807 427 807 427 889 518 c 0,8,9
 1028 672 1028 672 1028.5 736 c 128,-1,10
 1029 800 1029 800 1044 822 c 128,-1,11
 1059 844 1059 844 1124 844 c 0,12,13
 1318 844 1318 844 1318 733 c 0,14,15
 1318 676 1318 676 1284.5 655 c 128,-1,16
 1251 634 1251 634 1192 553 c 0,17,18
 1093 417 1093 417 1083 406 c 128,-1,19
 1073 395 1073 395 1070 389 c 0,20,21
 1062 377 1062 377 1053.5 354 c 128,-1,22
 1045 331 1045 331 959.5 237 c 128,-1,23
 874 143 874 143 843 99 c 0,24,25
 779 6 779 6 709 6 c 0,26,27
 634 6 634 6 585 55 c 1,28,-1
 519 135 l 1,29,30
 460 225 460 225 324.5 366 c 128,-1,31
 189 507 189 507 164.5 557 c 128,-1,32
 140 607 140 607 118.5 615 c 128,-1,33
 97 623 97 623 88 628 c 0,34,35
 48 649 48 649 48 717 c 0,0,1
EndSplineSet
Validated: 1
EndChar

StartChar: w
Encoding: 119 119 83
Width: 1778
VWidth: 1894
Flags: W
HStem: 839 20G<249 435.5 1421 1625>
LayerCount: 2
Fore
SplineSet
1322 749 m 1,0,1
 1309 788 1309 788 1305 793 c 1,2,-1
 1307 804 l 1,3,4
 1319 868 1319 868 1523 868 c 128,-1,5
 1727 868 1727 868 1727 791 c 2,6,-1
 1727 790 l 2,7,8
 1727 757 1727 757 1698 723 c 128,-1,9
 1669 689 1669 689 1643 631.5 c 128,-1,10
 1617 574 1617 574 1598 537 c 0,11,12
 1561 463 1561 463 1517.5 383.5 c 128,-1,13
 1474 304 1474 304 1451 261 c 0,14,15
 1406 177 1406 177 1390 142 c 0,16,17
 1349 48 1349 48 1245 16 c 0,18,19
 1217 8 1217 8 1191 8 c 0,20,21
 1136 8 1136 8 1102.5 54.5 c 128,-1,22
 1069 101 1069 101 1022 136 c 0,23,24
 946 193 946 193 918 209 c 1,25,26
 898 189 898 189 870 144 c 0,27,28
 819 60 819 60 808 53 c 0,29,30
 756 17 756 17 655 15 c 1,31,-1
 648 15 l 1,32,33
 602 16 602 16 565.5 36 c 128,-1,34
 529 56 529 56 468.5 149 c 128,-1,35
 408 242 408 242 380.5 275.5 c 128,-1,36
 353 309 353 309 334.5 346 c 128,-1,37
 316 383 316 383 239.5 485 c 128,-1,38
 163 587 163 587 154 630 c 0,39,40
 146 673 146 673 118 684 c 0,41,42
 52 709 52 709 50 748 c 0,43,44
 48 780 48 780 48 793 c 0,45,46
 48 833 48 833 106.5 843.5 c 128,-1,47
 165 854 165 854 333 859 c 1,48,-1
 363 859 l 2,49,50
 508 859 508 859 535 812 c 1,51,-1
 544 801 l 1,52,-1
 522 758 l 1,53,54
 507 747 507 747 490 738 c 1,55,56
 621 461 621 461 755 315 c 1,57,58
 793 361 793 361 849 429.5 c 128,-1,59
 905 498 905 498 943 498 c 0,60,61
 1058 498 1058 498 1104 328 c 1,62,63
 1227 534 1227 534 1322 749 c 1,0,1
EndSplineSet
Validated: 1
EndChar

StartChar: x
Encoding: 120 120 84
Width: 1174
VWidth: 1894
Flags: W
HStem: 838 20G<130 366 730 986 1026 1077>
VStem: 53 411<697.254 838>
LayerCount: 2
Fore
SplineSet
268 858 m 2,0,1
 464 858 464 858 464 788 c 2,2,-1
 464 785 l 2,3,4
 464 747 464 747 448 729 c 0,5,6
 427 705 427 705 427 697 c 0,7,8
 427 666 427 666 470.5 595 c 128,-1,9
 514 524 514 524 552 517 c 1,10,-1
 625 588 l 1,11,-1
 709 695 l 1,12,13
 686 743 686 743 686 768.5 c 128,-1,14
 686 794 686 794 691 808 c 0,15,16
 700 834 700 834 730 861 c 1,17,-1
 856 874 l 1,18,-1
 986 865 l 1,19,20
 1015 868 1015 868 1037 868 c 0,21,22
 1117 868 1117 868 1117 824 c 0,23,24
 1117 809 1117 809 1094.5 779.5 c 128,-1,25
 1072 750 1072 750 1027 723 c 1,26,-1
 1027 721 l 1,27,28
 1027 690 1027 690 755 368 c 1,29,30
 782 344 782 344 827 310 c 128,-1,31
 872 276 872 276 912 236.5 c 128,-1,32
 952 197 952 197 1009 169.5 c 128,-1,33
 1066 142 1066 142 1091.5 116.5 c 128,-1,34
 1117 91 1117 91 1117 50 c 128,-1,35
 1117 9 1117 9 1086 -13 c 1,36,-1
 1086 -20 l 1,37,-1
 1036 -30 l 1,38,-1
 1026 -30 l 1,39,40
 1009 -25 1009 -25 986 -25 c 1,41,-1
 902 -29 l 1,42,43
 869 -29 869 -29 843 -12 c 128,-1,44
 817 5 817 5 782 26 c 0,45,46
 721 63 721 63 708 89 c 0,47,48
 699 98 699 98 658 121 c 128,-1,49
 617 144 617 144 592 184 c 1,50,51
 546 135 546 135 503 88 c 1,52,53
 532 64 532 64 532 50 c 2,54,-1
 532 43 l 1,55,56
 497 -19 497 -19 426 -25 c 2,57,-1
 247 -40 l 1,58,-1
 186 -36 l 1,59,-1
 180 -33 l 1,60,61
 111 -13 111 -13 111 32 c 2,62,-1
 111 37 l 1,63,-1
 127 80 l 1,64,65
 148 108 148 108 175.5 120 c 128,-1,66
 203 132 203 132 249.5 182.5 c 128,-1,67
 296 233 296 233 323 264 c 0,68,69
 374 325 374 325 374 336 c 0,70,71
 374 336 374 336 374 337 c 0,72,73
 372 346 372 346 370.5 348.5 c 128,-1,74
 369 351 369 351 365 354.5 c 128,-1,75
 361 358 361 358 355 364 c 0,76,77
 340 376 340 376 303.5 403.5 c 128,-1,78
 267 431 267 431 181 534.5 c 128,-1,79
 95 638 95 638 87.5 666 c 128,-1,80
 80 694 80 694 71 713 c 128,-1,81
 62 732 62 732 59 741 c 0,82,83
 53 760 53 760 53 778 c 0,84,85
 53 858 53 858 207 858 c 2,86,-1
 268 858 l 2,0,1
EndSplineSet
Validated: 1
EndChar

StartChar: y
Encoding: 121 121 85
Width: 1221
VWidth: 1894
Flags: W
HStem: 848 20G<321.75 333.25>
LayerCount: 2
Fore
SplineSet
353 -144 m 1,0,1
 364 -135 364 -135 412 -144 c 1,2,3
 511 -85 511 -85 538 -43 c 128,-1,4
 565 -1 565 -1 580 33 c 1,5,6
 539 45 539 45 448 67 c 0,7,8
 290 105 290 105 216 239 c 1,9,-1
 212 239 l 1,10,11
 169 364 169 364 169 503 c 2,12,-1
 169 602 l 1,13,-1
 123 632 l 2,14,15
 50 679 50 679 48 720 c 2,16,-1
 48 726 l 2,17,18
 48 766 48 766 93.5 805 c 128,-1,19
 139 844 139 844 227.5 856 c 128,-1,20
 316 868 316 868 327.5 868 c 128,-1,21
 339 868 339 868 419.5 852 c 128,-1,22
 500 836 500 836 500 785.5 c 128,-1,23
 500 735 500 735 468 718 c 0,24,25
 411 688 411 688 410 604 c 1,26,-1
 439 292 l 1,27,28
 454 222 454 222 525 197 c 128,-1,29
 596 172 596 172 641 160 c 1,30,31
 725 419 725 419 774 641 c 1,32,33
 716 644 716 644 716 718 c 2,34,-1
 716 720 l 2,35,36
 716 756 716 756 773 790.5 c 128,-1,37
 830 825 830 825 894 835 c 0,38,39
 999 850 999 850 1035 850 c 0,40,41
 1165 850 1165 850 1165 779 c 2,42,-1
 1165 776 l 2,43,44
 1165 727 1165 727 1142 696.5 c 128,-1,45
 1119 666 1119 666 1119 646 c 2,46,-1
 1119 644 l 1,47,-1
 1062 385 l 1,48,49
 1062 282 1062 282 1006 89 c 0,50,51
 922 -205 922 -205 715 -325 c 0,52,53
 619 -380 619 -380 446 -380 c 0,54,55
 424 -380 424 -380 396 -379 c 128,-1,56
 368 -378 368 -378 272 -328 c 128,-1,57
 176 -278 176 -278 155.5 -257.5 c 128,-1,58
 135 -237 135 -237 135 -216 c 0,59,60
 135 -154 135 -154 169.5 -135 c 128,-1,61
 204 -116 204 -116 231.5 -116 c 128,-1,62
 259 -116 259 -116 265.5 -116.5 c 128,-1,63
 272 -117 272 -117 278 -117.5 c 128,-1,64
 284 -118 284 -118 290 -119 c 128,-1,65
 296 -120 296 -120 301.5 -121.5 c 128,-1,66
 307 -123 307 -123 313 -125 c 0,67,68
 324 -129 324 -129 335 -135.5 c 128,-1,69
 346 -142 346 -142 353 -144 c 1,0,1
EndSplineSet
Validated: 1
EndChar

StartChar: z
Encoding: 122 122 86
Width: 1129
VWidth: 1894
Flags: W
HStem: -390 314<798.136 954.901> 846 41G<137 439.471 855.5 946>
LayerCount: 2
Fore
SplineSet
718 -336 m 1,0,1
 287 -394 287 -394 161 -394 c 128,-1,2
 35 -394 35 -394 35 -313 c 0,3,4
 35 -198 35 -198 196 97 c 1,5,6
 277 212 277 212 290 234 c 1,7,-1
 295 267 l 1,8,9
 290 289 290 289 290 300 c 0,10,11
 290 360 290 360 377 401 c 0,12,13
 414 420 414 420 419 428 c 0,14,15
 452 534 452 534 529 640 c 1,16,-1
 332 656 l 1,17,18
 330 653 330 653 325.5 640.5 c 128,-1,19
 321 628 321 628 281 594 c 0,20,21
 214 537 214 537 176 537 c 0,22,23
 104 537 104 537 103 663 c 1,24,-1
 103 758 l 2,25,26
 103 828 103 828 137 855 c 1,27,-1
 203 866 l 1,28,-1
 605 832 l 1,29,30
 636 833 636 833 698 852 c 0,31,32
 814 887 814 887 897 887 c 0,33,34
 995 887 995 887 1046 838 c 0,35,36
 1070 815 1070 815 1070 795 c 128,-1,37
 1070 775 1070 775 1067 766 c 128,-1,38
 1064 757 1064 757 1058.5 749.5 c 128,-1,39
 1053 742 1053 742 1045 735 c 0,40,41
 1029 722 1029 722 1004 711 c 1,42,43
 904 549 904 549 800 388 c 1,44,45
 822 356 822 356 822 334 c 0,46,47
 822 287 822 287 719 271 c 1,48,49
 635 88 635 88 467 -195 c 1,50,51
 612 -188 612 -188 649 -170.5 c 128,-1,52
 686 -153 686 -153 734.5 -143 c 128,-1,53
 783 -133 783 -133 824.5 -104.5 c 128,-1,54
 866 -76 866 -76 901 -76 c 0,55,56
 1018 -76 1018 -76 1018 -168 c 2,57,-1
 1018 -169 l 1,58,-1
 1006 -258 l 1,59,60
 988 -328 988 -328 939 -359 c 128,-1,61
 890 -390 890 -390 846 -390 c 2,62,-1
 832 -390 l 1,63,64
 774 -388 774 -388 755 -369 c 0,65,66
 728 -340 728 -340 718 -336 c 1,0,1
EndSplineSet
Validated: 1
EndChar

StartChar: braceleft
Encoding: 123 123 87
Width: 804
VWidth: 1894
Flags: W
HStem: 1420 160<691.396 895.641>
VStem: 302 389<957.055 1399.51> 302.5 373.5<-69 468.609>
LayerCount: 2
Fore
SplineSet
686 1382 m 1,0,1
 690 1274 690 1274 691 1206 c 0,2,3
 690 1199 690 1199 690 1192 c 0,4,5
 690 1121 690 1121 690 1053 c 128,-1,6
 690 985 690 985 686 844 c 1,7,8
 647 740 647 740 515 634 c 1,9,10
 663 579 663 579 669 444 c 0,11,12
 675 311 675 311 676 162 c 0,13,14
 676 51 676 51 672 -69 c 1,15,-1
 955 -133 l 1,16,17
 929 -212 929 -212 902 -233 c 128,-1,18
 875 -254 875 -254 835 -254 c 2,19,-1
 563 -248 l 1,20,21
 454 -241 454 -241 423 -215 c 1,22,-1
 331 -75 l 1,23,24
 310 -38 310 -38 302.5 184 c 128,-1,25
 295 406 295 406 292.5 425 c 128,-1,26
 290 444 290 444 287 451 c 0,27,28
 281 464 281 464 265 472 c 1,29,-1
 248 472 l 2,30,31
 192 472 192 472 153 521 c 128,-1,32
 114 570 114 570 114 598 c 128,-1,33
 114 626 114 626 145 658 c 1,34,-1
 324 809 l 1,35,-1
 302 1234 l 1,36,37
 302 1336 302 1336 308.5 1364.5 c 128,-1,38
 315 1393 315 1393 358 1455 c 0,39,40
 423 1548 423 1548 700 1576 c 0,41,42
 734 1580 734 1580 790.5 1580 c 128,-1,43
 847 1580 847 1580 886 1545 c 0,44,45
 927 1509 927 1509 929 1464 c 0,46,47
 929 1463 929 1463 929 1462 c 0,48,49
 929 1420 929 1420 885 1420 c 0,50,51
 772 1420 772 1420 686 1382 c 1,0,1
EndSplineSet
Validated: 1
EndChar

StartChar: bar
Encoding: 124 124 88
Width: 517
VWidth: 1894
Flags: W
VStem: 127 238<-28.0781 100.374 824.613 1410> 142 240<-366.523 -32.8631 37.6546 263.344 1261.37 1639.49> 160 210<-163.552 -126.134 113.626 292.504>
LayerCount: 2
Fore
SplineSet
382 -242 m 1,0,1
 382 -396 382 -396 244 -396 c 0,2,3
 228 -396 228 -396 194 -376 c 128,-1,4
 160 -356 160 -356 142 -316 c 0,5,6
 127 -284 127 -284 127 -137 c 0,7,8
 127 -128 127 -128 127 -118 c 0,9,10
 127 -91 127 -91 127 -61 c 0,11,12
 130 155 130 155 145 234 c 128,-1,13
 160 313 160 313 160 384 c 0,14,15
 160 502 160 502 140.5 785 c 128,-1,16
 121 1068 121 1068 121 1252 c 0,17,18
 121 1554 121 1554 137.5 1592 c 128,-1,19
 154 1630 154 1630 187.5 1653 c 128,-1,20
 221 1676 221 1676 243 1676 c 128,-1,21
 265 1676 265 1676 303 1661 c 0,22,23
 380 1631 380 1631 380 1522 c 2,24,-1
 380 1516 l 2,25,26
 380 1461 380 1461 363 1410 c 1,27,-1
 353 1214 l 1,28,-1
 355 1012 l 1,29,-1
 355 962 l 1,30,-1
 341 732 l 1,31,-1
 370 254 l 1,32,-1
 370 208 l 1,33,-1
 365 6 l 1,34,-1
 382 -242 l 1,0,1
EndSplineSet
Validated: 1
EndChar

StartChar: asciitilde
Encoding: 126 126 89
Width: 1625
VWidth: 1894
Flags: W
HStem: 585 351<423.383 663.407>
LayerCount: 2
Fore
SplineSet
1158 666 m 0,0,1
 1301 832 1301 832 1397 832 c 128,-1,2
 1493 832 1493 832 1493 737 c 0,3,4
 1493 628 1493 628 1403 525 c 0,5,6
 1315 425 1315 425 1307.5 401 c 128,-1,7
 1300 377 1300 377 1282 355 c 0,8,9
 1222 276 1222 276 1099.5 276 c 128,-1,10
 977 276 977 276 921 363 c 0,11,12
 877 431 877 431 686 529 c 0,13,14
 579 584 579 584 540 585 c 0,15,16
 535 585 535 585 531 585 c 0,17,18
 498 585 498 585 478 580 c 0,19,20
 431 568 431 568 349 506 c 0,21,22
 245 426 245 426 213 426 c 0,23,24
 118 426 118 426 118 546 c 2,25,-1
 118 576 l 2,26,27
 118 668 118 668 190 726 c 0,28,29
 450 936 450 936 539.5 936 c 128,-1,30
 629 936 629 936 705.5 878 c 128,-1,31
 782 820 782 820 898 756 c 0,32,33
 1089 651 1089 651 1102 617 c 0,34,35
 1103 615 1103 615 1105 615 c 0,36,37
 1115 615 1115 615 1158 666 c 0,0,1
EndSplineSet
Validated: 1
EndChar

StartChar: cent
Encoding: 162 162 90
Width: 1301
VWidth: 1894
Flags: W
HStem: -393 21G<258 390.5> -62 176<641.02 832.081>
VStem: 26 259<270.919 489.504> 737 252<955.523 1188.78>
LayerCount: 2
Fore
SplineSet
1073 883 m 1,0,1
 1151 926 1151 926 1181 926 c 0,2,3
 1265 926 1265 926 1265 850 c 2,4,-1
 1265 848 l 2,5,6
 1265 755 1265 755 1151 664 c 0,7,8
 1119 638 1119 638 1093 638 c 128,-1,9
 1067 638 1067 638 1058.5 639 c 128,-1,10
 1050 640 1050 640 1042 642 c 0,11,12
 1014 650 1014 650 980 686 c 0,13,14
 929 740 929 740 885 740 c 2,15,-1
 881 740 l 2,16,17
 859 740 859 740 838 681 c 0,18,19
 802 579 802 579 770.5 518 c 128,-1,20
 739 457 739 457 690 318.5 c 128,-1,21
 641 180 641 180 641 128 c 0,22,23
 641 114 641 114 722.5 114 c 128,-1,24
 804 114 804 114 833 126 c 0,25,26
 883 146 883 146 946.5 224.5 c 128,-1,27
 1010 303 1010 303 1036 317 c 0,28,29
 1036 317 1036 317 1101 336 c 1,30,-1
 1110 336 l 1,31,32
 1143 334 1143 334 1204 297.5 c 128,-1,33
 1265 261 1265 261 1265 202.5 c 128,-1,34
 1265 144 1265 144 1250 133 c 128,-1,35
 1235 122 1235 122 1224 118 c 0,36,37
 1205 110 1205 110 1166.5 103.5 c 128,-1,38
 1128 97 1128 97 1045.5 35 c 128,-1,39
 963 -27 963 -27 911 -41 c 0,40,41
 865 -54 865 -54 574 -62 c 1,42,-1
 558 -92 l 1,43,44
 527 -236 527 -236 424 -372 c 1,45,46
 405 -393 405 -393 376 -393 c 2,47,-1
 369 -393 l 1,48,-1
 258 -384 l 1,49,-1
 258 -317 l 2,50,51
 258 -266 258 -266 334 -16 c 1,52,53
 63 141 63 141 26 295 c 1,54,-1
 22 512 l 1,55,-1
 126 641 l 2,56,57
 274 825 274 825 473 896 c 0,58,59
 529 916 529 916 600.5 923 c 128,-1,60
 672 930 672 930 681.5 938 c 128,-1,61
 691 946 691 946 698 961 c 0,62,63
 718 1005 718 1005 737 1069 c 0,64,65
 776 1202 776 1202 805 1220 c 0,66,67
 852 1250 852 1250 898 1250 c 0,68,69
 988 1250 988 1250 989 1164 c 0,70,71
 989 1125 989 1125 947 932 c 1,72,-1
 955 924 l 1,73,-1
 976 911 l 1,74,-1
 1073 883 l 1,0,1
315 475 m 0,75,76
 285 441 285 441 285 393.5 c 128,-1,77
 285 346 285 346 330 267 c 128,-1,78
 375 188 375 188 402 188 c 0,79,80
 413 188 413 188 480.5 367.5 c 128,-1,81
 548 547 548 547 585 632 c 128,-1,82
 622 717 622 717 622 732 c 1,83,-1
 621 738 l 1,84,85
 562 736 562 736 440 618 c 0,86,87
 418 594 418 594 315 475 c 0,75,76
EndSplineSet
Validated: 1
EndChar

StartChar: sterling
Encoding: 163 163 91
Width: 1175
VWidth: 1894
Flags: W
HStem: -76 212<762.656 857> 535 164<643.877 701.573> 1234 204<597 813.075>
VStem: 831 215<1117.52 1232.91>
LayerCount: 2
Fore
SplineSet
1046 1188 m 2,0,1
 1046 1092 1046 1092 956 1092 c 128,-1,2
 866 1092 866 1092 831 1180 c 0,3,4
 810 1234 810 1234 799 1234 c 128,-1,5
 788 1234 788 1234 753.5 1210 c 128,-1,6
 719 1186 719 1186 702 1167 c 1,7,-1
 668 1090 l 1,8,9
 630 957 630 957 592 699 c 1,10,11
 689 696 689 696 702 677 c 0,12,13
 719 654 719 654 730 585 c 1,14,-1
 706 535 l 1,15,-1
 641 520 l 1,16,-1
 638 499 l 1,17,18
 591 470 591 470 582 451 c 0,19,20
 565 419 565 419 565 383.5 c 128,-1,21
 565 348 565 348 565 340 c 128,-1,22
 565 332 565 332 565 325.5 c 128,-1,23
 565 319 565 319 565 313 c 128,-1,24
 565 307 565 307 565 302 c 0,25,26
 565 292 565 292 566 287 c 1,27,28
 573 284 573 284 592 279.5 c 128,-1,29
 611 275 611 275 684 223 c 0,30,31
 808 136 808 136 830 136 c 1,32,-1
 857 138 l 1,33,34
 863 146 863 146 872 165 c 0,35,36
 920 274 920 274 1018 274 c 0,37,38
 1141 274 1141 274 1142 160 c 0,39,40
 1142 129 1142 129 1123 118 c 128,-1,41
 1104 107 1104 107 1053.5 33.5 c 128,-1,42
 1003 -40 1003 -40 981.5 -58 c 128,-1,43
 960 -76 960 -76 894.5 -76 c 128,-1,44
 829 -76 829 -76 678 15 c 128,-1,45
 527 106 527 106 454 106 c 128,-1,46
 381 106 381 106 372 101 c 0,47,48
 355 92 355 92 291 31 c 128,-1,49
 227 -30 227 -30 196 -49 c 128,-1,50
 165 -68 165 -68 121 -68 c 2,51,-1
 36 -68 l 1,52,-1
 14 47 l 1,53,-1
 27 99 l 1,54,55
 41 122 41 122 113 196 c 0,56,57
 218 304 218 304 230 423 c 0,58,59
 235 472 235 472 247 642.5 c 128,-1,60
 259 813 259 813 314 1119 c 1,61,62
 325 1281 325 1281 504 1394 c 0,63,64
 577 1438 577 1438 617 1438 c 128,-1,65
 657 1438 657 1438 683.5 1436.5 c 128,-1,66
 710 1435 710 1435 734.5 1432 c 128,-1,67
 759 1429 759 1429 782 1424.5 c 128,-1,68
 805 1420 805 1420 825 1414 c 0,69,70
 909 1389 909 1389 962.5 1348 c 128,-1,71
 1016 1307 1016 1307 1031 1277 c 128,-1,72
 1046 1247 1046 1247 1046 1193 c 2,73,-1
 1046 1188 l 2,0,1
EndSplineSet
Validated: 1
EndChar

StartChar: section
Encoding: 167 167 92
Width: 994
VWidth: 1894
Flags: W
HStem: -88 160<247.516 461.904> 434 179<320.406 468> 805 198<517.454 701.833> 1232 172<417.141 715.043>
VStem: 716 242<716.219 802.311 1143.88 1268.73>
LayerCount: 2
Fore
SplineSet
247 108 m 1,0,1
 261 72 261 72 300 72 c 0,2,3
 405 72 405 72 463 116.5 c 128,-1,4
 521 161 521 161 563 221.5 c 128,-1,5
 605 282 605 282 609 297 c 1,6,-1
 612 337 l 1,7,8
 604 353 604 353 564 393.5 c 128,-1,9
 524 434 524 434 510 434 c 128,-1,10
 496 434 496 434 412 410 c 128,-1,11
 328 386 328 386 283 386 c 0,12,13
 98 386 98 386 41 530 c 1,14,-1
 23 614 l 1,15,-1
 29 680 l 1,16,17
 37 720 37 720 75 757 c 128,-1,18
 113 794 113 794 118 810 c 1,19,-1
 118 816 l 2,20,21
 118 832 118 832 100 866 c 128,-1,22
 82 900 82 900 74 920 c 1,23,-1
 59 920 l 1,24,-1
 77 1050 l 1,25,26
 93 1136 93 1136 165 1214 c 128,-1,27
 237 1292 237 1292 305 1325.5 c 128,-1,28
 373 1359 373 1359 480 1381.5 c 128,-1,29
 587 1404 587 1404 652 1404 c 128,-1,30
 717 1404 717 1404 767 1393 c 128,-1,31
 817 1382 817 1382 825 1380 c 128,-1,32
 833 1378 833 1378 841 1375.5 c 128,-1,33
 849 1373 849 1373 856.5 1371 c 128,-1,34
 864 1369 864 1369 870.5 1366 c 128,-1,35
 877 1363 877 1363 883 1360.5 c 128,-1,36
 889 1358 889 1358 894.5 1355 c 128,-1,37
 900 1352 900 1352 905 1349 c 128,-1,38
 910 1346 910 1346 915 1342 c 0,39,40
 958 1308 958 1308 958 1254 c 0,41,42
 958 1163 958 1163 942.5 1140 c 128,-1,43
 927 1117 927 1117 923 1112 c 128,-1,44
 919 1107 919 1107 914.5 1102 c 128,-1,45
 910 1097 910 1097 905 1092.5 c 128,-1,46
 900 1088 900 1088 894 1083 c 0,47,48
 836 1036 836 1036 776.5 1036 c 128,-1,49
 717 1036 717 1036 686 1046 c 1,50,-1
 654 1083 l 1,51,-1
 715 1178 l 1,52,53
 716 1186 716 1186 716 1200 c 0,54,55
 716 1232 716 1232 629 1232 c 2,56,-1
 525 1232 l 1,57,58
 428 1230 428 1230 335 1094 c 0,59,60
 316 1067 316 1067 316 1052 c 0,61,62
 316 1020 316 1020 351 976.5 c 128,-1,63
 386 933 386 933 424 933 c 2,64,-1
 431 933 l 2,65,66
 448 933 448 933 542.5 968 c 128,-1,67
 637 1003 637 1003 715 1003 c 2,68,-1
 718 1003 l 1,69,70
 801 1002 801 1002 859 962 c 0,71,72
 958 894 958 894 958 818 c 2,73,-1
 958 817 l 1,74,75
 934 682 934 682 910 651 c 128,-1,76
 886 620 886 620 872 606 c 0,77,78
 844 578 844 578 817 560 c 128,-1,79
 790 542 790 542 780 533 c 1,80,81
 858 449 858 449 863 422 c 128,-1,82
 868 395 868 395 868 374 c 128,-1,83
 868 353 868 353 867 339 c 0,84,85
 856 231 856 231 834.5 188 c 128,-1,86
 813 145 813 145 765 89 c 0,87,88
 672 -19 672 -19 515.5 -53.5 c 128,-1,89
 359 -88 359 -88 316.5 -88 c 128,-1,90
 274 -88 274 -88 213 -63 c 0,91,92
 96 -17 96 -17 56 89 c 0,93,94
 37 130 37 130 37 156 c 0,95,96
 37 190 37 190 45 217 c 128,-1,97
 53 244 53 244 100.5 280 c 128,-1,98
 148 316 148 316 203 316 c 128,-1,99
 258 316 258 316 301 279 c 1,100,-1
 348 209 l 1,101,-1
 329 198 l 1,102,103
 315 175 315 175 285 156.5 c 128,-1,104
 255 138 255 138 249 123 c 1,105,-1
 249 118 l 1,106,-1
 247 108 l 1,0,1
306 619 m 1,107,108
 366 613 366 613 388 613 c 0,109,110
 393 613 393 613 396 614 c 0,111,112
 443 619 443 619 468 620 c 1,113,-1
 563 657 l 1,114,115
 680 690 680 690 702 769 c 1,116,-1
 702 771 l 1,117,118
 697 805 697 805 646.5 805 c 128,-1,119
 596 805 596 805 555 786 c 0,120,121
 485 753 485 753 424 738 c 0,122,123
 323 715 323 715 308 703 c 0,124,125
 285 684 285 684 279 657 c 1,126,-1
 306 619 l 1,107,108
EndSplineSet
Validated: 1
EndChar

StartChar: guillemotleft
Encoding: 171 171 93
Width: 1487
VWidth: 1894
Flags: W
HStem: 1040 112<776.57 817.43>
LayerCount: 2
Fore
SplineSet
825 304 m 1,0,1
 823 220 823 220 716 220 c 2,2,-1
 705 220 l 1,3,-1
 704 220 l 2,4,5
 619 224 619 224 482 330 c 1,6,7
 167 537 167 537 151 554 c 0,8,9
 121 586 121 586 121 608 c 2,10,-1
 121 644 l 1,11,-1
 133 644 l 2,12,13
 136 644 136 644 155 666 c 0,14,15
 225 746 225 746 286 799.5 c 128,-1,16
 347 853 347 853 443.5 956.5 c 128,-1,17
 540 1060 540 1060 623 1106 c 128,-1,18
 706 1152 706 1152 738 1152 c 2,19,-1
 740 1152 l 2,20,21
 778 1152 778 1152 802.5 1126.5 c 128,-1,22
 827 1101 827 1101 827 1076 c 2,23,-1
 827 1040 l 1,24,-1
 817 1040 l 1,25,26
 759 977 759 977 733 945 c 1,27,28
 727 920 727 920 626 804.5 c 128,-1,29
 525 689 525 689 521 685 c 128,-1,30
 517 681 517 681 514 677 c 128,-1,31
 511 673 511 673 508 670 c 0,32,33
 502 663 502 663 498 658 c 1,34,-1
 490 644 l 1,35,36
 548 579 548 579 775 396 c 0,37,38
 825 355 825 355 825 308 c 2,39,-1
 825 304 l 1,0,1
1355 306 m 1,40,41
 1353 222 1353 222 1246 222 c 2,42,-1
 1230 222 l 1,43,44
 1207 238 1207 238 1181 247.5 c 128,-1,45
 1155 257 1155 257 1135 265.5 c 128,-1,46
 1115 274 1115 274 1096 282 c 0,47,48
 1074 292 1074 292 891 411 c 128,-1,49
 708 530 708 530 694 544 c 0,50,51
 670 570 670 570 670 596 c 128,-1,52
 670 622 670 622 725.5 696.5 c 128,-1,53
 781 771 781 771 828.5 813 c 128,-1,54
 876 855 876 855 973 958.5 c 128,-1,55
 1070 1062 1070 1062 1153 1108 c 128,-1,56
 1236 1154 1236 1154 1268 1154 c 2,57,-1
 1309 1154 l 1,58,-1
 1309 1143 l 1,59,60
 1357 1119 1357 1119 1357 1066 c 2,61,-1
 1357 1062 l 2,62,63
 1357 1031 1357 1031 1305 987 c 128,-1,64
 1253 943 1253 943 1241 932 c 1,65,66
 1230 908 1230 908 1130.5 789 c 128,-1,67
 1031 670 1031 670 1002 643 c 1,68,-1
 996 634 l 1,69,70
 1033 584 1033 584 1140 532 c 0,71,72
 1322 445 1322 445 1339 399 c 0,73,74
 1355 356 1355 356 1355 310 c 2,75,-1
 1355 306 l 1,40,41
EndSplineSet
Validated: 1
EndChar

StartChar: guillemotright
Encoding: 187 187 94
Width: 1487
VWidth: 1894
Flags: W
LayerCount: 2
Fore
SplineSet
651 918 m 1,0,1
 653 1002 653 1002 760 1002 c 2,2,-1
 768 1002 l 1,3,-1
 774 1000 l 1,4,5
 859 994 859 994 994 892 c 1,6,7
 1309 684 1309 684 1322 671 c 128,-1,8
 1335 658 1335 658 1341 649 c 0,9,10
 1355 630 1355 630 1355 614 c 2,11,-1
 1355 598 l 1,12,-1
 1349 594 l 1,13,14
 1333 549 1333 549 1230.5 459 c 128,-1,15
 1128 369 1128 369 1032 265.5 c 128,-1,16
 936 162 936 162 853 116 c 128,-1,17
 770 70 770 70 738 70 c 2,18,-1
 722 70 l 1,19,-1
 717 74 l 1,20,21
 648 88 648 88 648 158 c 2,22,-1
 648 174 l 1,23,-1
 651 176 l 1,24,25
 648 188 648 188 648 215 c 128,-1,26
 648 242 648 242 684 272 c 0,27,28
 944 487 944 487 1004 593 c 1,29,30
 942 653 942 653 852.5 696 c 128,-1,31
 763 739 763 739 742 751 c 128,-1,32
 721 763 721 763 705 775 c 0,33,34
 651 817 651 817 651 914 c 2,35,-1
 651 918 l 1,0,1
121 916 m 1,36,37
 123 1000 123 1000 230 1000 c 2,38,-1
 238 1000 l 1,39,-1
 239 1000 l 2,40,41
 324 996 324 996 464 888 c 1,42,43
 775 687 775 687 800 660 c 128,-1,44
 825 633 825 633 825 607 c 128,-1,45
 825 581 825 581 802 553 c 0,46,47
 764 509 764 509 717 469 c 128,-1,48
 670 429 670 429 659.5 419.5 c 128,-1,49
 649 410 649 410 638.5 400.5 c 128,-1,50
 628 391 628 391 617 380.5 c 128,-1,51
 606 370 606 370 595 359.5 c 128,-1,52
 584 349 584 349 572.5 337.5 c 128,-1,53
 561 326 561 326 549 314 c 0,54,55
 526 290 526 290 465 225 c 128,-1,56
 404 160 404 160 320.5 114 c 128,-1,57
 237 68 237 68 203 68 c 128,-1,58
 169 68 169 68 143.5 93.5 c 128,-1,59
 118 119 118 119 118 156 c 2,60,-1
 118 160 l 1,61,-1
 97 219 l 1,62,63
 98 249 98 249 178.5 312.5 c 128,-1,64
 259 376 259 376 352.5 476 c 128,-1,65
 446 576 446 576 458 594 c 1,66,67
 407 650 407 650 305.5 700.5 c 128,-1,68
 204 751 204 751 181 767 c 0,69,70
 130 800 130 800 125.5 834.5 c 128,-1,71
 121 869 121 869 121 912 c 2,72,-1
 121 916 l 1,36,37
EndSplineSet
Validated: 1
EndChar

StartChar: questiondown
Encoding: 191 191 95
Width: 919
VWidth: 1894
Flags: W
HStem: 52 242<536.131 649.309> 854 20G<480.75 518.25> 952 342<360.093 603.77>
VStem: 14 242<-117.976 105.264> 293 377<1016.87 1234.67> 375 256<477.27 743.345> 680 210<-73 81.7478>
LayerCount: 2
Fore
SplineSet
431 1292 m 0,0,1
 454 1294 454 1294 502 1294 c 0,2,3
 612 1294 612 1294 660 1174 c 0,4,5
 670 1147 670 1147 670 1113 c 128,-1,6
 670 1079 670 1079 660.5 1060.5 c 128,-1,7
 651 1042 651 1042 637 1026.5 c 128,-1,8
 623 1011 623 1011 599 992 c 0,9,10
 551 952 551 952 508 952 c 2,11,-1
 472 952 l 2,12,13
 409 952 409 952 351 1003.5 c 128,-1,14
 293 1055 293 1055 293 1138 c 2,15,-1
 293 1141 l 1,16,17
 309 1279 309 1279 431 1292 c 0,0,1
631 570 m 2,18,19
 631 455 631 455 432 262 c 0,20,21
 256 91 256 91 256 -18 c 0,22,23
 256 -71 256 -71 306 -124.5 c 128,-1,24
 356 -178 356 -178 393 -178 c 128,-1,25
 430 -178 430 -178 448.5 -175.5 c 128,-1,26
 467 -173 467 -173 489 -169 c 0,27,28
 534 -160 534 -160 589 -141 c 1,29,-1
 669 -73 l 1,30,-1
 680 -6 l 1,31,32
 678 43 678 43 662 83 c 1,33,-1
 650 88 l 1,34,35
 628 85 628 85 593.5 68.5 c 128,-1,36
 559 52 559 52 530 52 c 2,37,-1
 517 52 l 1,38,-1
 479 62 l 1,39,40
 450 79 450 79 450 108 c 2,41,-1
 450 134 l 2,42,43
 450 165 450 165 486 204.5 c 128,-1,44
 522 244 522 244 557 262 c 0,45,46
 614 294 614 294 676 294 c 128,-1,47
 738 294 738 294 771 275 c 128,-1,48
 804 256 804 256 814 247.5 c 128,-1,49
 824 239 824 239 832.5 228.5 c 128,-1,50
 841 218 841 218 848 206 c 0,51,52
 890 133 890 133 890 46 c 0,53,54
 890 -155 890 -155 796 -230 c 1,55,56
 765 -289 765 -289 651 -319 c 1,57,-1
 502 -368 l 1,58,-1
 284 -338 l 1,59,60
 224 -327 224 -327 143.5 -260.5 c 128,-1,61
 63 -194 63 -194 38.5 -157 c 128,-1,62
 14 -120 14 -120 14 -64 c 0,63,64
 14 151 14 151 144 261 c 0,65,66
 155 272 155 272 250 379.5 c 128,-1,67
 345 487 345 487 365 527.5 c 128,-1,68
 385 568 385 568 385 599 c 1,69,-1
 375 711 l 1,70,-1
 375 712 l 2,71,72
 375 802 375 802 404 826 c 0,73,74
 462 874 462 874 499.5 874 c 128,-1,75
 537 874 537 874 574.5 841 c 128,-1,76
 612 808 612 808 614 775 c 2,77,-1
 631 573 l 1,78,-1
 631 570 l 2,18,19
EndSplineSet
Validated: 1
EndChar

StartChar: germandbls
Encoding: 223 223 115
Width: 1267
VWidth: 1894
Flags: W
HStem: -42 166<544.015 766.288> 1342 20G<612.5 790>
VStem: 166 238<132 500.764> 778 348<811.126 1156.09> 834 376<190.444 534.076>
LayerCount: 2
Fore
SplineSet
775 569 m 1,0,1
 694 539 694 539 655 539 c 128,-1,2
 616 539 616 539 601 542 c 0,3,4
 556 551 556 551 536 596 c 0,5,6
 531 609 531 609 531 621 c 0,7,8
 531 688 531 688 716 770 c 1,9,10
 778 869 778 869 778 990 c 0,11,12
 778 991 778 991 778 992 c 0,13,14
 778 1114 778 1114 759 1158 c 1,15,16
 729 1148 729 1148 719 1144 c 1,17,18
 447 634 447 634 404 298 c 1,19,20
 404 222 404 222 398 132 c 1,21,22
 435 180 435 180 488 180 c 0,23,24
 529 180 529 180 578 152 c 128,-1,25
 627 124 627 124 652 124 c 0,26,27
 707 124 707 124 753 158 c 0,28,29
 820 208 820 208 821 229 c 0,30,31
 834 437 834 437 834 439 c 0,32,33
 834 526 834 526 775 569 c 1,0,1
395 88 m 1,34,35
 383 -54 383 -54 357 -226 c 1,36,-1
 317 -400 l 1,37,-1
 40 -400 l 1,38,-1
 127 168 l 2,39,40
 142 269 142 269 151 295 c 0,41,42
 166 338 166 338 166 374.5 c 128,-1,43
 166 411 166 411 167.5 426 c 128,-1,44
 169 441 169 441 171.5 459 c 128,-1,45
 174 477 174 477 177.5 498.5 c 128,-1,46
 181 520 181 520 187 545 c 0,47,48
 237 788 237 788 253.5 902.5 c 128,-1,49
 270 1017 270 1017 306 1084 c 0,50,51
 343 1151 343 1151 407 1223 c 0,52,53
 532 1362 532 1362 693 1362 c 2,54,-1
 707 1362 l 1,55,56
 873 1356 873 1356 922.5 1335 c 128,-1,57
 972 1314 972 1314 1049 1209 c 128,-1,58
 1126 1104 1126 1104 1126 992.5 c 128,-1,59
 1126 881 1126 881 1077 803 c 0,60,61
 1039 743 1039 743 1032 720 c 1,62,-1
 1032 716 l 1,63,64
 1037 698 1037 698 1123.5 594 c 128,-1,65
 1210 490 1210 490 1210 368 c 2,66,-1
 1210 367 l 2,67,68
 1210 157 1210 157 996 14 c 0,69,70
 911 -42 911 -42 704 -42 c 128,-1,71
 497 -42 497 -42 446 -14.5 c 128,-1,72
 395 13 395 13 395 54 c 2,73,-1
 395 88 l 1,34,35
EndSplineSet
Validated: 1
EndChar

StartChar: quoteright
Encoding: 8217 8217 135
Width: 512
VWidth: 1894
Flags: W
HStem: 1070 468<88.0935 230.662>
VStem: 22 365<1264.48 1462.09>
LayerCount: 2
Fore
SplineSet
233 1116 m 0,0,1
 158 1070 158 1070 107 1070 c 128,-1,2
 56 1070 56 1070 55 1122 c 0,3,4
 55 1144 55 1144 68 1161 c 0,5,6
 87 1187 87 1187 87 1210 c 0,7,8
 87 1248 87 1248 54.5 1274 c 128,-1,9
 22 1300 22 1300 22 1372 c 2,10,-1
 22 1378 l 2,11,12
 22 1434 22 1434 42 1463 c 128,-1,13
 62 1492 62 1492 113 1515 c 128,-1,14
 164 1538 164 1538 205 1538 c 2,15,-1
 206 1538 l 1,16,-1
 256 1532 l 1,17,-1
 257 1531 l 1,18,19
 382 1495 382 1495 387 1360 c 1,20,-1
 387 1356 l 2,21,22
 387 1216 387 1216 233 1116 c 0,0,1
EndSplineSet
EndChar

StartChar: quotedblleft
Encoding: 8220 8220 136
Width: 972
VWidth: 1894
Flags: W
HStem: 1066 466<720.015 863.243> 1080 474<261.367 403.2>
VStem: 562 362<1119.25 1339.95>
LayerCount: 2
Fore
SplineSet
404 1398 m 1,0,1
 484 1348 484 1348 484 1228 c 0,2,3
 484 1170 484 1170 439 1125 c 128,-1,4
 394 1080 394 1080 350 1080 c 128,-1,5
 306 1080 306 1080 290 1081 c 0,6,7
 256 1084 256 1084 235.5 1097 c 128,-1,8
 215 1110 215 1110 166 1152.5 c 128,-1,9
 117 1195 117 1195 112 1214 c 0,10,11
 104 1244 104 1244 104 1286 c 128,-1,12
 104 1328 104 1328 179.5 1419.5 c 128,-1,13
 255 1511 255 1511 290.5 1532.5 c 128,-1,14
 326 1554 326 1554 354.5 1554 c 128,-1,15
 383 1554 383 1554 394 1553 c 0,16,17
 438 1549 438 1549 446.5 1528.5 c 128,-1,18
 455 1508 455 1508 455 1480.5 c 128,-1,19
 455 1453 455 1453 434 1430.5 c 128,-1,20
 413 1408 413 1408 404 1398 c 1,0,1
720 1488 m 0,21,22
 796 1532 796 1532 826 1532 c 128,-1,23
 856 1532 856 1532 887 1514 c 0,24,25
 909 1500 909 1500 909 1483 c 0,26,27
 909 1469 909 1469 895 1452 c 0,28,29
 864 1415 864 1415 864 1384 c 128,-1,30
 864 1353 864 1353 894 1327 c 128,-1,31
 924 1301 924 1301 924 1232 c 128,-1,32
 924 1163 924 1163 905 1143 c 0,33,34
 834 1066 834 1066 740 1066 c 2,35,-1
 737 1066 l 1,36,-1
 689 1072 l 1,37,-1
 688 1073 l 1,38,39
 562 1109 562 1109 562 1248 c 0,40,41
 562 1248 562 1248 562 1249 c 0,42,43
 562 1388 562 1388 720 1488 c 0,21,22
EndSplineSet
Validated: 1
EndChar

StartChar: quotedblright
Encoding: 8221 8221 137
Width: 972
VWidth: 1894
Flags: W
HStem: 1056 482
VStem: 22 365<1264.48 1462.09>
LayerCount: 2
Fore
SplineSet
233 1116 m 0,0,1
 158 1070 158 1070 107 1070 c 128,-1,2
 56 1070 56 1070 55 1122 c 0,3,4
 55 1144 55 1144 68 1161 c 0,5,6
 87 1187 87 1187 87 1210 c 0,7,8
 87 1248 87 1248 54.5 1274 c 128,-1,9
 22 1300 22 1300 22 1372 c 2,10,-1
 22 1378 l 2,11,12
 22 1434 22 1434 42 1463 c 128,-1,13
 62 1492 62 1492 113 1515 c 128,-1,14
 164 1538 164 1538 205 1538 c 2,15,-1
 206 1538 l 1,16,-1
 256 1532 l 1,17,-1
 257 1531 l 1,18,19
 382 1495 382 1495 387 1360 c 1,20,-1
 387 1356 l 2,21,22
 387 1216 387 1216 233 1116 c 0,0,1
844 1330 m 2,23,24
 844 1284 844 1284 802.5 1232 c 128,-1,25
 761 1180 761 1180 752.5 1170 c 128,-1,26
 744 1160 744 1160 736.5 1151 c 128,-1,27
 729 1142 729 1142 721.5 1134 c 128,-1,28
 714 1126 714 1126 707.5 1119 c 128,-1,29
 701 1112 701 1112 695 1106 c 128,-1,30
 689 1100 689 1100 683 1095 c 0,31,32
 640 1056 640 1056 585 1056 c 2,33,-1
 584 1056 l 1,34,-1
 526 1064 l 1,35,36
 497 1081 497 1081 497 1103 c 2,37,-1
 497 1120 l 1,38,39
 498 1157 498 1157 519 1179.5 c 128,-1,40
 540 1202 540 1202 548 1212 c 1,41,42
 464 1263 464 1263 464 1358 c 2,43,-1
 464 1362 l 2,44,45
 464 1481 464 1481 557 1519 c 0,46,47
 585 1530 585 1530 617 1530 c 2,48,-1
 622 1530 l 2,49,50
 682 1530 682 1530 706 1516 c 128,-1,51
 730 1502 730 1502 759 1477 c 128,-1,52
 788 1452 788 1452 795.5 1445 c 128,-1,53
 803 1438 803 1438 810 1430.5 c 128,-1,54
 817 1423 817 1423 822 1417 c 0,55,56
 835 1400 835 1400 844 1332 c 1,57,-1
 844 1330 l 2,23,24
EndSplineSet
Validated: 1
EndChar

StartChar: bullet
Encoding: 8226 8226 138
Width: 931
VWidth: 1894
Flags: W
HStem: 348 572<279.578 602.844>
VStem: 121 675<465.664 743.522>
LayerCount: 2
Fore
SplineSet
294 373.5 m 128,-1,1
 278 381 278 381 242 400.5 c 128,-1,2
 206 420 206 420 180 447 c 128,-1,3
 154 474 154 474 142.5 513.5 c 128,-1,4
 131 553 131 553 128.5 566 c 128,-1,5
 126 579 126 579 124 593 c 0,6,7
 121 621 121 621 121 655 c 0,8,9
 121 742 121 742 217 824.5 c 128,-1,10
 313 907 313 907 342 913.5 c 128,-1,11
 371 920 371 920 394 920 c 128,-1,12
 417 920 417 920 442 916 c 128,-1,13
 467 912 467 912 503 905 c 0,14,15
 575 890 575 890 607 873 c 1,16,-1
 684 820 l 1,17,18
 796 716 796 716 796 626.5 c 128,-1,19
 796 537 796 537 767 486 c 0,20,21
 718 401 718 401 654 374.5 c 128,-1,22
 590 348 590 348 520.5 348 c 128,-1,23
 451 348 451 348 425 348.5 c 128,-1,24
 399 349 399 349 380 350.5 c 128,-1,25
 361 352 361 352 349 354 c 128,-1,26
 337 356 337 356 323.5 361 c 128,-1,0
 310 366 310 366 294 373.5 c 128,-1,1
EndSplineSet
Validated: 1
EndChar

StartChar: Euro
Encoding: 8364 8364 139
Width: 1441
VWidth: 1894
Flags: W
HStem: -70 199<651.276 1103.73> 29 325<1184.91 1371.39> 500 161<19.3174 169.347> 522 204<812.133 1151.56> 550 176<811 1009.84> 733 197<812.229 1087.72>
VStem: 227 316<237.096 493.679> 1140 257<165.267 327.704>
LayerCount: 2
Fore
SplineSet
924 930 m 2,0,1
 1112 930 1112 930 1112 825 c 0,2,3
 1112 759 1112 759 1050 744 c 0,4,5
 1013 735 1013 735 931.5 733 c 128,-1,6
 850 731 850 731 811 726 c 1,7,8
 823 726 823 726 940.5 726 c 128,-1,9
 1058 726 1058 726 1089.5 722 c 128,-1,10
 1121 718 1121 718 1133 715 c 0,11,12
 1187 702 1187 702 1187 633 c 0,13,14
 1187 563 1187 563 1075 530 c 0,15,16
 1048 522 1048 522 1011 522 c 128,-1,17
 974 522 974 522 908.5 536 c 128,-1,18
 843 550 843 550 759 550 c 128,-1,19
 675 550 675 550 548 537 c 1,20,21
 543 463 543 463 543 396 c 0,22,23
 543 285 543 285 561 232 c 1,24,25
 663 159 663 159 723 138.5 c 128,-1,26
 783 118 783 118 883.5 118 c 128,-1,27
 984 118 984 118 1021 122 c 1,28,-1
 1021 129 l 1,29,-1
 1042 129 l 1,30,31
 1125 169 1125 169 1140 238 c 128,-1,32
 1155 307 1155 307 1184 330.5 c 128,-1,33
 1213 354 1213 354 1265 354 c 0,34,35
 1353 354 1353 354 1372 328.5 c 128,-1,36
 1391 303 1391 303 1397 283 c 0,37,38
 1408 245 1408 245 1408 160 c 0,39,40
 1408 159 1408 159 1408 158 c 0,41,42
 1408 71 1408 71 1392 48 c 0,43,44
 1365 10 1365 10 1328 10 c 2,45,-1
 1327 10 l 1,46,-1
 1273 17 l 1,47,48
 1244 29 1244 29 1236 29 c 0,49,50
 1236 29 1236 29 1235 29 c 0,51,52
 1228 28 1228 28 1214 16 c 0,53,54
 1189 -5 1189 -5 1101 -37.5 c 128,-1,55
 1013 -70 1013 -70 907 -70 c 0,56,57
 604 -70 604 -70 357 149 c 0,58,59
 280 215 280 215 264.5 248.5 c 128,-1,60
 249 282 249 282 244 305 c 0,61,62
 231 358 231 358 227 494 c 1,63,-1
 59 500 l 1,64,65
 14 519 14 519 14 584 c 2,66,-1
 14 661 l 1,67,68
 150 695 150 695 170 699 c 1,69,70
 115 717 115 717 93.5 742.5 c 128,-1,71
 72 768 72 768 72 786 c 0,72,73
 72 904 72 904 268 904 c 0,74,-1
 370 897 l 1,75,-1
 460 1065 l 1,76,77
 509 1168 509 1168 588 1269 c 0,78,79
 713 1427 713 1427 827 1432 c 1,80,-1
 851 1432 l 1,81,-1
 852 1430 l 1,82,83
 882 1429 882 1429 985.5 1416.5 c 128,-1,84
 1089 1404 1089 1404 1103 1404 c 0,85,86
 1127 1404 1127 1404 1146 1416 c 0,87,88
 1179 1436 1179 1436 1230 1436 c 0,89,90
 1321 1436 1321 1436 1322 1385 c 1,91,-1
 1323 1375 l 1,92,-1
 1323 1355 l 2,93,94
 1323 1310 1323 1310 1282.5 1256.5 c 128,-1,95
 1242 1203 1242 1203 1207.5 1180 c 128,-1,96
 1173 1157 1173 1157 1159 1150 c 0,97,98
 1128 1132 1128 1132 1064 1125 c 1,99,-1
 1064 1138 l 2,100,101
 1064 1138 1064 1138 1060 1141 c 0,102,103
 1056 1144 1056 1144 1051 1148.5 c 128,-1,104
 1046 1153 1046 1153 1041 1158 c 0,105,106
 1027 1170 1027 1170 1012 1213 c 128,-1,107
 997 1256 997 1256 972.5 1263 c 128,-1,108
 948 1270 948 1270 928 1273 c 1,109,110
 742 1116 742 1116 645 922 c 1,111,-1
 740 932 l 1,112,-1
 749 930 l 1,113,-1
 924 930 l 2,0,1
EndSplineSet
Validated: 1
EndChar

StartChar: AE
Encoding: 198 198 140
Width: 1902
VWidth: 1894
Flags: W
HStem: 94 162<1168.92 1466.4> 530 183<501 768> 1063 217<1550.37 1668.24> 1123 181<1147.24 1291> 1156 150<1255 1396 1397 1544.67> 1176 193<549.848 735>
VStem: 746 398<777.899 1123>
LayerCount: 2
Fore
SplineSet
613 712 m 2,0,1
 697 712 697 712 768 706 c 1,2,3
 755 936 755 936 746 1167 c 1,4,-1
 735 1176 l 1,5,-1
 652 1176 l 1,6,7
 616 1174 616 1174 578 1171 c 1,8,-1
 576 1171 l 1,9,10
 562 1164 562 1164 548 1146 c 1,11,12
 526 929 526 929 501 713 c 1,13,-1
 613 712 l 2,0,1
1167 594 m 1,14,15
 1155 585 1155 585 1155 552 c 1,16,-1
 1167 381 l 1,17,-1
 1163 338 l 1,18,-1
 1165 248 l 1,19,20
 1247 256 1247 256 1334 256 c 128,-1,21
 1421 256 1421 256 1580 240 c 1,22,23
 1589 250 1589 250 1609.5 279 c 128,-1,24
 1630 308 1630 308 1688 313 c 1,25,-1
 1693 313 l 2,26,27
 1768 313 1768 313 1768 230 c 0,28,29
 1768 154 1768 154 1718 103.5 c 128,-1,30
 1668 53 1668 53 1654 35 c 1,31,32
 1652 -6 1652 -6 1581 -21 c 0,33,34
 1566 -24 1566 -24 1545 -24 c 128,-1,35
 1524 -24 1524 -24 1508 -11 c 0,36,37
 1482 10 1482 10 1475 39 c 128,-1,38
 1468 68 1468 68 1463 77 c 1,39,40
 1429 94 1429 94 1360.5 94 c 128,-1,41
 1292 94 1292 94 838 4 c 1,42,-1
 830 4 l 2,43,44
 738 4 738 4 733 71 c 1,45,-1
 743 113 l 1,46,47
 760 152 760 152 803 174 c 1,48,49
 789 348 789 348 779 521 c 1,50,51
 725 522 725 522 657 527 c 0,52,53
 596 531 596 531 575 531 c 0,54,55
 573 531 573 531 571 530 c 0,56,57
 554 530 554 530 536 530 c 0,58,59
 516 530 516 530 478 522 c 1,60,61
 456 345 456 345 432 170 c 1,62,-1
 474 156 l 1,63,-1
 485 118 l 1,64,-1
 428 60 l 1,65,66
 404 17 404 17 334 11.5 c 128,-1,67
 264 6 264 6 204.5 6 c 128,-1,68
 145 6 145 6 111 15 c 0,69,70
 45 32 45 32 45 78 c 0,71,72
 45 78 45 78 45 79 c 0,73,74
 45 124 45 124 69 141 c 128,-1,75
 93 158 93 158 98 162.5 c 128,-1,76
 103 167 103 167 106.5 170.5 c 128,-1,77
 110 174 110 174 113 176 c 0,78,79
 118 181 118 181 118 183 c 2,80,-1
 154 490 l 1,81,-1
 164 666 l 1,82,-1
 162 676 l 1,83,-1
 162 680 l 2,84,85
 162 746 162 746 197 905 c 0,86,87
 256 1167 256 1167 416 1310 c 0,88,89
 480 1368 480 1368 641 1369 c 1,90,-1
 644 1369 l 2,91,92
 793 1369 793 1369 903 1285 c 1,93,94
 989 1304 989 1304 1255 1304 c 1,95,-1
 1291 1306 l 1,96,-1
 1293 1306 l 1,97,98
 1534 1304 1534 1304 1563 1295 c 0,99,100
 1610 1280 1610 1280 1620.5 1280 c 128,-1,101
 1631 1280 1631 1280 1641 1282 c 0,102,103
 1650 1288 1650 1288 1677 1324 c 128,-1,104
 1704 1360 1704 1360 1761 1360 c 0,105,106
 1848 1360 1848 1360 1848 1272 c 0,107,108
 1848 1214 1848 1214 1801 1161 c 128,-1,109
 1754 1108 1754 1108 1733 1093 c 0,110,111
 1691 1063 1691 1063 1659.5 1063 c 128,-1,112
 1628 1063 1628 1063 1614 1066 c 0,113,114
 1584 1073 1584 1073 1563 1096 c 128,-1,115
 1542 1119 1542 1119 1496 1133 c 0,116,117
 1420 1157 1420 1157 1397 1157 c 0,118,119
 1397 1157 1397 1157 1396 1156 c 0,120,121
 1374 1156 1374 1156 1289.5 1139.5 c 128,-1,122
 1205 1123 1205 1123 1153 1123 c 2,123,-1
 1144 1123 l 1,124,-1
 1144 773 l 1,125,126
 1147 774 1147 774 1149.5 775 c 128,-1,127
 1152 776 1152 776 1155.5 776.5 c 128,-1,128
 1159 777 1159 777 1163.5 778 c 128,-1,129
 1168 779 1168 779 1174 779.5 c 128,-1,130
 1180 780 1180 780 1186 781 c 128,-1,131
 1192 782 1192 782 1200 783 c 0,132,133
 1215 785 1215 785 1241 787 c 0,134,135
 1297 792 1297 792 1305 807 c 0,136,137
 1321 837 1321 837 1353 837 c 2,138,-1
 1357 837 l 1,139,-1
 1426 820 l 1,140,141
 1429 784 1429 784 1455 759 c 0,142,143
 1479 736 1479 736 1479 717 c 0,144,145
 1479 716 1479 716 1479 715 c 0,146,147
 1478 642 1478 642 1407 567 c 0,148,149
 1367 525 1367 525 1301 524 c 0,150,-1
 1300 524 l 0,151,152
 1233 525 1233 525 1167 594 c 1,14,15
EndSplineSet
Validated: 1
EndChar

StartChar: ae
Encoding: 230 230 141
Width: 1591
VWidth: 1894
Flags: W
HStem: -20 180<956.622 1208.4> 6 169<399.387 558.633> 688 178<399.992 669.393> 746 138<988.407 1115.51>
VStem: 62 291<214.607 392.438> 1221 305<175.019 309.427>
LayerCount: 2
Fore
SplineSet
945 528 m 1,0,1
 955 525 955 525 959 517 c 1,2,3
 995 520 995 520 1121 545 c 1,4,5
 1132 574 1132 574 1132 585 c 2,6,-1
 1132 602 l 2,7,8
 1132 718 1132 718 1078 746 c 1,9,10
 1023 744 1023 744 965 680 c 1,11,12
 955 604 955 604 945 528 c 1,0,1
490 6 m 0,13,14
 65 6 65 6 62 260 c 0,15,16
 62 288 62 288 78 346 c 0,17,18
 107 449 107 449 135 471 c 0,19,20
 200 526 200 526 356 548 c 2,21,-1
 540 573 l 1,22,-1
 680 563 l 1,23,-1
 680 564 l 1,24,25
 680 576 680 576 681 586 c 0,26,27
 681 629 681 629 672 640 c 0,28,29
 633 688 633 688 485 688 c 2,30,-1
 414 688 l 1,31,32
 410 678 410 678 406 666 c 0,33,34
 399 645 399 645 397 642 c 0,35,36
 395 638 395 638 394 636 c 0,37,38
 376 592 376 592 350 587 c 1,39,-1
 280 556 l 1,40,41
 226 550 226 550 195 550 c 0,42,43
 170 550 170 550 160 554 c 0,44,45
 139 563 139 563 136 597 c 1,46,-1
 135 598 l 1,47,-1
 135 603 l 2,48,49
 135 623 135 623 145 645.5 c 128,-1,50
 155 668 155 668 169.5 702 c 128,-1,51
 184 736 184 736 189 744 c 0,52,53
 197 756 197 756 266.5 811 c 128,-1,54
 336 866 336 866 421 866 c 0,55,56
 588 866 588 866 678 830 c 1,57,-1
 790 778 l 1,58,59
 798 772 798 772 809 762 c 1,60,61
 912 884 912 884 1052 884 c 2,62,-1
 1054 884 l 2,63,64
 1282 884 1282 884 1378 785 c 0,65,66
 1406 756 1406 756 1468.5 681.5 c 128,-1,67
 1531 607 1531 607 1531 485 c 0,68,69
 1531 384 1531 384 1372 383 c 0,70,71
 1370 383 1370 383 1369 383 c 1,72,-1
 1214 395 l 1,73,-1
 1213 396 l 1,74,-1
 1212 396 l 0,75,76
 1168 396 1168 396 969 350 c 1,77,78
 956 276 956 276 943 215 c 1,79,80
 984 183 984 183 994.5 180 c 128,-1,81
 1005 177 1005 177 1085 160 c 1,82,-1
 1100 160 l 2,83,84
 1220 160 1220 160 1221 251 c 0,85,86
 1223 319 1223 319 1306 343 c 1,87,-1
 1370 347 l 1,88,-1
 1439 328 l 2,89,90
 1526 304 1526 304 1526 216.5 c 128,-1,91
 1526 129 1526 129 1516 108 c 0,92,93
 1500 74 1500 74 1432 60 c 0,94,95
 1364 44 1364 44 1322 26 c 0,96,97
 1218 -20 1218 -20 1103 -20 c 0,98,99
 983 -20 983 -20 852 31 c 0,100,101
 800 50 800 50 726 104 c 1,102,103
 714 98 714 98 696 86 c 0,104,105
 572 6 572 6 490 6 c 0,13,14
407 200 m 1,106,107
 453 189 453 189 471 180 c 0,108,109
 482 175 482 175 492 175 c 0,110,111
 515 175 515 175 538 198 c 0,112,113
 571 232 571 232 597 252.5 c 128,-1,114
 623 273 623 273 627 280 c 0,115,116
 629 290 629 290 629 344.5 c 128,-1,117
 629 399 629 399 623.5 410.5 c 128,-1,118
 618 422 618 422 610 425 c 0,119,120
 588 434 588 434 525 434 c 0,121,122
 458 434 458 434 425 425 c 1,123,124
 354 347 354 347 353 314 c 1,125,-1
 353 313 l 2,126,127
 354 253 354 253 407 200 c 1,106,107
EndSplineSet
Validated: 1
EndChar

StartChar: dotlessi
Encoding: 305 305 142
Width: 665
VWidth: 1894
Flags: W
HStem: 0 177<516 590.398>
VStem: 149 367<177 408.891>
LayerCount: 2
Fore
SplineSet
360.5 845 m 128,-1,1
 394 845 394 845 418 846 c 1,2,3
 450 823 450 823 483 801 c 1,4,5
 511 478 511 478 516 177 c 1,6,-1
 607 174 l 1,7,-1
 607 95 l 2,8,9
 607 0 607 0 437 0 c 0,10,11
 379 0 379 0 301 29 c 0,12,13
 149 86 149 86 149 261 c 0,14,15
 149 335 149 335 156 350 c 0,16,17
 166 374 166 374 166 384.5 c 128,-1,18
 166 395 166 395 166 397.5 c 128,-1,19
 166 400 166 400 166 402 c 0,20,21
 166 406 166 406 166 409 c 0,22,23
 55 429 55 429 55 498 c 0,24,25
 55 553 55 553 107.5 668.5 c 128,-1,26
 160 784 160 784 168.5 815 c 128,-1,27
 177 846 177 846 269 846 c 2,28,-1
 280 846 l 1,29,0
 327 845 327 845 360.5 845 c 128,-1,1
EndSplineSet
Validated: 1
EndChar

StartChar: uni0237
Encoding: 567 567 143
Width: 611
VWidth: 1894
Flags: W
HStem: -400 188<83.0947 160.757> 840 20G<339 454>
VStem: 180 362<-200.093 353>
LayerCount: 2
Fore
SplineSet
150 350 m 1,0,1
 131 369 131 369 113 384 c 1,2,-1
 87 423 l 1,3,4
 83 434 83 434 82 445 c 1,5,-1
 80 449 l 1,6,7
 102 653 102 653 140 745 c 128,-1,8
 178 837 178 837 198 840 c 0,9,10
 311 860 311 860 367 860 c 0,11,12
 541 860 541 860 542 771 c 0,13,14
 542 770 542 770 531 250 c 128,-1,15
 520 -270 520 -270 508 -305.5 c 128,-1,16
 496 -341 496 -341 430.5 -370.5 c 128,-1,17
 365 -400 365 -400 295 -400 c 2,18,-1
 225 -400 l 2,19,20
 178 -400 178 -400 93 -379 c 0,21,22
 -68 -338 -68 -338 -68 -248 c 2,23,-1
 -68 -244 l 2,24,25
 -68 -206 -68 -206 -37 -167 c 1,26,-1
 -34 -159 l 1,27,-1
 12 -142 l 1,28,-1
 51 -148 l 1,29,30
 74 -156 74 -156 85 -177 c 0,31,32
 102 -209 102 -209 111 -212 c 0,33,34
 122 -216 122 -216 162 -202 c 1,35,36
 178 -143 178 -143 194 177 c 1,37,-1
 180 353 l 1,38,-1
 160 350 l 1,39,-1
 150 350 l 1,0,1
EndSplineSet
Validated: 1
EndChar

StartChar: degree
Encoding: 176 176 144
Width: 800
VWidth: 1894
Flags: W
HStem: 1124 125<319.502 457.327> 1390 139<334.367 464.306>
VStem: 142 175<1256.57 1368.87> 471 178<1259.91 1382.8>
LayerCount: 2
Fore
SplineSet
394 1529 m 0,0,1
 492 1529 492 1529 539 1508 c 0,2,3
 649 1463 649 1463 649 1364 c 2,4,-1
 649 1353 l 2,5,6
 649 1266 649 1266 600 1208 c 0,7,8
 526 1124 526 1124 427 1124 c 2,9,-1
 360 1124 l 2,10,11
 224 1124 224 1124 170 1222 c 0,12,13
 142 1273 142 1273 142 1319.5 c 128,-1,14
 142 1366 142 1366 159 1403 c 0,15,16
 211 1529 211 1529 394 1529 c 0,0,1
400 1249 m 2,17,18
 419 1249 419 1249 445 1275 c 128,-1,19
 471 1301 471 1301 471 1339 c 128,-1,20
 471 1377 471 1377 459 1383 c 0,21,22
 447 1390 447 1390 426 1390 c 128,-1,23
 405 1390 405 1390 370 1373 c 0,24,25
 317 1348 317 1348 317 1296 c 0,26,27
 317 1260 317 1260 398 1249 c 1,28,-1
 400 1249 l 2,17,18
EndSplineSet
Validated: 1
EndChar

StartChar: registered
Encoding: 174 174 145
Width: 1565
VWidth: 1894
Flags: W
HStem: 394 160<507.594 959.891> 1088 178<751.947 831.351> 1290 156<556.958 974.852>
VStem: 116 202<805.148 1099.05>
LayerCount: 2
Fore
SplineSet
116 928 m 0,0,1
 116 960 116 960 137 1030.5 c 128,-1,2
 158 1101 158 1101 177 1133.5 c 128,-1,3
 196 1166 196 1166 254.5 1212 c 128,-1,4
 313 1258 313 1258 345 1280 c 0,5,6
 584 1446 584 1446 743 1446 c 0,7,8
 882 1446 882 1446 927.5 1434.5 c 128,-1,9
 973 1423 973 1423 1031 1390 c 0,10,11
 1128 1335 1128 1335 1167.5 1325 c 128,-1,12
 1207 1315 1207 1315 1264 1282 c 0,13,14
 1360 1227 1360 1227 1398.5 1179.5 c 128,-1,15
 1437 1132 1437 1132 1437 1050 c 128,-1,16
 1437 968 1437 968 1423 925 c 0,17,18
 1400 853 1400 853 1345 753 c 128,-1,19
 1290 653 1290 653 1263 625 c 0,20,21
 1219 578 1219 578 1168 520 c 128,-1,22
 1117 462 1117 462 1029 428 c 128,-1,23
 941 394 941 394 747.5 394 c 128,-1,24
 554 394 554 394 450 436 c 0,25,26
 302 496 302 496 209 599.5 c 128,-1,27
 116 703 116 703 116 928 c 0,0,1
1136 1123 m 1,28,29
 1114 1137 1114 1137 1065 1184 c 0,30,31
 952 1290 952 1290 760 1290 c 0,32,33
 656 1290 656 1290 549.5 1253.5 c 128,-1,34
 443 1217 443 1217 350 1091 c 0,35,36
 318 1048 318 1048 318 1024 c 0,37,38
 318 852 318 852 377 784 c 0,39,40
 490 650 490 650 498 610 c 0,41,42
 505 572 505 572 717 556 c 0,43,44
 744 554 744 554 793 554 c 0,45,46
 935 554 935 554 1026 651 c 0,47,48
 1122 754 1122 754 1190 892 c 1,49,-1
 1170 1026 l 1,50,-1
 1136 1123 l 1,28,29
536 1021 m 1,51,52
 476 958 476 958 428 956 c 2,53,-1
 427 956 l 1,54,-1
 421 956 l 2,55,56
 356 956 356 956 356 1024 c 0,57,58
 356 1053 356 1053 388 1110 c 0,59,60
 478 1266 478 1266 770 1266 c 0,61,62
 876 1266 876 1266 964 1187.5 c 128,-1,63
 1052 1109 1052 1109 1052 1055.5 c 128,-1,64
 1052 1002 1052 1002 1034 958 c 128,-1,65
 1016 914 1016 914 1005 906 c 128,-1,66
 994 898 994 898 995 890.5 c 128,-1,67
 996 883 996 883 1029 851 c 128,-1,68
 1062 819 1062 819 1062 790.5 c 128,-1,69
 1062 762 1062 762 1058.5 750.5 c 128,-1,70
 1055 739 1055 739 1048 728 c 0,71,72
 995 640 995 640 893 640 c 2,73,-1
 795 640 l 1,74,-1
 813 773 l 1,75,-1
 779 774 l 1,76,77
 757 770 757 770 755 730 c 1,78,-1
 757 693 l 1,79,-1
 751 650 l 1,80,81
 734 617 734 617 699.5 615.5 c 128,-1,82
 665 614 665 614 624.5 614 c 128,-1,83
 584 614 584 614 551 640 c 128,-1,84
 518 666 518 666 518 704 c 1,85,-1
 537 979 l 1,86,87
 539 978 539 978 536 1021 c 1,51,52
750 957 m 1,88,89
 836 1003 836 1003 844 1028 c 1,90,91
 842 1038 842 1038 809.5 1063 c 128,-1,92
 777 1088 777 1088 750 1088 c 2,93,-1
 745 1088 l 1,94,-1
 750 957 l 1,88,89
EndSplineSet
Validated: 1
EndChar

StartChar: copyright
Encoding: 169 169 146
Width: 1715
VWidth: 1894
Flags: W
HStem: 320 184<591.373 729 731 1102.8> 556 156<719.27 917.984> 634 252<1000 1147.72> 1054 154<746.881 954.805> 1296 138<702.498 1138.87>
VStem: 116 250<692.643 945.268> 450 198<775.086 962.439> 1368 217<776.566 1041.49>
LayerCount: 2
Fore
SplineSet
912.5 1434 m 128,-1,1
 1055 1434 1055 1434 1087 1418 c 0,2,3
 1141 1392 1141 1392 1220 1374.5 c 128,-1,4
 1299 1357 1299 1357 1385.5 1295 c 128,-1,5
 1472 1233 1472 1233 1519.5 1172.5 c 128,-1,6
 1567 1112 1567 1112 1576 1084 c 128,-1,7
 1585 1056 1585 1056 1585 996 c 2,8,-1
 1585 900 l 2,9,10
 1585 849 1585 849 1565 817 c 128,-1,11
 1545 785 1545 785 1537 770 c 0,12,13
 1522 742 1522 742 1511.5 709 c 128,-1,14
 1501 676 1501 676 1451 617 c 128,-1,15
 1401 558 1401 558 1377 533 c 0,16,17
 1176 320 1176 320 878 320 c 0,18,19
 646 320 646 320 455.5 391 c 128,-1,20
 265 462 265 462 164 603 c 0,21,22
 132 651 132 651 124 683 c 128,-1,23
 116 715 116 715 116 767 c 128,-1,24
 116 819 116 819 117 839 c 0,25,26
 118 880 118 880 123.5 906.5 c 128,-1,27
 129 933 129 933 163 974.5 c 128,-1,28
 197 1016 197 1016 203 1036 c 0,29,30
 212 1068 212 1068 348 1201 c 128,-1,31
 484 1334 484 1334 608 1369 c 0,32,33
 666 1389 666 1389 718 1411.5 c 128,-1,0
 770 1434 770 1434 912.5 1434 c 128,-1,1
1115 1214 m 1,34,35
 1188 1214 1188 1214 1188 1139 c 2,36,-1
 1188 1138 l 2,37,38
 1188 1043 1188 1043 1088 988 c 0,39,40
 1067 976 1067 976 1048 976 c 2,41,-1
 1044 976 l 1,42,43
 1001 981 1001 981 988 1005 c 128,-1,44
 975 1029 975 1029 970 1036 c 0,45,46
 961 1049 961 1049 955 1051.5 c 128,-1,47
 949 1054 949 1054 913 1054 c 128,-1,48
 877 1054 877 1054 858 1051.5 c 128,-1,49
 839 1049 839 1049 820.5 1043.5 c 128,-1,50
 802 1038 802 1038 784.5 1030 c 128,-1,51
 767 1022 767 1022 751 1012 c 0,52,53
 718 991 718 991 686.5 956 c 128,-1,54
 655 921 655 921 653 909.5 c 128,-1,55
 651 898 651 898 650 892 c 0,56,57
 648 880 648 880 648 871.5 c 128,-1,58
 648 863 648 863 649 857 c 0,59,60
 662 792 662 792 692.5 772.5 c 128,-1,61
 723 753 723 753 744 742 c 128,-1,62
 765 731 765 731 779 724 c 0,63,64
 805 712 805 712 814 712 c 128,-1,65
 823 712 823 712 836 716 c 0,66,67
 938 746 938 746 947.5 805 c 128,-1,68
 957 864 957 864 1000 883 c 1,69,-1
 1026 886 l 1,70,-1
 1028 886 l 2,71,72
 1062 886 1062 886 1118 857.5 c 128,-1,73
 1174 829 1174 829 1190 807 c 0,74,75
 1217 770 1217 770 1217 716 c 2,76,-1
 1217 630 l 1,77,78
 1258 666 1258 666 1304 716 c 128,-1,79
 1350 766 1350 766 1356 815 c 0,80,81
 1368 897 1368 897 1368 961.5 c 128,-1,82
 1368 1026 1368 1026 1352 1042 c 0,83,84
 1244 1145 1244 1145 1220 1181 c 128,-1,85
 1196 1217 1196 1217 1183.5 1226.5 c 128,-1,86
 1171 1236 1171 1236 1152 1245 c 0,87,88
 1112 1266 1112 1266 1046 1286 c 1,89,-1
 946 1282 l 1,90,91
 881 1282 881 1282 861 1289 c 128,-1,92
 841 1296 841 1296 835 1296 c 128,-1,93
 829 1296 829 1296 824 1295.5 c 128,-1,94
 819 1295 819 1295 807 1291 c 0,95,96
 635 1230 635 1230 618 1205 c 0,97,98
 590 1165 590 1165 562 1158 c 128,-1,99
 534 1151 534 1151 527 1131 c 0,100,101
 517 1103 517 1103 441.5 994 c 128,-1,102
 366 885 366 885 366 819 c 0,103,104
 366 680 366 680 569 559 c 0,105,106
 665 502 665 502 729 499 c 1,107,-1
 731 500 l 1,108,-1
 987 504 l 1,109,110
 1098 525 1098 525 1214 627 c 1,111,-1
 1118 634 l 1,112,-1
 1110 634 l 1,113,114
 1076 632 1076 632 1001.5 594 c 128,-1,115
 927 556 927 556 859.5 556 c 128,-1,116
 792 556 792 556 729 568 c 0,117,118
 450 628 450 628 450 854 c 2,119,-1
 450 894 l 2,120,121
 450 950 450 950 489 971 c 1,122,-1
 507 1012 l 1,123,124
 513 1022 513 1022 560 1069 c 128,-1,125
 607 1116 607 1116 697.5 1162 c 128,-1,126
 788 1208 788 1208 893 1208 c 2,127,-1
 894 1208 l 1,128,-1
 1024 1196 l 1,129,-1
 1115 1214 l 1,34,35
EndSplineSet
Validated: 1
EndChar

StartChar: oslash
Encoding: 248 248 147
Width: 1211
VWidth: 1894
Flags: W
HStem: -30 217<472.353 637> 742 140<640.515 733.024>
VStem: 797 332<270.718 516.258>
LayerCount: 2
Fore
SplineSet
736 738 m 1,0,1
 721 742 721 742 711 742 c 1,2,-1
 593 718 l 1,3,-1
 542 720 l 1,4,5
 456 637 456 637 446 616 c 0,6,7
 430 579 430 579 409 470 c 1,8,-1
 409 463 l 2,9,10
 409 441 409 441 419 432 c 1,11,-1
 734 735 l 2,12,13
 735 737 735 737 736 738 c 1,0,1
150 143 m 1,14,15
 113 187 113 187 45 340 c 1,16,17
 65 532 65 532 99 602 c 128,-1,18
 133 672 133 672 167 705 c 128,-1,19
 201 738 201 738 213.5 749 c 128,-1,20
 226 760 226 760 237 769 c 0,21,22
 286 808 286 808 405 845 c 128,-1,23
 524 882 524 882 626 882 c 128,-1,24
 728 882 728 882 865 834 c 1,25,26
 930 891 930 891 966 891 c 2,27,-1
 981 891 l 1,28,-1
 984 888 l 1,29,30
 1012 881 1012 881 1080 811 c 1,31,-1
 1024 750 l 1,32,33
 1108 684 1108 684 1127 640 c 1,34,-1
 1158 480 l 1,35,-1
 1158 478 l 2,36,37
 1158 444 1158 444 1143.5 418.5 c 128,-1,38
 1129 393 1129 393 1129 350.5 c 128,-1,39
 1129 308 1129 308 1088.5 221.5 c 128,-1,40
 1048 135 1048 135 1004 80 c 0,41,42
 920 -30 920 -30 723.5 -30 c 128,-1,43
 527 -30 527 -30 443.5 -2.5 c 128,-1,44
 360 25 360 25 320 41 c 1,45,46
 277 -5 277 -5 253.5 -22 c 128,-1,47
 230 -39 230 -39 180 -39 c 2,48,-1
 172 -39 l 1,49,50
 133 -37 133 -37 108 -17.5 c 128,-1,51
 83 2 83 2 83 36.5 c 128,-1,52
 83 71 83 71 111 100.5 c 128,-1,53
 139 130 139 130 150 143 c 1,14,15
771 519 m 1,54,55
 715 458 715 458 617 349 c 128,-1,56
 519 240 519 240 470 187 c 1,57,58
 522 189 522 189 637 189 c 1,59,-1
 701 217 l 1,60,-1
 761 269 l 1,61,62
 797 324 797 324 797 377.5 c 128,-1,63
 797 431 797 431 771 519 c 1,54,55
EndSplineSet
Validated: 1
EndChar

StartChar: Oslash
Encoding: 216 216 148
Width: 1551
VWidth: 1894
Flags: W
HStem: 1228 172<607.181 936.489>
VStem: 48 353<453 939.942> 1133 359<448.715 990.22>
LayerCount: 2
Fore
SplineSet
938 1215 m 1,0,1
 901 1228 901 1228 795.5 1228 c 128,-1,2
 690 1228 690 1228 613 1198 c 1,3,4
 548 1138 548 1138 498 1061 c 0,5,6
 402 910 402 910 401 555 c 1,7,-1
 401 526 l 2,8,9
 401 479 401 479 402 453 c 1,10,11
 569 673 569 673 689 852 c 1,12,-1
 938 1215 l 1,0,1
716 1400 m 1,13,14
 929 1389 929 1389 1049 1359 c 1,15,16
 1064 1375 1064 1375 1088 1402 c 128,-1,17
 1112 1429 1112 1429 1150 1429 c 2,18,-1
 1155 1429 l 2,19,20
 1188 1429 1188 1429 1218 1404 c 2,21,-1
 1268 1363 l 1,22,-1
 1225 1279 l 1,23,24
 1330 1210 1330 1210 1361 1163 c 0,25,26
 1408 1093 1408 1093 1445 999 c 0,27,28
 1492 879 1492 879 1492 812 c 128,-1,29
 1492 745 1492 745 1482.5 602 c 128,-1,30
 1473 459 1473 459 1371.5 270 c 128,-1,31
 1270 81 1270 81 1089 17 c 1,32,33
 1020 -10 1020 -10 963 -27 c 1,34,-1
 859 -42 l 1,35,-1
 657 -20 l 1,36,-1
 478 20 l 1,37,38
 440 31 440 31 390 51 c 1,39,40
 344 -18 344 -18 321.5 -42.5 c 128,-1,41
 299 -67 299 -67 241 -69 c 1,42,-1
 232 -69 l 2,43,44
 191 -69 191 -69 166.5 -46.5 c 128,-1,45
 142 -24 142 -24 142 12 c 2,46,-1
 142 21 l 1,47,48
 144 49 144 49 167 83 c 128,-1,49
 190 117 190 117 212 151 c 1,50,51
 143 218 143 218 105 303 c 0,52,53
 68 389 68 389 60 439 c 1,54,-1
 48 573 l 1,55,-1
 48 574 l 2,56,57
 48 635 48 635 62.5 767 c 128,-1,58
 77 899 77 899 90.5 937 c 128,-1,59
 104 975 104 975 113 999 c 0,60,61
 187 1184 187 1184 214 1218 c 0,62,63
 256 1273 256 1273 367.5 1332.5 c 128,-1,64
 479 1392 479 1392 716 1400 c 1,13,14
496 188 m 1,65,66
 682 113 682 113 735 113 c 1,67,68
 834 125 834 125 915 163 c 1,69,70
 963 229 963 229 994 268 c 0,71,72
 1133 445 1133 445 1133 757 c 2,73,-1
 1133 783 l 1,74,75
 1131 902 1131 902 1088 1030 c 1,76,-1
 879 704 l 1,77,-1
 718 470 l 1,78,-1
 496 188 l 1,65,66
EndSplineSet
Validated: 1
EndChar

StartChar: oe
Encoding: 339 339 149
Width: 1755
VWidth: 1894
Flags: W
HStem: -22 178<494.08 676.622 1176 1371.54> 378 144<1086.63 1337.34> 697 173<557.959 674.637>
LayerCount: 2
Fore
SplineSet
1086 524 m 1,0,1
 1106 522 1106 522 1140 522 c 128,-1,2
 1174 522 1174 522 1360 572 c 1,3,4
 1357 623 1357 623 1329.5 659 c 128,-1,5
 1302 695 1302 695 1298 715 c 128,-1,6
 1294 735 1294 735 1273 738 c 1,7,8
 1136 633 1136 633 1086 524 c 1,0,1
884 96 m 1,9,10
 796 -22 796 -22 628 -22 c 0,11,12
 362 -22 362 -22 190 98 c 0,13,14
 135 136 135 136 91.5 224.5 c 128,-1,15
 48 313 48 313 45 343 c 1,16,17
 82 689 82 689 256 788 c 0,18,19
 404 870 404 870 537 870 c 0,20,21
 768 870 768 870 930 707 c 1,22,23
 1044 876 1044 876 1204 876 c 2,24,-1
 1206 876 l 2,25,26
 1387 876 1387 876 1483 817 c 0,27,28
 1515 797 1515 797 1598 696.5 c 128,-1,29
 1681 596 1681 596 1681 474 c 0,30,31
 1680 370 1680 370 1521 369 c 0,32,33
 1520 369 1520 369 1519 369 c 1,34,-1
 1518 369 l 1,35,36
 1414 378 1414 378 1337 378 c 0,37,38
 1259 378 1259 378 1210 369 c 0,39,40
 1113 351 1113 351 1065 341 c 1,41,42
 1087 248 1087 248 1176 151 c 1,43,-1
 1253 146 l 2,44,45
 1255 146 1255 146 1256 146 c 0,46,47
 1280 146 1280 146 1322 166 c 0,48,49
 1368 188 1368 188 1376 204 c 0,50,51
 1386 220 1386 220 1386 248 c 0,52,53
 1387 310 1387 310 1456 317 c 1,54,-1
 1510 330 l 1,55,-1
 1589 305 l 1,56,57
 1676 245 1676 245 1676 195 c 0,58,59
 1676 116 1676 116 1663 89.5 c 128,-1,60
 1650 63 1650 63 1582 49 c 128,-1,61
 1514 35 1514 35 1472 18 c 0,62,63
 1369 -24 1369 -24 1212 -24 c 128,-1,64
 1055 -24 1055 -24 884 96 c 1,9,10
614 697 m 1,65,-1
 528 675 l 1,66,-1
 525 675 l 1,67,-1
 502 676 l 1,68,69
 419 643 419 643 392 503 c 0,70,71
 378 431 378 431 378 379 c 128,-1,72
 378 327 378 327 396 306 c 0,73,74
 480 195 480 195 492 176 c 1,75,76
 559 156 559 156 569 156 c 2,77,-1
 576 156 l 2,78,79
 634 156 634 156 678 179 c 128,-1,80
 722 202 722 202 762 299 c 1,81,-1
 762 331 l 1,82,-1
 767 378 l 1,83,84
 743 571 743 571 697 626.5 c 128,-1,85
 651 682 651 682 644 688 c 0,86,87
 633 697 633 697 616 697 c 2,88,-1
 614 697 l 1,65,-1
EndSplineSet
Validated: 1
EndChar

StartChar: OE
Encoding: 338 338 150
Width: 2043
VWidth: 1894
Flags: W
HStem: -42 168<602.087 734> 102 159<1283 1584.84> 1071 219<1674.01 1800.55> 1146 168<1275.39 1397.58 1540.16 1689.42> 1370 10G<476 727 1853.5 1925.5>
VStem: 50 354<438 933.73> 910 365<434.75 600 799.938 1022.99>
LayerCount: 2
Fore
SplineSet
734 137 m 1,0,1
 910 443 910 443 910 716 c 2,2,3
 910 716 910 716 910 719 c 2,4,5
 910 1046 910 1046 744 1248 c 1,6,7
 744 1248 744 1248 726 1248 c 2,8,9
 677 1248 677 1248 625.5 1230.5 c 128,-1,10
 574 1213 574 1213 553 1207 c 1,11,12
 404 895 404 895 404 653 c 0,13,14
 404 301 404 301 515 147 c 1,15,16
 569 130 569 130 682 126 c 1,17,-1
 734 137 l 1,0,1
1369 807 m 1,18,-1
 1472 840 l 1,19,20
 1476 840 1476 840 1480 842 c 1,21,-1
 1485 842 l 1,22,-1
 1545 827 l 1,23,24
 1601 793 1601 793 1602 759 c 0,25,26
 1601 646 1601 646 1566 614 c 2,27,-1
 1530 580 l 2,28,29
 1511 562 1511 562 1497 562 c 2,30,-1
 1482 562 l 2,31,32
 1436 562 1436 562 1364 623 c 1,33,-1
 1288 600 l 1,34,35
 1283 557 1283 557 1270 464.5 c 128,-1,36
 1257 372 1257 372 1255 334 c 1,37,-1
 1283 271 l 1,38,-1
 1464 261 l 1,39,-1
 1498 261 l 2,40,41
 1584 261 1584 261 1701 249 c 1,42,43
 1711 260 1711 260 1733.5 291 c 128,-1,44
 1756 322 1756 322 1811 322 c 2,45,-1
 1816 322 l 2,46,47
 1891 322 1891 322 1891 236 c 2,48,-1
 1891 232 l 2,49,50
 1891 162 1891 162 1841.5 112 c 128,-1,51
 1792 62 1792 62 1778 44 c 1,52,53
 1775 12 1775 12 1737.5 -2 c 128,-1,54
 1700 -16 1700 -16 1680 -16 c 0,55,56
 1612 -16 1612 -16 1602 28.5 c 128,-1,57
 1592 73 1592 73 1586 85 c 1,58,59
 1549 102 1549 102 1502 102 c 128,-1,60
 1455 102 1455 102 1282 72.5 c 128,-1,61
 1109 43 1109 43 1054 29 c 128,-1,62
 999 15 999 15 834 -10 c 1,63,64
 758 -42 758 -42 708 -42 c 2,65,-1
 707 -42 l 1,66,-1
 546 -20 l 1,67,68
 363 29 363 29 286 73 c 0,69,70
 102 178 102 178 60 438 c 1,71,-1
 50 563 l 1,72,73
 61 839 61 839 84 925 c 0,74,75
 158 1206 158 1206 236 1276 c 0,76,77
 358 1387 358 1387 594 1400 c 1,78,79
 860 1383 860 1383 899.5 1354 c 128,-1,80
 939 1325 939 1325 947.5 1318.5 c 128,-1,81
 956 1312 956 1312 963.5 1307.5 c 128,-1,82
 971 1303 971 1303 990 1287 c 1,83,84
 1015 1291 1015 1291 1063.5 1302.5 c 128,-1,85
 1112 1314 1112 1314 1383.5 1314 c 128,-1,86
 1655 1314 1655 1314 1694.5 1302 c 128,-1,87
 1734 1290 1734 1290 1744 1290 c 0,88,89
 1769 1290 1769 1290 1797 1330 c 128,-1,90
 1825 1370 1825 1370 1882 1370 c 0,91,92
 1969 1370 1969 1370 1969 1279 c 0,93,94
 1969 1248 1969 1248 1931 1187 c 0,95,96
 1858 1071 1858 1071 1767 1071 c 0,97,98
 1716 1071 1716 1071 1691 1099.5 c 128,-1,99
 1666 1128 1666 1128 1626.5 1140 c 128,-1,100
 1587 1152 1587 1152 1578.5 1154.5 c 128,-1,101
 1570 1157 1570 1157 1567 1158.5 c 128,-1,102
 1564 1160 1564 1160 1558 1162 c 0,103,104
 1545 1168 1545 1168 1540 1178 c 1,105,-1
 1282 1146 l 1,106,-1
 1275 1146 l 1,107,-1
 1275 1054 l 1,108,109
 1300 908 1300 908 1302 859 c 1,110,-1
 1302 799 l 1,111,-1
 1368 807 l 1,112,-1
 1369 807 l 1,18,-1
EndSplineSet
Validated: 1
EndChar

StartChar: MyAND
Encoding: 65533 65533 151
Width: 3266
VWidth: 1894
Flags: W
HStem: -40 978<1472.9 1696.16> -40 170<994.287 1298.8> -8 165<2544 2610.27> 836 20G<866.5 975.5>
VStem: 642 349<125.512 398.479> 1420 326<420 651.833> 2168 340<173 700.863>
LayerCount: 2
Fore
SplineSet
2508 419 m 1,0,-1
 2508 245 l 1,1,-1
 2508 173 l 1,2,-1
 2544 157 l 2,3,4
 2626 124 2626 124 2626 67 c 1,5,6
 2622 30 2622 30 2622 30 c 2,7,8
 2618 -8 2618 -8 2571 -8 c 1,9,10
 2522 1 2522 1 2520 0 c 0,11,12
 2427 -63 2427 -63 2330 -63 c 0,13,14
 2186 -63 2186 -63 2160 -20 c 0,15,16
 2135 21 2135 21 2135 24 c 1,17,18
 2143 64 2143 64 2167 84 c 1,19,20
 2168 381 2168 381 2168 691 c 1,21,22
 2119 751 2119 751 2018 778 c 1,23,24
 2006 760 2006 760 1923 729 c 0,25,26
 1750 665 1750 665 1748 559 c 0,27,28
 1746 468 1746 468 1746 358 c 0,29,30
 1745 277 1745 277 1745 265 c 0,31,32
 1747 212 1747 212 1747 188 c 0,33,34
 1747 160 1747 160 1778 131 c 1,35,36
 1759 64 1759 64 1759 64 c 1,37,38
 1724 -7 1724 -7 1698.5 -23.5 c 128,-1,39
 1673 -40 1673 -40 1609 -40 c 1,40,41
 1409 -40 1409 -40 1405.5 -32 c 128,-1,42
 1402 -24 1402 -24 1394 -24 c 1,43,44
 1330 -5 1330 -5 1321.5 -5 c 128,-1,45
 1313 -5 1313 -5 1275 -22.5 c 128,-1,46
 1237 -40 1237 -40 1082 -40 c 128,-1,47
 927 -40 927 -40 821 14 c 128,-1,48
 715 68 715 68 678.5 125.5 c 128,-1,49
 642 183 642 183 642 261 c 1,50,51
 681 635 681 635 681 635 c 1,52,53
 674 645 674 645 648.5 667 c 128,-1,54
 623 689 623 689 623 734 c 128,-1,55
 623 779 623 779 660 794 c 0,56,57
 813 856 813 856 920 856 c 0,58,59
 1031 856 1031 856 1051 815 c 1,60,61
 1051 815 1051 815 1073 740 c 1,62,-1
 1019 728 l 1,63,64
 991 493 991 493 991 163 c 1,65,66
 1013 147 1013 147 1013 127 c 0,67,68
 1013 122 1013 122 1048.5 127 c 128,-1,69
 1084 132 1084 132 1101 130 c 1,70,71
 1216 130 1216 130 1216 130 c 1,72,73
 1291 156 1291 156 1323 200 c 128,-1,74
 1355 244 1355 244 1369.5 283 c 128,-1,75
 1384 322 1384 322 1388 333 c 128,-1,76
 1392 344 1392 344 1406 382 c 128,-1,77
 1420 420 1420 420 1420 420 c 1,78,79
 1424 577 1424 577 1424 737 c 1,80,81
 1382 759 1382 759 1382 790 c 0,82,83
 1382 819 1382 819 1419 856 c 0,84,85
 1454 891 1454 891 1524 915 c 0,86,87
 1591 938 1591 938 1607 938 c 0,88,89
 1688 938 1688 938 1722 845 c 1,90,91
 1895 922 1895 922 2021 922 c 128,-1,92
 2147 922 2147 922 2227 887 c 1,93,94
 2245 874 2245 874 2336.5 822 c 128,-1,95
 2428 770 2428 770 2508 635 c 1,96,97
 2508 635 2508 635 2508 419 c 1,0,-1
EndSplineSet
LCarets2: 3 2363 1571 833
Ligature2: "My Spelling" space u n space
EndChar

